<?xml version="1.0" encoding="utf-8"?>
<!-- Generator: Adobe Illustrator 19.0.0, SVG Export Plug-In . SVG Version: 6.00 Build 0)  -->
<svg version="1.1" id="图层_1" xmlns="http://www.w3.org/2000/svg" xmlns:xlink="http://www.w3.org/1999/xlink" x="0px" y="0px"
	 viewBox="-459 259.6 41 43.4" style="enable-background:new -459 259.6 41 43.4;" xml:space="preserve">
<style type="text/css">
	.st0{fill:#999999;}
	.st1{fill:#F4F4F4;}
	.st2{fill:#E0E0E0;}
</style>
<path id="XMLID_477_" class="st0" d="M-429.4,301.8h-18.1c-6.3,0-11.4-5.1-11.4-11.4v-18.2c0-6.3,5.1-11.4,11.4-11.4h18.2
	c6.3,0,11.4,5.1,11.4,11.4v18.2C-417.9,296.7-423,301.8-429.4,301.8z"/>
<path id="XMLID_4_" class="st1" d="M-447.2,286c0,1.7,0.9,3.2,2.3,4c-0.6-0.8-0.9-1.7-0.9-2.8c0-2.6,2.1-4.7,4.7-4.7v-5.7
	c-0.5,0-0.9,0-1.4,0.1v4.4C-445.1,281.3-447.2,283.4-447.2,286z"/>
<path id="XMLID_6_" class="st1" d="M-429.7,267.6c-0.7-1-0.9-2.1-0.9-2.7h-1.2C-431.6,265.9-430.9,266.9-429.7,267.6z"/>
<path id="XMLID_7_" class="st1" d="M-426.7,269.5v4.7c0,0-2.8,0.3-5.3-1.2v13c0,5.8-4.7,10.5-10.5,10.5c-2.4,0-4.6-0.8-6.3-2.1
	c1.9,2.1,4.7,3.4,7.7,3.4c5.8,0,10.5-4.7,10.5-10.5v-13c2.5,1.5,5.3,1.2,5.3,1.2v-5.9C-425.8,269.6-426.3,269.6-426.7,269.5z"/>
<path id="XMLID_8_" class="st2" d="M-441.1,292c2.6,0,4.7-2.1,4.7-4.7c0-0.3,0-0.9,0-0.9V278v-13h4.6c-0.2-0.6-0.2-1-0.2-1.3h-5.7
	v13v8.4c0,0,0,0.6,0,0.9c0,2.6-2.1,4.7-4.7,4.7c-0.9,0-1.7-0.2-2.4-0.7C-444,291.2-442.7,292-441.1,292z"/>
<path id="XMLID_10_" class="st1" d="M-426.7,269.5v-1.1c-1.3,0-2.3-0.3-3-0.7C-429.2,268.5-428.2,269.2-426.7,269.5z"/>
<path id="XMLID_12_" class="st2" d="M-442.5,276.9v-1.4c-5.8,0-10.5,4.7-10.5,10.5c0,3.4,1.6,6.4,4.1,8.3c-1.7-1.9-2.8-4.3-2.8-7.1
	C-451.5,281.9-447.6,277.6-442.5,276.9z"/>
<path id="XMLID_13_" class="st1" d="M-432,286v-13c2.5,1.5,5.3,1.2,5.3,1.2v-4.7c-1.5-0.3-2.5-1-3-1.9c-1.2-0.7-1.8-1.8-2.1-2.7
	h-4.6v13v8.4c0,0,0,0.6,0,0.9c0,2.6-2.1,4.7-4.7,4.7c-1.6,0-2.9-0.8-3.8-1.9c-1.4-0.8-2.3-2.3-2.3-4c0-2.6,2.1-4.7,4.7-4.7v-4.4
	c-5.1,0.7-9.1,5.1-9.1,10.4c0,2.7,1.1,5.2,2.8,7.1c1.8,1.3,3.9,2.1,6.3,2.1C-436.7,296.5-432,291.8-432,286z"/>
</svg>
