<?xml version="1.0" encoding="utf-8"?>
<!-- Generator: Adobe Illustrator 19.0.0, SVG Export Plug-In . SVG Version: 6.00 Build 0)  -->
<svg version="1.1" id="图层_1" xmlns="http://www.w3.org/2000/svg" xmlns:xlink="http://www.w3.org/1999/xlink" x="0px" y="0px"
	 viewBox="0 0 41 43.4" style="enable-background:new 0 0 41 43.4;" xml:space="preserve">
<style type="text/css">
	.st0{fill:#FE2751;}
	.st1{fill:#27F2EE;}
	.st2{fill:#FFFFFF;}
</style>
<path id="XMLID_477_" d="M29.6,42.2H11.5c-6.3,0-11.4-5.1-11.4-11.4V12.6c0-6.3,5.1-11.4,11.4-11.4h18.2c6.3,0,11.4,5.1,11.4,11.4
	v18.2C41.1,37.1,36,42.2,29.6,42.2z"/>
<path id="XMLID_4_" class="st0" d="M11.8,26.4c0,1.7,0.9,3.2,2.3,4c-0.6-0.8-0.9-1.7-0.9-2.8c0-2.6,2.1-4.7,4.7-4.7v-5.7
	c-0.5,0-0.9,0-1.4,0.1v4.4C13.9,21.7,11.8,23.8,11.8,26.4z"/>
<path id="XMLID_6_" class="st0" d="M29.3,8c-0.7-1-0.9-2.1-0.9-2.7h-1.2C27.4,6.3,28.1,7.3,29.3,8z"/>
<path id="XMLID_7_" class="st0" d="M32.3,9.9v4.7c0,0-2.8,0.3-5.3-1.2v13c0,5.8-4.7,10.5-10.5,10.5c-2.4,0-4.6-0.8-6.3-2.1
	c1.9,2.1,4.7,3.4,7.7,3.4c5.8,0,10.5-4.7,10.5-10.5v-13c2.5,1.5,5.3,1.2,5.3,1.2V10C33.2,10,32.7,10,32.3,9.9z"/>
<path id="XMLID_8_" class="st1" d="M17.9,32.4c2.6,0,4.7-2.1,4.7-4.7c0-0.3,0-0.9,0-0.9v-8.4v-13h4.6C27,4.8,27,4.4,27,4.1h-5.7v13
	v8.4c0,0,0,0.6,0,0.9c0,2.6-2.1,4.7-4.7,4.7c-0.9,0-1.7-0.2-2.4-0.7C15,31.6,16.3,32.4,17.9,32.4z"/>
<path id="XMLID_10_" class="st1" d="M32.3,9.9V8.8c-1.3,0-2.3-0.3-3-0.7C29.8,8.9,30.8,9.6,32.3,9.9z"/>
<path id="XMLID_12_" class="st1" d="M16.5,17.3v-1.4c-5.8,0-10.5,4.7-10.5,10.5c0,3.4,1.6,6.4,4.1,8.3c-1.7-1.9-2.8-4.3-2.8-7.1
	C7.5,22.3,11.4,18,16.5,17.3z"/>
<path id="XMLID_13_" class="st2" d="M27,26.4v-13c2.5,1.5,5.3,1.2,5.3,1.2V9.9c-1.5-0.3-2.5-1-3-1.9c-1.2-0.7-1.8-1.8-2.1-2.7h-4.6
	v13v8.4c0,0,0,0.6,0,0.9c0,2.6-2.1,4.7-4.7,4.7c-1.6,0-2.9-0.8-3.8-1.9c-1.4-0.8-2.3-2.3-2.3-4c0-2.6,2.1-4.7,4.7-4.7v-4.4
	c-5.1,0.7-9.1,5.1-9.1,10.4c0,2.7,1.1,5.2,2.8,7.1c1.8,1.3,3.9,2.1,6.3,2.1C22.3,36.9,27,32.2,27,26.4z"/>
</svg>
