<svg xmlns="http://www.w3.org/2000/svg" viewBox="0 0 268.26 22.61"><defs><style>.cls-1,.cls-2{fill:#d6007f;}.cls-2{fill-rule:evenodd;}</style></defs><g id="图层_2" data-name="图层 2"><g id="图层_1-2" data-name="图层 1"><path class="cls-1" d="M265.76,3.21s.71,0,.73-1.06-1.13-1.07-1.13-1.07h-1.23V5h.53V3.28h.58L266,5h.57Zm-.66-.3a1.16,1.16,0,0,1-.44-.06V1.55a1.91,1.91,0,0,1,.72,0,.61.61,0,0,1,.54.65S266,2.86,265.1,2.91Z"/><path class="cls-1" d="M265.2,0a3,3,0,1,0,3.06,3A3,3,0,0,0,265.2,0Zm0,5.66a2.63,2.63,0,1,1,0-5.26A2.65,2.65,0,0,1,267.86,3,2.65,2.65,0,0,1,265.2,5.66Z"/><path class="cls-2" d="M16.23,18.76c-.2,1.09-.37,2.21-.53,3.34-1.06.19-2,.32-3,.4s-1.65.11-2.29.11a13.93,13.93,0,0,1-4-.6,9.68,9.68,0,0,1-3.46-1.86A7.19,7.19,0,0,1,.69,17.07a11.09,11.09,0,0,1-.69-4A10.9,10.9,0,0,1,.84,8.8,8.88,8.88,0,0,1,3.22,5.44a10.24,10.24,0,0,1,3.7-2,14.92,14.92,0,0,1,4.44-.67,25.66,25.66,0,0,1,5,.53c0,.83.06,1.42.1,1.77l.08,1.5A23.68,23.68,0,0,0,13.89,6a14.42,14.42,0,0,0-2-.16A9.3,9.3,0,0,0,9,6.27,6.51,6.51,0,0,0,6.51,7.72a6.68,6.68,0,0,0-1.63,2.42,7.73,7.73,0,0,0-.57,2.94A7.34,7.34,0,0,0,5,16.35,5.46,5.46,0,0,0,7.28,18.7a7.63,7.63,0,0,0,3.86.89,19,19,0,0,0,5.09-.83Zm3.35,3.51h0L20,16.88l.29-6.22L20.46,5V3.08q3.48,0,7.28,0h2.7l4.08,0-.17,3L33,6.05c-.37,0-.88,0-1.54,0l-2,0H26.66l-1.94,0-.23,5c1.28,0,2.59,0,3.9,0,.89,0,2.41,0,4.57-.09-.08.86-.14,1.88-.2,3.07l-4.32,0c-1.1,0-2.49,0-4.15.09l-.22,5.25h1.55l3.11,0,3.05,0,2-.11c-.09,1.09-.16,2.12-.19,3.08-2.45,0-4.66,0-6.62,0l-4.64,0Zm18,0h0c.17-1.68.32-3.57.42-5.65l.32-6.89q.16-3.74.16-6.65l2.79,0,2.47,0c1.07,1.85,2.52,4.26,4.41,7.23s3.38,5.43,4.53,7.37l.52-13c0-.3,0-.84,0-1.56l2,0,2,0-.36,5.16-.44,8.83-.17,5.2c-1,0-1.81,0-2.49,0s-1.44,0-2.67,0c-.46-.83-.82-1.45-1.07-1.86-.39-.62-1.2-1.88-2.47-3.82-.82-1.27-1.85-2.91-3.1-4.89-.92-1.46-1.7-2.73-2.35-3.83-.07,1.53-.19,4.33-.35,8.46-.07,1.67-.11,3.65-.15,5.94-.88,0-1.52,0-1.92,0s-1,0-2.08,0Zm27.22,0h0l.31-4.11.31-6.11.19-6h-1l-.92,0h-.88l-3.26.1c.07-1.35.12-2.38.12-3.08,2.72,0,5.55,0,8.52,0h5.07l2.7,0c-.09,1.33-.14,2.36-.14,3.08C74.17,6.07,72.54,6,71,6h-1.1L69.73,8.6l-.41,9.88,0,1.66c0,.68,0,1.39,0,2.13l-2.14,0c-.24,0-1,0-2.3,0ZM78.51,3.08h0l2.22,0,2.15,0L82.2,14.43v.42a5.82,5.82,0,0,0,.55,2.85,3.06,3.06,0,0,0,1.59,1.39,6.19,6.19,0,0,0,2.4.44,6.7,6.7,0,0,0,1.64-.2,5.4,5.4,0,0,0,1.16-.46,3.35,3.35,0,0,0,.74-.6,3.26,3.26,0,0,0,.64-.94,3.72,3.72,0,0,0,.39-1.18,30.92,30.92,0,0,0,.34-3.47L92,7.79c.07-1.43.12-3,.16-4.71l2.37,0,2.06,0L96.1,9.86l-.28,5.38a14.09,14.09,0,0,1-.4,2.82,6.29,6.29,0,0,1-.63,1.43,5.25,5.25,0,0,1-1,1.05,8,8,0,0,1-1.65,1.05A9.92,9.92,0,0,1,90,22.3a18.8,18.8,0,0,1-3.38.31,16,16,0,0,1-3.33-.33,8.84,8.84,0,0,1-2.44-.87,6.22,6.22,0,0,1-1.75-1.32,4.46,4.46,0,0,1-.84-1.47,6.43,6.43,0,0,1-.35-2.2c0-.29,0-.64,0-1.08s0-1,.1-1.73l.13-2c0-.63.09-1.54.15-2.74l.15-3.05c0-.83.07-1.75.09-2.77ZM99.78,22.27h0q.43-4.18.63-9.63c.14-3.62.22-6.81.22-9.56l2.83,0c.82,0,1.63,0,2.41,0s1.62,0,2.5,0a21.41,21.41,0,0,1,2.93.19,5.54,5.54,0,0,1,2.29.84,4.25,4.25,0,0,1,1.48,1.6,4.67,4.67,0,0,1,.5,2.2,6,6,0,0,1-.19,1.49,5,5,0,0,1-.55,1.33,4.54,4.54,0,0,1-.85,1.11,4.81,4.81,0,0,1-1,.74,6.28,6.28,0,0,1-1.11.47c-.42.14-1,.3-1.67.48l1,1.86c.31.59.9,1.65,1.76,3.17L114.38,21c.07.13.29.57.68,1.28-1.15,0-1.91,0-2.27,0s-1.25,0-2.39,0l-1.56-3.73-1-2-1.72-3.42c-.18-.32-.4-.79-.7-1.44a9.24,9.24,0,0,0,1.72.17,6,6,0,0,0,2.21-.39,3.21,3.21,0,0,0,1.55-1.21,3.3,3.3,0,0,0,.54-1.8,2.66,2.66,0,0,0-.23-1.09,2,2,0,0,0-.8-.85,3.1,3.1,0,0,0-1.3-.46,13.24,13.24,0,0,0-1.53-.1h-1.16l-1.81,0-.26,5.78-.25,10.54-2.19,0c-.35,0-1.06,0-2.14,0Zm22.54,0h0c.12-1,.23-2.4.35-4.08s.18-3,.21-4L116.55,3.08l2.49,0,2.25,0c.42,1,1,2.2,1.84,3.71s1.52,2.86,2.1,4.11l4.19-6.75.63-1.07,2.42,0,2.27,0L127,14.48,126.87,18c-.06,1.05-.11,2.46-.13,4.23-1,0-1.74,0-2.21,0s-1.2,0-2.21,0Zm23.77-.4h0c-.09-1.43-.19-2.59-.3-3.49a12.46,12.46,0,0,0,5,1.24,5.19,5.19,0,0,0,1.68-.27,2.38,2.38,0,0,0,1.16-.76,1.88,1.88,0,0,0,.38-1.13,2.2,2.2,0,0,0-.18-.86,4.24,4.24,0,0,0-.91-1.08c-.54-.51-1.49-1.36-2.87-2.54-.66-.57-1.12-1-1.37-1.22a9.15,9.15,0,0,1-1.29-1.45A4.3,4.3,0,0,1,146.75,9a4.82,4.82,0,0,1-.19-1.34,4.5,4.5,0,0,1,.74-2.49,4.9,4.9,0,0,1,2.21-1.81,9.23,9.23,0,0,1,3.73-.66,24,24,0,0,1,4.54.5c.05,1,.13,2.09.28,3.34A11.52,11.52,0,0,0,154,5.74a3.74,3.74,0,0,0-2.25.62,1.8,1.8,0,0,0-.89,1.46,2.17,2.17,0,0,0,.06.48,2.68,2.68,0,0,0,.18.47,7.41,7.41,0,0,0,.44.61,8.38,8.38,0,0,0,.93.87c.4.33.76.59,1,.8l1.73,1.57c.45.37.84.73,1.19,1.07a9.64,9.64,0,0,1,.9,1,6.3,6.3,0,0,1,.59.91,5.66,5.66,0,0,1,.32.9,4.28,4.28,0,0,1,.1,1,4.65,4.65,0,0,1-.55,2.22,4.47,4.47,0,0,1-1.59,1.73,6.21,6.21,0,0,1-2.25.93,12.12,12.12,0,0,1-2.6.27,19.83,19.83,0,0,1-2.1-.15c-.79-.12-1.85-.31-3.15-.59Zm13.11.4h0c1-1.72,2.12-3.86,3.44-6.39l3.72-7.11c1.16-2.19,2.11-4.08,2.88-5.69,1.21,0,4.36,0,5.22,0l2,5.75,4.39,11.9.6,1.54s-3.42,0-4.58,0c-.23-.83-.58-2-1.07-3.37s-.9-2.56-1.24-3.45h-7.42c-1.11,2.23-2.17,4.51-3.23,6.82,0,0-3.54,0-4.73,0Zm9.21-9.75h5.41L171.61,6,170.47,8.4l-2.06,4.12Zm15.48,9.75h0c.16-1.84.27-3.42.35-4.75.11-1.9.24-4.6.37-8.07.09-2.38.14-4.07.14-5.06V3.08l2.3,0,2.19,0-.44,7.59-.38,9.1,0,2.5ZM189,12.12h0l1.43,2,3.84,5.46c.43.62.73,1.06.89,1.34l.92,1.4c1.38,0,2.3,0,2.74,0l2.51,0L197.23,17c-1.73-2.26-2.65-3.48-2.8-3.66L193.56,12l1.1-1.37,6.48-7.59-2.41,0-2.55,0c-.49.68-.83,1.15-1,1.42l-2.93,3.69L189,12.12Zm15.41-9h0l2.22,0,2.14,0-.67,11.35c0,.13,0,.26,0,.42a5.82,5.82,0,0,0,.55,2.85,3.14,3.14,0,0,0,1.59,1.39,6.28,6.28,0,0,0,2.41.44,6.62,6.62,0,0,0,1.63-.2,5.09,5.09,0,0,0,1.17-.46,3.35,3.35,0,0,0,.74-.6,3.23,3.23,0,0,0,.63-.94,3.73,3.73,0,0,0,.4-1.18,33.58,33.58,0,0,0,.34-3.47l.3-4.89c.06-1.43.12-3,.15-4.71l2.38,0,2.05,0L222,9.86l-.28,5.38a14.09,14.09,0,0,1-.4,2.82,5.84,5.84,0,0,1-.62,1.43,5,5,0,0,1-1,1.05,7.21,7.21,0,0,1-1.64,1.05,10.16,10.16,0,0,1-2.25.71,18.61,18.61,0,0,1-3.37.31,15.86,15.86,0,0,1-3.33-.33,8.73,8.73,0,0,1-2.44-.87A6.42,6.42,0,0,1,205,20.09a4.63,4.63,0,0,1-.83-1.47,6.43,6.43,0,0,1-.35-2.2c0-.29,0-.64,0-1.08s0-1,.09-1.73l.13-2c0-.63.1-1.54.16-2.74l.14-3.05c.05-.83.07-1.75.1-2.77Zm21.27,19.19h0c.29-2.79.48-6,.64-9.63s.2-6.81.2-9.56l2.85,0c.81,0,1.61,0,2.4,0s1.61,0,2.49,0a21.3,21.3,0,0,1,2.93.19,5.44,5.44,0,0,1,2.29.84A4.2,4.2,0,0,1,241,5.65a4.79,4.79,0,0,1,.49,2.2,5.53,5.53,0,0,1-.18,1.49,5.38,5.38,0,0,1-.54,1.33,4.83,4.83,0,0,1-.86,1.11,4.9,4.9,0,0,1-1,.74,5.35,5.35,0,0,1-1.1.47c-.41.14-1,.3-1.66.48l1,1.86c.31.59.9,1.65,1.77,3.17L240.29,21c.08.13.3.57.68,1.28-1.15,0-3.53,0-4.67,0l-1.56-3.73c-.28-.59-.61-1.25-1-2L232,13.09c-.17-.32-.41-.79-.7-1.44a9.09,9.09,0,0,0,1.72.17,6,6,0,0,0,2.21-.39,3.18,3.18,0,0,0,1.54-1.21,3.22,3.22,0,0,0,.54-1.8,2.66,2.66,0,0,0-.23-1.09,2,2,0,0,0-.78-.85A3.24,3.24,0,0,0,235,6a13.27,13.27,0,0,0-1.54-.1h-1.15l-1.81,0-.26,5.78L230,22.27Zm16.07,0h0c1-1.72,9.28-17.58,10-19.19,1.22,0,4.36,0,5.22,0l7,19.19s-3.42,0-4.59,0c-.22-.83-.57-2-1.06-3.37s-.9-2.56-1.22-3.45h-7.44c-1.1,2.23-2.17,4.51-3.22,6.82,0,0-3.55,0-4.74,0ZM251,12.52h5.41L254.17,6,253,8.4Z"/></g></g></svg>