<?xml version="1.0" standalone="no"?>
<!DOCTYPE svg PUBLIC "-//W3C//DTD SVG 1.1//EN" "http://www.w3.org/Graphics/SVG/1.1/DTD/svg11.dtd" >
<svg xmlns="http://www.w3.org/2000/svg" xmlns:xlink="http://www.w3.org/1999/xlink" version="1.1">
<metadata>
Created by FontForge 20190801 at Sun Jan 22 08:59:22 2006
 By Jimmy Wärting
HTF Didot   1992 The Hoefler Type Foundry, Inc. This typeface and the digital software that describes it are the exclusive property of HTF. HTF Didot is a trademark of The Hoefler Type Foundry, Inc.
</metadata>
<defs>
<font id="Didot-HTF-M96-Medium-Ital" horiz-adv-x="500" >
  <font-face 
    font-family="Didot"
    font-weight="500"
    font-style="italic"
    font-stretch="normal"
    units-per-em="1000"
    panose-1="2 0 6 3 8 0 0 2 0 4"
    ascent="800"
    descent="-200"
    x-height="434"
    cap-height="709"
    bbox="-238 -354 1138 973"
    underline-thickness="20"
    underline-position="-143"
    unicode-range="U+0020-FB02"
  />
<missing-glyph 
 />
    <glyph glyph-name=".notdef" 
 />
    <glyph glyph-name=".null" horiz-adv-x="0" 
 />
    <glyph glyph-name="nonmarkingreturn" horiz-adv-x="200" 
 />
    <glyph glyph-name="space" unicode=" " horiz-adv-x="200" 
 />
    <glyph glyph-name="space" unicode="&#xa0;" horiz-adv-x="200" 
 />
    <glyph glyph-name="numbersign" unicode="#" horiz-adv-x="482" 
d="M467 296q2 0 2 2t-2 2h-119l48 167q1 2 -1 2.5t-3 -1.5l-48 -168h-139l48 167q1 2 -1 2.5t-3 -1.5l-48 -168h-120q-2 0 -2 -2t2 -2h119l-48 -167h-120q-2 0 -2 -2t2 -2h119l-49 -167q0 -2 2 -2.5t3 1.5l48 168h139l-48 -167q-1 -2 1 -2.5t3 1.5l49 168h120q2 0 2 2t-2 2
h-119l47 167h120zM343 296l-48 -167h-138l47 167h139z" />
    <glyph glyph-name="dollar" unicode="$" horiz-adv-x="528" 
d="M554 593q0 42 -25.5 77t-73.5 49l29 91q0 2 -3 2q-2 0 -2 -2l-28 -89q-21 6 -46 6q-6 0 -12.5 -0.5t-12.5 -0.5l27 84q1 2 -2 2q-2 0 -3 -2l-27 -85q-44 -5 -80.5 -24t-63 -48.5t-41 -67t-14.5 -79.5q0 -56 23 -96t53 -74l-7.5 -25.5t-19.5 -63.5t-26 -82t-26 -82
t-20 -63.5l-8 -25.5q-51 12 -82.5 45t-31.5 73q0 20 10 29t26 9q11 0 17.5 -2.5t12 -5.5t11 -5.5t14.5 -2.5q16 0 26.5 11.5t10.5 34.5q0 21 -15 34t-35 13q-39 0 -62 -29.5t-23 -83.5q0 -20 8.5 -39t24.5 -35.5t37.5 -29.5t48.5 -20l-4 -14t-9.5 -31.5t-10 -31.5l-4.5 -14
q-1 -2 1 -2q3 0 4 2l28 90q25 -6 52 -6h9q5 0 10 1l-4 -13.5t-9.5 -29.5t-9.5 -29l-4 -13q-1 -2 1 -2q3 0 3 2l27 85q57 4 99 25t69 53t40.5 72.5t13.5 82.5q0 30 -7.5 55.5t-20 48t-28.5 43t-34 40.5l99 312q45 -13 68.5 -45t23.5 -68q0 -42 -29 -42q-10 0 -16 2t-10.5 5
t-9.5 5t-13 2q-14 0 -24 -10t-10 -31q0 -19 12.5 -29.5t30.5 -10.5q34 0 55.5 24t21.5 75zM450 717l-7.5 -22.5t-18 -57t-23.5 -74.5t-23.5 -74.5t-18 -57.5l-7.5 -23q-14 15 -27.5 30t-25.5 30q1 2 8.5 26.5t19.5 63t23.5 75t20 62.5l8.5 26q7 1 14 1.5t15 0.5q22 0 42 -6z
M374 720l-6 -18t-14.5 -45.5t-18.5 -60t-19 -60t-15 -46l-6 -18.5q-22 28 -36 56.5t-14 63.5q0 51 34.5 85.5t94.5 42.5zM370 147q0 -31 -7.5 -58t-24.5 -48.5t-45 -35t-69 -17.5l89 282q24 -27 40.5 -56.5t16.5 -66.5zM310 274q-13 -42 -27.5 -88.5t-27.5 -87.5t-22.5 -71
t-12.5 -39q-5 -1 -11 -1h-11q-24 0 -49 5l107 340q14 -15 27.5 -29.5t26.5 -28.5z" />
    <glyph glyph-name="percent" unicode="%" horiz-adv-x="723" 
d="M407 587q0 60 -34 93t-86 33q-50 0 -92.5 -21.5t-73.5 -54.5t-48.5 -73.5t-17.5 -79.5q0 -60 34 -93t86 -33q50 0 92.5 21.5t73.5 54.5t48.5 73.5t17.5 79.5zM610 725q1 2 -1 3.5t-3 -0.5l-453 -749q-1 -2 1 -3.5t3 0.5zM708 220q0 60 -34 93t-86 33q-50 0 -92.5 -21.5
t-74 -54.5t-49 -73.5t-17.5 -79.5q0 -60 34 -93t87 -33q50 0 92.5 21.5t73.5 54.5t48.5 73.5t17.5 79.5zM342 641q0 -23 -6.5 -60t-19.5 -76.5t-32 -74t-43 -50.5q-15 -11 -31 -14.5t-35 -3.5q-31 0 -43 16t-12 52q0 22 6.5 59.5t19.5 77t32 73.5t43 51q15 11 31.5 14.5
t34.5 3.5q31 0 43 -16t12 -52zM643 274q0 -23 -6.5 -60t-19.5 -76.5t-32 -74t-43 -50.5q-16 -11 -32 -14.5t-34 -3.5q-31 0 -43 16t-12 52q0 22 6.5 59.5t19.5 77t31.5 73.5t42.5 51q16 11 32 14.5t35 3.5q31 0 43 -16t12 -52z" />
    <glyph glyph-name="ampersand" unicode="&#x26;" horiz-adv-x="750" 
d="M735 328q0 30 -20 48.5t-58 18.5q-33 0 -57.5 -25t-45 -61.5t-39 -77.5t-40.5 -72q-16 33 -30 73t-24.5 84.5t-16 91.5t-4.5 94q78 38 119 79t41 86q0 59 -74 59q-37 0 -72.5 -21t-63.5 -58.5t-45 -90t-17 -115.5q-125 -45 -188.5 -118.5t-63.5 -162.5q0 -40 13.5 -72.5
t37 -56t55 -36t67.5 -12.5q61 0 107 23.5t81 53.5q28 -35 63 -56t94 -21q25 0 51.5 8.5t49 23.5t39 34.5t22.5 42.5q1 2 -0.5 2.5t-2.5 -1.5q-13 -29 -36 -47t-55 -18q-38 0 -76.5 33.5t-68.5 93.5q21 29 38 64.5t32.5 66.5t31.5 52t34 21t23.5 -12.5t9 -27t10.5 -27
t28 -12.5q26 0 38.5 14.5t12.5 33.5zM556 667q0 -45 -42 -85t-114 -75q1 36 8.5 73.5t21.5 68t34 50t47 19.5q20 0 32.5 -13.5t12.5 -37.5zM394 63q-10 -9 -22.5 -17t-26.5 -14t-27.5 -9.5t-25.5 -3.5q-37 0 -65.5 15t-47.5 41t-29 62.5t-10 79.5q0 82 34.5 137t113.5 83
q0 -63 8.5 -117t22.5 -100t33.5 -85t41.5 -72z" />
    <glyph glyph-name="quotesingle" unicode="'" horiz-adv-x="181" 
d="M235 686q0 40 -36 40q-14 0 -24.5 -11t-14.5 -25q-5 -16 -8 -38.5t-5 -48.5t-4 -53t-5 -52l-3 -11l1 -0.5t1 0.5q1 0 2.5 5l1.5 5q12 22 28 48t30.5 51.5t25 49t10.5 40.5z" />
    <glyph glyph-name="parenleft" unicode="(" horiz-adv-x="300" 
d="M471 735q2 2 0.5 3t-3.5 0q-85 -48 -162.5 -119.5t-137 -160.5t-94.5 -191.5t-35 -211.5q0 -56 9 -101t24.5 -81.5t37.5 -65t49 -51.5q1 -1 3 0t0 2q-18 16 -31 31.5t-21.5 34.5t-12.5 43t-4 57q0 25 9 72t25 106.5t37 126.5t44.5 133t49 125t49.5 103q18 33 60 72
t104 73z" />
    <glyph glyph-name="parenright" unicode=")" horiz-adv-x="300" 
d="M251 440q0 56 -9 101t-25 81.5t-38 65t-48 51.5q-1 1 -3 0t-1 -2q18 -16 31.5 -31.5t22 -34.5t12.5 -43t4 -57q0 -25 -9 -72t-25 -106.5t-37 -126.5t-45 -133t-49 -125t-49 -103q-19 -33 -61 -72t-103 -73q-2 -2 -0.5 -3t3.5 0q85 48 162.5 119.5t136.5 160.5t94.5 191.5
t35.5 211.5z" />
    <glyph glyph-name="asterisk" unicode="*" horiz-adv-x="290" 
d="M345 631q2 8 -3 17.5t-15 11.5q-6 1 -11 0q-8 -2 -14 -8t-14 -13.5t-19.5 -15.5t-30.5 -15l-7 -2l2 6q3 21 8.5 33.5t11 21t10 15t6.5 16.5t-3.5 17t-15.5 9t-17.5 -3t-9.5 -15t0.5 -18t5 -17.5t3.5 -23t-3 -34.5l-1 -6l-5 4q-16 13 -24.5 24.5t-13 21.5t-8.5 17.5
t-11 12.5q-3 2 -9 4q-10 2 -17.5 -5.5t-9.5 -16.5q-2 -11 6 -18q6 -7 14 -9.5t18 -5.5t22.5 -9t29.5 -19q1 0 2.5 -2t2.5 -2q-1 0 -3 -1.5t-3 -1.5q-20 -7 -34 -8t-24.5 0t-19.5 1q-8 0 -16 -4q-11 -5 -12 -15q-2 -8 3 -17.5t15 -11.5q6 -2 11 1q8 2 14 7.5t14 13t19.5 15.5
t30.5 15l7 2l-2 -6q-3 -21 -8.5 -33.5t-11 -20.5t-10.5 -15t-6 -17q-2 -9 3.5 -16.5t15.5 -9.5t17.5 3.5t9.5 14.5q1 10 -1 18t-4.5 17.5t-3.5 23t3 34.5l1 6l5 -4q16 -13 24.5 -24.5t13 -21t8.5 -17t11 -12.5q3 -2 9 -4q10 -2 17.5 5.5t9.5 15.5q2 12 -6 18q-6 7 -14 9.5
t-18 5.5t-23 8.5t-29 19.5l-2.5 2.5t-2.5 1.5q3 3 6 3q20 7 34 8t24.5 0.5t19 -1t16.5 3.5q10 5 12 15z" />
    <glyph glyph-name="plus" unicode="+" horiz-adv-x="420" 
d="M370 211q2 0 2 2t-2 2h-158v158q0 2 -2 2t-2 -2v-158h-158q-2 0 -2 -2t2 -2h158v-158q0 -2 2 -2t2 2v158h158z" />
    <glyph glyph-name="comma" unicode="," horiz-adv-x="196" 
d="M120 49q0 17 -10.5 33.5t-33.5 16.5q-25 0 -39 -16.5t-14 -40.5q0 -11 3.5 -20.5t8 -17.5t8.5 -16.5t4 -18.5q0 -15 -7.5 -28.5t-19 -24.5t-25.5 -20t-27 -15q-8 -4 -19 -7.5t-22 -5.5q-2 0 -2.5 -2t1.5 -2q39 8 74.5 28.5t62 47t42 55.5t15.5 54z" />
    <glyph glyph-name="hyphen" unicode="-" horiz-adv-x="322" 
d="M295 267q4 4 0 4h-250q-2 -17 -6 -33.5t-12 -27.5q-2 -4 0 -4h250q2 17 6 33.5t12 27.5z" />
    <glyph glyph-name="period" unicode="." horiz-adv-x="196" 
d="M123 56q0 19 -11.5 31t-28.5 12q-25 0 -44.5 -21.5t-19.5 -48.5q0 -19 11.5 -30.5t28.5 -11.5q25 0 44.5 21t19.5 48z" />
    <glyph glyph-name="slash" unicode="/" horiz-adv-x="328" 
d="M377 754q1 2 -1 3t-3 -1l-321 -777q0 -2 2 -3t3 1z" />
    <glyph glyph-name="zero" unicode="0" horiz-adv-x="510" 
d="M466 267q0 37 -14 68t-37 53t-53.5 34.5t-64.5 12.5q-50 0 -99 -23t-87.5 -61.5t-62.5 -88t-24 -103.5q0 -37 13.5 -68t37 -53t54 -34.5t64.5 -12.5q50 0 99 23t87.5 61.5t62.5 88t24 103.5zM399 345q0 -13 -5 -36.5t-12.5 -51.5t-17.5 -58.5t-20 -57.5t-19 -47.5
t-15 -30.5q-11 -17 -22 -30t-24.5 -21.5t-32 -12.5t-43.5 -4q-50 0 -73.5 25.5t-23.5 60.5q0 13 5 36.5t12.5 51.5t17.5 58.5t20 57.5t19 48t15 30q11 17 22 30t25 21.5t32 12.5t43 4q51 0 74 -25.5t23 -60.5z" />
    <glyph glyph-name="one" unicode="1" horiz-adv-x="335" 
d="M340 426h-231q-2 0 -2.5 -2t1.5 -2h65q6 0 5 -4l-130 -410q0 -4 -7 -4h-65q-2 0 -2.5 -2t1.5 -2h231q2 0 2.5 2t-1.5 2h-65q-6 0 -5 4l130 410q0 4 7 4h65q2 0 2.5 2t-1.5 2z" />
    <glyph glyph-name="two" unicode="2" horiz-adv-x="413" 
d="M374 151q1 2 -1 2t-2 -2q-14 -45 -40 -64.5t-74 -19.5h-177q-3 0 -5 1t2 3q132 66 204 128t72 123q0 56 -38 84.5t-101 28.5q-34 0 -56.5 -9.5t-36.5 -24t-20 -31.5t-6 -32q0 -32 15 -50.5t42 -18.5q16 0 27.5 10.5t11.5 26.5q0 19 -8 27.5t-20 8.5q-7 0 -11 -1.5
t-8 -3.5t-8.5 -3.5t-12.5 -1.5q-13 0 -16 3.5t-3 18.5q0 7 5 19t15.5 23.5t27.5 19.5t42 8q73 0 73 -84q0 -38 -19 -83t-59.5 -90t-104 -87t-151.5 -73q-5 -2 -4 -4.5t3 -2.5h392q2 0 4 3z" />
    <glyph glyph-name="three" unicode="3" horiz-adv-x="385" 
d="M332 330q0 18 -5.5 36.5t-21 33.5t-42 25t-68.5 10q-33 0 -56 -9.5t-38 -24t-21.5 -31t-6.5 -31.5q0 -32 15 -50.5t42 -18.5q16 0 28 10t12 27q0 19 -8.5 27.5t-20.5 8.5q-7 0 -11 -1.5t-8 -3.5t-8.5 -3.5t-12.5 -1.5q-11 0 -15 4t-4 18q0 9 5.5 21t16.5 23t28.5 18.5
t41.5 7.5q72 0 72 -76q0 -77 -46.5 -147t-153.5 -120q-2 -1 -1 -3.5t3 -0.5q35 18 56 27t35 9q20 0 36 -14.5t16 -54.5q0 -66 -14 -125.5t-42.5 -104.5t-70.5 -71.5t-97 -26.5q-53 0 -77.5 18t-24.5 40q0 20 11 25.5t21 5.5t16 -2.5t11 -5l10 -5t14 -2.5q14 0 24.5 11
t10.5 32q0 20 -14 33t-34 13q-35 0 -57 -24.5t-22 -59.5q0 -41 27 -62t88 -21q29 0 63.5 9.5t69 28t66.5 44t57 57t40 69t15 78.5q0 62 -32.5 93t-95.5 31q-13 0 -34 -6q33 12 70 35.5t68.5 53.5t52.5 62.5t21 61.5z" />
    <glyph glyph-name="four" unicode="4" horiz-adv-x="446" 
d="M509 529q1 1 -0.5 2t-2.5 -1q-13 -11 -36.5 -23.5t-49 -21.5t-49 -13.5t-36.5 1.5l-280 -352q-26 -33 -53 -63.5t-49 -51.5q-2 -2 -2.5 -3.5t1.5 -1.5h242l-87 -279h89l88 279h104q2 0 2.5 2t-1.5 2h-104l69 217q0 1 -2 1q-1 0 -2 -1q-7 -11 -20 -26.5t-28.5 -30.5
t-33.5 -26t-34 -12l-38 -122h-239z" />
    <glyph glyph-name="five" unicode="5" horiz-adv-x="392" 
d="M386 418q0 16 -6.5 24t-26.5 8q-11 0 -24.5 -8.5t-31.5 -18.5t-42 -18.5t-55 -8.5q-29 0 -49.5 6.5t-28.5 18.5q-2 2 -4 -2v-3t-2 -6l-76 -334q-2 -6 -6.5 -16t-6.5 -15q-2 -8 3 -8q6 0 8 8q3 8 3 15q0 8 8 20q22 38 50 56t60 18q29 0 44.5 -18t15.5 -58
q0 -76 -15.5 -142t-45.5 -114.5t-74 -76.5t-101 -28q-54 0 -78 18t-24 40q0 20 11 25.5t20 5.5q10 0 16.5 -2.5t11.5 -5t10.5 -5t13.5 -2.5q15 0 24.5 11t9.5 32q0 20 -13.5 33t-33.5 13q-35 0 -57.5 -24.5t-22.5 -59.5q0 -41 27 -62t89 -21q29 0 64 11.5t70.5 32t69.5 49.5
t60 63.5t42 73.5t16 80q0 62 -32 100t-95 38q-48 0 -80 -19t-55 -57l75 327q3 -14 14 -27t27.5 -23.5t36.5 -17t43 -6.5q28 0 54 5.5t45.5 16t31.5 25.5t12 33z" />
    <glyph glyph-name="six" unicode="6" horiz-adv-x="468" 
d="M522 627q0 41 -22 63.5t-74 22.5q-43 0 -89 -25t-90 -67t-83.5 -97.5t-69 -117t-47 -125t-17.5 -121.5q0 -45 12.5 -77t33.5 -52t47.5 -29.5t54.5 -9.5q46 0 91.5 21t81 56.5t57.5 81t22 95.5q0 34 -12 62.5t-33 49t-49 32t-59 11.5q-36 0 -67.5 -21t-52.5 -56
q17 62 45 130t63.5 124.5t77.5 93.5t88 37q43 0 62 -19.5t19 -41.5q0 -20 -11 -25.5t-20 -5.5q-10 0 -16 2.5t-11 5t-10.5 5t-13.5 2.5q-15 0 -25 -11t-10 -32q0 -20 14 -32.5t33 -12.5q35 0 57.5 24t22.5 59zM363 321q0 -18 -9 -57t-22 -81t-26 -78.5t-22 -49.5
q-11 -16 -20.5 -27t-21.5 -18.5t-28.5 -11t-39.5 -3.5q-41 0 -61.5 19t-20.5 53q0 25 7.5 62t18.5 74t22 68.5t19 45.5q17 34 49 57t69 23q44 0 65 -20.5t21 -55.5z" />
    <glyph glyph-name="seven" unicode="7" horiz-adv-x="412" 
d="M441 427h-9h-338q-2 0 -4 -2l-51 -163q0 -2 1 -2q2 0 3 2q14 45 42.5 70t76.5 25h222l-489 -634h108l325 545q23 38 51.5 77t60.5 78q4 4 1 4z" />
    <glyph glyph-name="eight" unicode="8" horiz-adv-x="469" 
d="M515 592q0 23 -10 45t-28 39t-44 27t-58 10q-44 0 -80.5 -13.5t-63 -38.5t-41.5 -61.5t-15 -82.5q0 -23 6 -43t15.5 -38t21.5 -34.5t24 -33.5q-49 -20 -90 -46.5t-70.5 -57.5t-46 -67t-16.5 -75q0 -28 11.5 -52t32 -41.5t49 -27.5t61.5 -10q43 0 84.5 14t74.5 40.5t53 65
t20 87.5q0 30 -6.5 56.5t-17 50.5t-24.5 46t-28 43q89 39 137.5 89t48.5 109zM454 628q0 -21 -3.5 -51.5t-17 -63t-39 -63t-68.5 -52.5q-15 22 -30 43.5t-26.5 44t-19 46t-7.5 50.5q0 36 10 60.5t27 39.5t41 21t53 6q41 0 60.5 -21.5t19.5 -59.5zM329 165q0 -47 -12.5 -79
t-34 -52.5t-49.5 -29.5t-59 -9q-42 0 -63 25t-21 86q0 107 41 167.5t113 90.5q15 -21 30.5 -42t27.5 -45t19.5 -51.5t7.5 -60.5z" />
    <glyph glyph-name="nine" unicode="9" horiz-adv-x="481" 
d="M429 267q0 45 -12.5 77t-33 52t-47.5 29.5t-55 9.5q-46 0 -92 -24t-82.5 -62t-59.5 -87t-23 -98q0 -34 12.5 -62.5t33.5 -49t48.5 -32t58.5 -11.5q36 0 67.5 19t52.5 54q-10 -34 -25.5 -74.5t-36 -81t-44.5 -78.5t-50.5 -67t-55 -46.5t-56.5 -17.5q-44 0 -66 18t-22 41
q0 20 11 25.5t20 5.5q10 0 16.5 -2.5t11.5 -5t10.5 -5t13.5 -2.5q14 0 24 10.5t10 32.5q0 20 -14 32.5t-33 12.5q-35 0 -57 -24.5t-22 -59.5q0 -83 101 -83q43 0 89 25t90 67t83.5 97.5t69 117t47 125.5t17.5 122zM370 358q0 -18 -9 -57t-21 -81.5t-25 -79.5t-20 -51
q-17 -34 -49 -55t-69 -21q-47 0 -69 22.5t-22 50.5q0 18 11 59.5t25.5 87.5t29.5 85t24 53q21 31 43.5 45.5t66.5 14.5q45 0 64.5 -21t19.5 -52z" />
    <glyph glyph-name="colon" unicode=":" horiz-adv-x="261" 
d="M210 342q0 19 -11 31t-28 12q-26 0 -45 -21.5t-19 -48.5q0 -19 11.5 -30.5t28.5 -11.5q25 0 44 21t19 48zM123 56q0 19 -11.5 31t-28.5 12q-25 0 -44.5 -21.5t-19.5 -48.5q0 -19 11.5 -30.5t28.5 -11.5q25 0 44.5 21t19.5 48z" />
    <glyph glyph-name="semicolon" unicode=";" horiz-adv-x="261" 
d="M210 342q0 19 -11 31t-28 12q-26 0 -45 -21.5t-19 -48.5q0 -19 11.5 -30.5t28.5 -11.5q25 0 44 21t19 48zM120 49q0 17 -10.5 33.5t-33.5 16.5q-25 0 -39 -16.5t-14 -40.5q0 -11 3.5 -20.5t8 -17.5t8.5 -16.5t4 -18.5q0 -15 -7.5 -28.5t-19 -24.5t-25.5 -20t-27 -15
q-8 -4 -19 -7.5t-22 -5.5q-2 0 -2.5 -2t1.5 -2q39 8 74.5 28.5t62 47t42 55.5t15.5 54z" />
    <glyph glyph-name="less" unicode="&#x3c;" horiz-adv-x="335" 
d="M293 76l-238 137l238 138q2 1 1 2.5t-3 0.5l-241 -139q-2 -2 0 -4l241 -139q2 -1 3 1t-1 3z" />
    <glyph glyph-name="equal" unicode="=" horiz-adv-x="379" 
d="M329 271q2 0 2 1q0 2 -2 2h-278q-2 0 -2 -2q0 -1 2 -1h278zM329 152q2 0 2 2t-2 2h-278q-2 0 -2 -2t2 -2h278z" />
    <glyph glyph-name="greater" unicode="&#x3e;" horiz-adv-x="335" 
d="M285 211q2 2 0 4l-241 139q-2 1 -3 -0.5t1 -2.5l238 -138l-238 -137q-2 -1 -1 -3t3 -1z" />
    <glyph glyph-name="question" unicode="?" horiz-adv-x="461" 
d="M482 557q0 34 -12 64.5t-33.5 53.5t-50.5 36.5t-63 13.5q-36 0 -67.5 -12.5t-55.5 -32t-38 -42t-14 -41.5q0 -23 14 -39t37 -16q26 0 38 11.5t12 28.5q0 10 -2 15.5t-5 10.5t-5 11t-2 18q0 42 20.5 63.5t70.5 21.5q38 0 58 -21.5t20 -66.5q0 -18 -8 -54.5t-19.5 -76.5
t-23.5 -74.5t-19 -48.5q-18 -32 -40 -45.5t-60 -13.5q-9 0 -19 2t-19 6t-16 10.5t-9 16.5q0 2 -1.5 1t-2.5 -2q0 -1 0.5 -2t-0.5 -3l-59 -186q0 -2 1 -2q2 0 3 2l58 183q8 -15 27 -22.5t36 -7.5q51 0 96 19t79 51.5t54 76t20 93.5zM121 56q0 19 -11.5 31t-28.5 12
q-26 0 -45 -21.5t-19 -48.5q0 -19 11.5 -30.5t28.5 -11.5q25 0 44.5 21t19.5 48z" />
    <glyph glyph-name="at" unicode="@" horiz-adv-x="825" 
d="M784 404q0 77 -26.5 137t-72 101t-107 62.5t-131.5 21.5q-77 0 -144.5 -29t-118 -79.5t-80 -118t-29.5 -144.5t29.5 -144.5t80 -118t118 -80t144.5 -29.5q67 0 127 22.5t108 61.5q2 2 0.5 3t-3.5 0q-48 -39 -107 -61t-125 -22q-76 0 -143 29t-117 79t-79 117t-29 143
t29 143t79 116.5t117 78.5t143 29q69 0 130 -21t106 -61.5t71 -100t26 -135.5q0 -51 -17.5 -91.5t-47 -68.5t-66.5 -43t-76 -15q-43 0 -42 42t31 137l50 160h-69l-12 -36q-4 22 -23.5 33t-42.5 11q-46 0 -87 -21t-71.5 -54.5t-48.5 -74t-18 -79.5q0 -24 5.5 -46.5t18 -40.5
t33 -29t49.5 -11q15 0 32 5.5t34 17.5t32 31t26 47q-5 -20 -4 -38t10.5 -32t29 -22.5t50.5 -8.5q36 0 76 13.5t74 41t56 70.5t22 102zM527 475l-62 -196q-4 -14 -14 -30.5t-25 -31t-34 -24t-41 -9.5q-51 0 -51 59q0 25 7.5 62.5t21 76t32 72t39.5 50.5q17 14 31.5 20t33.5 6
q29 0 48 -16t14 -39z" />
    <glyph glyph-name="A" unicode="A" horiz-adv-x="657" 
d="M606 0q2 0 2 2t-2 2h-90q-6 0 -6 4v715q0 2 -2 2.5t-4 -2.5l-534 -677q-23 -29 -30.5 -35.5t-12.5 -6.5h-84q-2 0 -2 -2t2 -2h202q2 0 2 2t-2 2h-95q-5 0 -1.5 6.5t26.5 35.5l158 200h259v-238q0 -4 -6 -4h-80q-2 0 -2 -2t2 -2h300zM392 250h-256l256 324v-324z" />
    <glyph glyph-name="B" unicode="B" horiz-adv-x="661" 
d="M644 555q0 72 -52 113t-152 41h-272q-2 0 -3 -2t1 -2h90q7 0 5 -4l-218 -693q-1 -4 -8 -4h-90q-2 0 -2.5 -2t1.5 -2h342q67 0 124 18t98.5 48.5t65 70t23.5 82.5q0 75 -49 114t-133 46q50 3 92 17t72.5 37t47.5 54t17 68zM550 630q0 -21 -6 -49t-15 -55.5t-19 -51.5
t-19 -37q-10 -15 -19 -25.5t-20.5 -17t-26 -10t-35.5 -3.5h-106l101 320q2 4 7 4h58q53 0 76.5 -16.5t23.5 -58.5zM487 293q0 -27 -6.5 -58.5t-16 -62t-21.5 -57.5t-24 -45q-23 -35 -53.5 -50.5t-78.5 -15.5h-116q-6 0 -5 4l117 368h109q56 0 75.5 -22t19.5 -61z" />
    <glyph glyph-name="C" unicode="C" horiz-adv-x="640" 
d="M699 723q1 2 -1 2t-3 -2q-6 -12 -22 -22t-43 -10q-18 0 -37.5 5.5t-39.5 12t-40 12t-39 5.5q-53 0 -105.5 -18.5t-99.5 -51.5t-87.5 -78.5t-70 -98.5t-46 -111.5t-16.5 -118.5q0 -62 19 -111.5t53 -84t79.5 -53t99.5 -18.5q83 0 157.5 49t137.5 140q1 2 -0.5 3.5
t-2.5 -0.5q-64 -91 -137.5 -139.5t-154.5 -48.5q-78 0 -117 36t-39 101q0 30 8 73t20.5 92t28.5 100t32.5 96t31.5 80.5t26 52.5q37 58 78.5 81.5t104.5 23.5q37 0 70 -19.5t55.5 -50.5t31.5 -69t-3 -75q-1 -2 1 -2t2 2z" />
    <glyph glyph-name="D" unicode="D" horiz-adv-x="763" 
d="M744 436q0 59 -20.5 109t-56 86.5t-82.5 57t-101 20.5h-316q-2 0 -3 -2t1 -2h90q6 0 5 -4l-218 -693q-1 -4 -8 -4h-90q-2 0 -2.5 -2t1.5 -2h343q53 0 108 16.5t105.5 46t95 70t77.5 89t52 103t19 111.5zM646 556q0 -28 -6 -66t-16 -80t-23.5 -85t-27 -81.5t-27 -68.5
t-24.5 -47q-42 -64 -101 -94t-134 -30h-116q-6 0 -5 4l219 693q1 4 7 4h92q48 0 79 -12.5t49.5 -33t26 -47.5t7.5 -56z" />
    <glyph glyph-name="E" unicode="E" horiz-adv-x="666" 
d="M698 706q0 3 -2 3h-528q-2 0 -2.5 -2t1.5 -2h89q6 0 6 -4l-219 -693q-1 -4 -8 -4h-89q-2 0 -3 -2t1 -2h582q2 0 4 3l67 211q1 2 -1 2t-3 -2q-12 -38 -38 -75.5t-65.5 -67.5t-93.5 -48.5t-121 -18.5h-103q-6 0 -6 4l116 364h40q31 0 52 -11.5t32.5 -30.5t13 -43.5
t-6.5 -50.5q-1 -2 1 -2t3 2l79 253q1 2 -1 2t-3 -2q-16 -52 -61.5 -82.5t-107.5 -30.5h-40l102 325q1 4 8 4h115q48 0 78.5 -17t46 -44t17 -61t-9.5 -69q-1 -2 1 -2t3 2z" />
    <glyph glyph-name="F" unicode="F" horiz-adv-x="611" 
d="M698 706q0 3 -2 3h-528q-2 0 -2.5 -2t1.5 -2h89q6 0 6 -4l-219 -693q-1 -4 -8 -4h-89q-2 0 -3 -2t1 -2h330q2 0 2.5 2t-1.5 2h-103q-6 0 -6 4l116 364h54q31 0 52 -11.5t32.5 -30.5t13.5 -43.5t-6 -49.5q-1 -2 1 -2t2 2l80 252q0 2 -2 2q-1 0 -2 -2q-17 -52 -62 -82.5
t-107 -30.5h-55l102 325q1 4 8 4h115q48 0 79 -17t46.5 -44t16.5 -61t-10 -69q0 -2 1 -2q2 0 3 2z" />
    <glyph glyph-name="G" unicode="G" horiz-adv-x="678" 
d="M710 271h-316q-2 0 -2.5 -2t1.5 -2h90q6 0 5 -3l-58 -186q-13 -41 -44.5 -66.5t-85.5 -25.5q-79 0 -117.5 36t-38.5 100q0 30 8 73t20.5 92t29 100t33 96t31.5 80.5t26 52.5q36 58 77 81.5t105 23.5q37 0 70 -19.5t55.5 -50.5t31 -69t-3.5 -75q0 -2 2 -2t2 2l68 215
q0 2 -2 2q-1 0 -2 -2q-6 -12 -22 -22t-43 -10q-18 0 -37.5 5.5t-39.5 12t-40 12t-39 5.5q-54 0 -106 -18.5t-99.5 -51.5t-87.5 -78.5t-69.5 -98.5t-46 -111.5t-16.5 -118.5q0 -62 19 -111.5t53 -84t79.5 -52.5t99.5 -18q27 0 52 8t47.5 17t43 17t38.5 8q22 0 33 -11t7 -25
q-1 -2 2 -2.5t4 1.5l85 269q0 3 7 3h90q2 0 2.5 2t-1.5 2z" />
    <glyph glyph-name="H" unicode="H" horiz-adv-x="808" 
d="M894 709h-306q-2 0 -3 -2t1 -2h80q6 0 6 -4l-105 -330h-286l104 330q1 4 8 4h80q2 0 2.5 2t-1.5 2h-306q-2 0 -2.5 -2t1.5 -2h90q6 0 5 -4l-219 -693q-1 -4 -7 -4h-90q-2 0 -2.5 -2t1.5 -2h306q2 0 2.5 2t-1.5 2h-80q-6 0 -5 4l113 359h286l-113 -359q-1 -4 -8 -4h-80
q-2 0 -2.5 -2t1.5 -2h306q2 0 2.5 2t-1.5 2h-89q-6 0 -6 4l219 693q1 4 8 4h89q2 0 3 2t-1 2z" />
    <glyph glyph-name="I" unicode="I" horiz-adv-x="399" 
d="M484 709h-316q-2 0 -2.5 -2t1.5 -2h89q6 0 6 -4l-219 -693q-1 -4 -8 -4h-89q-2 0 -3 -2t1 -2h316q2 0 3 2t-1 2h-90q-6 0 -5 4l218 693q1 4 8 4h90q2 0 2.5 2t-1.5 2z" />
    <glyph glyph-name="J" unicode="J" horiz-adv-x="566" 
d="M661 709h-316q-2 0 -2.5 -2t1.5 -2h90q6 0 5 -4l-196 -620q-14 -48 -45.5 -71t-69.5 -23q-37 0 -55.5 9.5t-18.5 33.5q0 34 29 39q12 3 21.5 10t15.5 17t9 21t3 20q0 25 -19 46t-48 21q-19 0 -35 -8t-27 -21t-17.5 -28t-6.5 -30q0 -27 10 -51.5t29 -43t46.5 -29
t62.5 -10.5q101 0 172 54t109 174l154 490q1 4 8 4h90q2 0 2.5 2t-1.5 2z" />
    <glyph glyph-name="K" unicode="K" horiz-adv-x="683" 
d="M806 709h-202q-2 0 -2.5 -2t1.5 -2h93q2 0 2.5 -1t-3 -5.5t-13 -12.5t-27.5 -23l-379 -306l109 344q1 4 8 4h89q2 0 3 2t-1 2h-316q-2 0 -3 -2t1 -2h90q6 0 6 -4l-219 -693q-1 -4 -8 -4h-90q-2 0 -2.5 -2t1.5 -2h316q2 0 2.5 2t-1.5 2h-89q-6 0 -6 4l109 343l156 -343
q2 -4 -4 -4h-104q-2 0 -2.5 -2t1.5 -2h368q2 0 3 2t-1 2h-114q-2 0 -5 1t-3 3l-197 423l288 232q18 14 28 22.5t16 13t9 5.5t6 1h84q2 0 3 2t-1 2z" />
    <glyph glyph-name="L" unicode="L" horiz-adv-x="612" 
d="M570 214q1 2 -1 2t-3 -2q-12 -38 -38 -75.5t-65.5 -67.5t-93 -48.5t-120.5 -18.5h-78q-6 0 -5 4l219 693q1 4 7 4h90q2 0 2.5 2t-1.5 2h-315q-2 0 -2.5 -2t1.5 -2h90q6 0 5 -4l-219 -693q0 -4 -7 -4h-90q-2 0 -2.5 -2t1.5 -2h555q3 0 3 3z" />
    <glyph glyph-name="M" unicode="M" horiz-adv-x="905" 
d="M991 709h-213q-8 0 -20 -18l-347 -532l-20 532q-2 18 -11 18h-207q-2 0 -3 -2t1 -2h90q6 0 5 -4l-218 -693q-1 -4 -8 -4h-90q-2 0 -2.5 -2t1.5 -2h197q2 0 2.5 2t-1.5 2h-90q-6 0 -5 4l218 691l28 -712q0 -2 1 -2q2 0 4 2l466 712l-218 -691q-1 -4 -8 -4h-90
q-2 0 -2.5 -2t1.5 -2h316q2 0 2.5 2t-1.5 2h-90q-6 0 -5 4l218 693q1 4 8 4h90q2 0 2.5 2t-1.5 2z" />
    <glyph glyph-name="N" unicode="N" horiz-adv-x="757" 
d="M848 709h-197q-2 0 -2.5 -2t1.5 -2h90q6 0 5 -4l-166 -526l-179 516q-4 11 -8 14.5t-9 3.5h-215q-2 0 -2.5 -2t1.5 -2h89q6 0 6 -4l-219 -693q-1 -4 -8 -4h-89q-2 0 -3 -2t1 -2h197q2 0 2.5 2t-1.5 2h-90q-6 0 -5 4l218 691l254 -712q4 -7 6 0l224 714q1 4 8 4h89
q2 0 3 2t-1 2z" />
    <glyph glyph-name="O" unicode="O" horiz-adv-x="743" 
d="M724 460q0 62 -19 111.5t-52.5 84t-79 52.5t-99.5 18t-106 -18.5t-99.5 -51.5t-87.5 -78t-69.5 -98t-46 -111.5t-16.5 -118.5q0 -62 19 -111.5t52.5 -84t79.5 -53t100 -18.5q53 0 105 18.5t99.5 51.5t87.5 78.5t69.5 98.5t46 111.5t16.5 118.5zM630 586q0 -30 -8 -73
t-20.5 -92t-29 -100t-33 -96t-31.5 -80t-26 -53q-36 -58 -78 -81.5t-104 -23.5q-78 0 -117 36t-39 100q0 30 8 73.5t20.5 92.5t28.5 100t32.5 96t31.5 80t26 53q18 29 37.5 49t41.5 32t47.5 17.5t56.5 5.5q78 0 117 -35.5t39 -100.5z" />
    <glyph glyph-name="P" unicode="P" horiz-adv-x="667" 
d="M690 534q0 91 -60 133t-178 42h-284q-2 0 -3 -2t1 -2h90q6 0 6 -4l-219 -693q-1 -4 -8 -4h-89q-2 0 -3 -2t1 -2h316q2 0 2.5 2t-1.5 2h-89q-6 0 -6 4l96 303q17 -6 43.5 -13t59.5 -7q67 0 126 20t103.5 53.5t70 77.5t25.5 92zM580 610q0 -25 -7.5 -60.5t-18.5 -71
t-23 -65.5t-22 -45q-25 -38 -58.5 -55.5t-84.5 -17.5q-32 0 -57.5 6t-45.5 15l122 385q1 4 8 4h84q60 0 81.5 -26.5t21.5 -68.5z" />
    <glyph glyph-name="Q" unicode="Q" horiz-adv-x="743" 
d="M724 460q0 62 -19 111.5t-52.5 84t-79 52.5t-99.5 18t-106 -18.5t-99.5 -51.5t-87.5 -78t-69.5 -98t-46 -111.5t-16.5 -118.5q0 -62 19 -111.5t52.5 -84t79.5 -53t100 -18.5q21 0 41 3q-16 -5 -39.5 -10t-48 -10.5t-47.5 -11.5t-39 -13q-34 -5 -34 -13q0 -5 6 -5
t14.5 7.5t22.5 7.5q35 0 58 -19t43.5 -47t44 -61.5t60.5 -61.5t92.5 -47t139.5 -19q2 0 2 2t-2 2q-39 0 -65.5 11t-45 29t-33 41t-30 46.5t-35.5 46.5t-49.5 41t-72.5 29t-104 11q15 6 42 12t59.5 13t67.5 16.5t67 21.5q63 24 119 70.5t98.5 107.5t67 132t24.5 145zM630 586
q0 -30 -8 -73t-20.5 -92.5t-28.5 -100.5t-32.5 -96t-32 -80.5t-26.5 -52.5q-36 -58 -78 -81.5t-104 -23.5q-82 0 -119 36t-37 101q0 30 8 73.5t20.5 92.5t28.5 100t32.5 96t31.5 80t26 53q18 29 37.5 49t41.5 32t47.5 17.5t56.5 5.5q78 0 117 -35.5t39 -100.5z" />
    <glyph glyph-name="R" unicode="R" horiz-adv-x="667" 
d="M656 556q0 72 -52 112.5t-151 40.5h-285q-2 0 -2.5 -2t1.5 -2h90q6 0 5 -4l-219 -693q-1 -4 -7 -4h-90q-2 0 -2.5 -2t1.5 -2h315q2 0 2.5 2t-1.5 2h-90q-6 0 -5 4l114 359h104q51 0 71.5 -15t20.5 -45q0 -16 -7 -44t-15 -59.5t-15 -62t-7 -51.5q0 -29 9.5 -49.5t26 -33.5
t38.5 -18.5t48 -5.5q34 0 54 4.5t43 16.5q2 0 1.5 2t-2.5 1q-15 -9 -29.5 -12t-34.5 -3q-22 0 -33.5 15.5t-11.5 41.5q0 16 6.5 41.5t14.5 53.5t14.5 55.5t6.5 48.5q0 50 -36 83.5t-124 36.5q57 4 100.5 20.5t73 42t44.5 58t15 67.5zM559 630q0 -21 -6 -48.5t-15 -55.5
t-19 -51.5t-19 -36.5q-20 -30 -43 -48.5t-65 -18.5h-112l105 330q0 4 7 4h70q53 0 75 -16.5t22 -58.5z" />
    <glyph glyph-name="S" unicode="S" horiz-adv-x="571" 
d="M578 723q1 2 -0.5 2.5t-3.5 -2.5q-4 -8 -15.5 -16t-33.5 -8q-18 0 -34.5 4t-32.5 9.5t-33 9.5t-36 4q-50 0 -91 -18t-70.5 -49t-46 -71.5t-16.5 -85.5q0 -43 19.5 -77t48.5 -62.5t63 -54t63 -51.5t48.5 -55.5t19.5 -65.5q0 -29 -9 -56t-29 -47.5t-53 -33t-81 -12.5
q-53 0 -91.5 22.5t-61.5 57.5t-29 78t7 84q1 2 -1 2t-3 -2l-67 -217q0 -2 1 -2q2 0 3 2q6 12 17.5 16.5t31.5 4.5q16 0 36.5 -8t45 -17t52 -17t59.5 -8q60 0 106.5 20t78 52.5t48 74.5t16.5 87q0 42 -19.5 76.5t-49 64.5t-63.5 57t-63.5 55t-49 57.5t-19.5 64.5
q0 58 37.5 94t112.5 36q30 0 58 -13.5t47.5 -38t26.5 -58t-5 -72.5q0 -2 2 -2t2 2z" />
    <glyph glyph-name="T" unicode="T" horiz-adv-x="655" 
d="M761 706q0 3 -2 3h-616q-3 0 -3 -3l-67 -213q-1 -2 1 -2t3 2q13 43 38 82t60.5 67.5t80 45.5t98.5 17h25q7 0 5 -4l-218 -693q-1 -4 -8 -4h-90q-2 0 -2.5 -2t1.5 -2h316q2 0 2.5 2t-1.5 2h-90q-6 0 -5 4l219 693q0 4 7 4h26q55 0 90 -18t52.5 -48.5t17.5 -70.5t-13 -83
q-1 -2 1 -2t2 2z" />
    <glyph glyph-name="U" unicode="U" horiz-adv-x="762" 
d="M859 709h-197q-2 0 -2.5 -2t1.5 -2h89q6 0 6 -4l-155 -491q-15 -48 -38 -87.5t-55.5 -68t-75.5 -44t-99 -15.5q-63 0 -95.5 30.5t-32.5 79.5q0 29 7 64.5t20 74.5l143 457q2 4 8 4h90q2 0 2.5 2t-1.5 2h-316q-2 0 -2.5 -2t1.5 -2h90q7 0 5 -4l-138 -438q-18 -57 -18 -105
q0 -79 51 -127t156 -48q64 0 113 16t85.5 45.5t62 71.5t42.5 94l155 491q0 4 7 4h90q2 0 2.5 2t-1.5 2z" />
    <glyph glyph-name="V" unicode="V" horiz-adv-x="665" 
d="M859 705q2 0 2 2t-2 2h-202q-2 0 -2 -2t2 -2h94q2 0 3 -1t-1.5 -5.5t-8.5 -12.5t-17 -23l-417 -528v566q0 4 6 4h80q2 0 2 2t-2 2h-300q-2 0 -2 -2t2 -2h90q6 0 6 -4v-715q0 -8 6 0l534 677q11 14 18 22.5t11.5 13t7.5 5.5t6 1h84z" />
    <glyph glyph-name="W" unicode="W" horiz-adv-x="957" 
d="M1136 705q2 0 2 2t-2 2h-202q-2 0 -2 -2t2 -2h92q5 0 2 -6.5t-23 -35.5l-370 -520l-13 373l111 147q22 28 29 35t13 7h84q2 0 2 2t-2 2h-763q-2 0 -2 -2t2 -2h90q6 0 6 -4l25 -715q0 -8 6 0l287 381l13 -381q1 -6 6 0l482 677q19 28 25 35t9 7h91zM751 705q2 0 3 -1
t-1 -5.5t-8 -12.5t-17 -23l-106 -140l-6 178q0 4 6 4h129zM510 374l-181 -239l-19 566q0 4 6 4h176q6 0 6 -4z" />
    <glyph glyph-name="X" unicode="X" horiz-adv-x="663" 
d="M764 709h-202q-2 0 -2.5 -2t1.5 -2h89q8 0 4 -6.5t-31 -35.5l-217 -233l-68 271q0 4 5 4h103q2 0 2.5 2t-1.5 2h-332q-2 0 -2.5 -2t1.5 -2h92q6 0 8 -4l99 -382l-245 -273l-22.5 -22.5t-14 -13t-8 -5.5t-3.5 -1h-86q-2 0 -3 -2t1 -2h202q2 0 2.5 2t-1.5 2h-89
q-8 0 -3.5 6.5t31.5 35.5l240 268l79 -306q0 -4 -5 -4h-103q-2 0 -2.5 -2t1.5 -2h332q2 0 2.5 2t-1.5 2h-92q-7 0 -7 4l-111 417l221 238q27 28 36.5 35t11.5 7h86q2 0 3 2t-1 2z" />
    <glyph glyph-name="Y" unicode="Y" horiz-adv-x="645" 
d="M793 709h-202q-2 0 -2.5 -2t1.5 -2h101q3 0 3.5 -1t-2 -5.5t-8.5 -12.5t-18 -23l-260 -329l-75 367q-2 4 4 4h109q2 0 2.5 2t-1.5 2h-337q-2 0 -2.5 -2t1.5 -2h92q7 0 7 -4l77 -372l-101 -321q-1 -4 -8 -4h-90q-2 0 -2.5 -2t1.5 -2h315q2 0 2.5 2t-1.5 2h-89q-6 0 -6 4
l101 318l266 337q11 14 18.5 22.5t12 13t7.5 5.5t5 1h78q2 0 2.5 2t-1.5 2z" />
    <glyph glyph-name="Z" unicode="Z" horiz-adv-x="659" 
d="M706 709h-477q-4 0 -4 -2l-70 -222q-1 -2 1 -2t3 2q13 43 39.5 83t63 70.5t81.5 48.5t96 18h126q3 0 3.5 -1.5t-1.5 -2.5l-597 -694q-7 -7 -1 -7h523q4 0 4 3l67 211q0 2 -2 2q-1 0 -2 -2q-12 -38 -38 -75.5t-65.5 -67.5t-93 -48.5t-120.5 -18.5h-131q-6 0 -3 3l597 695
q6 7 1 7z" />
    <glyph glyph-name="bracketleft" unicode="[" horiz-adv-x="302" 
d="M468 734q2 0 2 1q0 2 -2 2h-211q-4 0 -5 -3l-307 -974q-1 -4 3 -4h212q2 0 2 2t-2 2h-114q-7 0 -5 3l304 967q2 4 8 4h115z" />
    <glyph glyph-name="backslash" unicode="\" horiz-adv-x="358" 
d="M296 -21l-321 777q-1 2 -3 1t-1 -3l320 -777q1 -2 3 -1t2 3z" />
    <glyph glyph-name="bracketright" unicode="]" horiz-adv-x="302" 
d="M346 733q1 4 -3 4h-212q-2 0 -2 -2t2 -2h114q6 0 5 -3l-304 -967q-2 -4 -8 -4h-115q-2 0 -2 -1q0 -2 2 -2h211q3 0 5 3z" />
    <glyph glyph-name="asciicircum" unicode="^" horiz-adv-x="326" 
d="M337 522q-8 19 -16.5 44t-15.5 51t-12.5 51.5t-7.5 47.5q0 4 -4 0q-17 -18 -37.5 -41t-43.5 -49t-49 -52.5t-55 -51.5q-2 -1 -1 -2.5t3 0.5q36 31 74.5 65t65.5 61q8 -38 20.5 -73t25.5 -57z" />
    <glyph glyph-name="underscore" unicode="_" horiz-adv-x="570" 
d="M510 0q2 0 2 2t-2 2h-500q-2 0 -2 -2t2 -2h500z" />
    <glyph glyph-name="grave" unicode="`" horiz-adv-x="354" 
d="M369 501q-36 9 -58 27t-36 40t-21 45t-13 41.5t-13 30.5t-20 12q-17 0 -28 -11.5t-11 -30.5q0 -18 8.5 -39.5t31 -43t61 -41t98.5 -33.5q2 -1 2.5 1t-1.5 2z" />
    <glyph glyph-name="a" unicode="a" 
d="M475 431l-91 -6l-14 -46q-3 29 -22 42t-48 13q-58 0 -109 -26.5t-89.5 -67.5t-60.5 -91.5t-22 -99.5q0 -30 7 -58t22.5 -50.5t41 -36t61.5 -13.5q37 0 75 35.5t65 101.5q-21 -59 -5.5 -98t61.5 -39q27 0 63.5 24.5t63.5 79.5l-3 2q-26 -45 -50 -63t-47 -18q-29 0 -18 37z
M364 361l-66 -207q-11 -29 -25.5 -56.5t-32 -49t-38 -35t-43.5 -13.5q-35 0 -48.5 21t-13.5 60q0 31 10 78t27 94t41 88t51 62q18 14 34 20.5t40 6.5q35 0 51.5 -18.5t12.5 -50.5z" />
    <glyph glyph-name="b" unicode="b" horiz-adv-x="475" 
d="M441 289q0 69 -41 107t-102 38q-32 0 -68 -24t-56 -73l124 398q0 3 -2 3l-149 -4q-2 0 -2.5 -2t1.5 -2l55 2q7 0 5 -4l-175 -561q-25 -79 4 -127.5t115 -48.5q52 0 104 24.5t93.5 66t67.5 95t26 112.5zM364 339q0 -25 -9.5 -64.5t-23.5 -81t-30 -77.5t-29 -53t-25 -29.5
t-26.5 -21t-32.5 -13t-42 -4.5q-34 0 -50.5 19.5t-4.5 64.5l73 224q47 123 126 123q24 0 38.5 -7t22.5 -18.5t10.5 -27.5t2.5 -34z" />
    <glyph glyph-name="c" unicode="c" horiz-adv-x="407" 
d="M392 347q0 17 -9.5 33t-26 28t-38 19t-44.5 7q-50 0 -96 -23t-81.5 -61t-56.5 -87.5t-21 -103.5q0 -37 12 -68t33 -53t50 -34.5t63 -12.5q51 0 91.5 24.5t75.5 71.5l-3 2q-32 -40 -71 -67t-98 -27q-24 0 -39.5 7.5t-24.5 19.5t-12.5 28.5t-3.5 34.5q0 20 9 60t21.5 83.5
t25.5 81t21 52.5q18 32 43 50.5t67 18.5q20 0 29 -7t9 -24q0 -9 -2.5 -14.5t-6 -11t-6 -13t-2.5 -19.5q0 -16 10.5 -29.5t32.5 -13.5q20 0 34.5 12.5t14.5 35.5z" />
    <glyph glyph-name="d" unicode="d" horiz-adv-x="490" 
d="M570 734q0 3 -2 3l-148 -3q-2 0 -2.5 -2t1.5 -2l55 1q6 0 5 -4l-110 -348q-2 29 -21.5 42.5t-47.5 13.5q-58 0 -109 -26.5t-89.5 -68.5t-60.5 -93t-22 -99q0 -30 7 -58t22.5 -50t41 -35.5t61.5 -13.5q37 0 73.5 33t66.5 102q-21 -59 -5.5 -97t61.5 -38q27 0 63 24.5
t64 79.5l-3 2q-26 -45 -50.5 -63t-47.5 -18q-31 0 -18 38zM364 362l-66 -209q-12 -28 -26.5 -55.5t-32 -49t-38 -35t-43.5 -13.5q-34 0 -47.5 20t-13.5 59q0 32 10 79t27 94.5t41 89t51 62.5q17 14 33 20.5t41 6.5q34 0 51 -18.5t13 -50.5z" />
    <glyph glyph-name="e" unicode="e" horiz-adv-x="411" 
d="M392 353q0 13 -6.5 27.5t-20.5 26.5t-36.5 19.5t-53.5 7.5q-50 0 -96.5 -23t-82 -61t-56.5 -87.5t-21 -103.5q0 -37 12 -68t33 -53t50 -34.5t63 -12.5q50 0 85 19.5t70 61.5l-3 2q-14 -17 -28.5 -31.5t-33 -25t-41.5 -16.5t-54 -6q-24 0 -39 7.5t-24 19.5t-12.5 28.5
t-3.5 34.5q0 21 7.5 57t20.5 84h64q43 0 80.5 8.5t65.5 25t44.5 40t16.5 53.5zM321 380q0 -24 -7.5 -50t-26 -48.5t-49 -37t-76.5 -14.5h-39q12 44 24.5 81t29.5 63.5t40.5 41.5t57.5 15q46 0 46 -51z" />
    <glyph glyph-name="f" unicode="f" horiz-adv-x="284" 
d="M498 665q0 34 -24.5 56t-79.5 22q-36 0 -70.5 -18.5t-65.5 -51.5t-56.5 -79.5t-43.5 -102.5q-5 -14 -9.5 -30.5t-9.5 -35.5h-104q-2 0 -2.5 -1.5t1.5 -1.5h104q-16 -57 -33.5 -126t-34.5 -139t-34.5 -136t-33.5 -117q-19 -60 -32.5 -101t-26 -66.5t-26 -37t-32.5 -11.5
q-29 0 -29 34q0 12 9.5 27t9.5 32q0 14 -9.5 24.5t-32.5 10.5q-20 0 -34.5 -14t-14.5 -40q0 -38 28.5 -58t72.5 -20q39 0 69.5 19t55.5 53.5t46 82t39 104.5q14 41 30 99t33.5 122.5t35 131t33.5 126.5h116q2 0 3 1.5t-1 1.5h-117q6 23 12 43.5t11 39.5q22 69 41.5 113.5
t37.5 71t34 36.5t30 10q18 0 25 -8t7 -25q0 -12 -9 -27.5t-9 -32.5q0 -15 9.5 -25.5t32.5 -10.5q20 0 34 14.5t14 40.5z" />
    <glyph glyph-name="g" unicode="g" horiz-adv-x="473" 
d="M474 430l-90 -5l-15 -45q-2 29 -21 41.5t-48 12.5q-58 0 -109 -26.5t-89.5 -67.5t-60.5 -92t-22 -99q0 -30 7 -58t22.5 -50.5t41 -36t61.5 -13.5q37 0 75 35t65 101l-28 -88q-38 -119 -65 -189t-50 -106t-46 -46t-52 -10q-45 0 -61 14t-16 31q0 13 4.5 21t17.5 11
q19 5 27.5 20.5t8.5 29.5q0 19 -14 34.5t-36 15.5q-29 0 -46.5 -21.5t-17.5 -43.5q0 -17 7.5 -37t23.5 -37.5t41.5 -29.5t60.5 -12q102 0 172 83.5t117 234.5zM364 363l-66 -209q-11 -29 -25.5 -56.5t-32.5 -49t-38.5 -35t-43.5 -13.5q-34 0 -47.5 21t-13.5 60q0 31 10 78
t27 94t41 88.5t51 62.5q17 14 33 20.5t41 6.5q34 0 51 -18t13 -50z" />
    <glyph glyph-name="h" unicode="h" horiz-adv-x="495" 
d="M479 95l-3 2q-26 -45 -50 -63t-47 -18q-17 0 -24 10.5t-7 27.5q0 24 14.5 61t32 78.5t32 82.5t14.5 73q0 44 -22 64.5t-51 20.5q-22 0 -48.5 -11t-54.5 -32t-54.5 -52t-48.5 -70l147 466q1 3 -2 3l-148 -3q-2 0 -2.5 -2t1.5 -2l55 1q6 0 5 -4l-229 -728h89l79 252
q25 42 46.5 69.5t41 43.5t36.5 22.5t32 6.5q18 0 31 -12t13 -31q0 -34 -14 -72t-30.5 -76.5t-30.5 -74.5t-14 -66q0 -31 21 -51t61 -20q13 0 30 6t34.5 18.5t34 32.5t30.5 47z" />
    <glyph glyph-name="i" unicode="i" horiz-adv-x="262" 
d="M270 633q0 23 -15.5 38t-37.5 15q-23 0 -38.5 -15t-15.5 -38t15.5 -38.5t38.5 -15.5q22 0 37.5 15.5t15.5 38.5zM241 95l-3 2q-25 -45 -49.5 -63t-47.5 -18q-16 0 -23 10.5t-7 27.5q0 24 16 61.5t35 80t35 86.5t16 81q0 31 -15.5 51t-56.5 20q-24 0 -53.5 -20t-52.5 -70
l3 -3q19 38 38.5 55t34.5 17q14 0 19 -6.5t5 -22.5q0 -34 -16 -77.5t-35.5 -87.5t-35.5 -85.5t-16 -71.5q0 -31 21 -51t62 -20q13 0 29.5 6t33.5 18.5t33 32.5t30 47z" />
    <glyph glyph-name="j" unicode="j" horiz-adv-x="249" 
d="M270 633q0 23 -15.5 38.5t-37.5 15.5q-23 0 -38.5 -15.5t-15.5 -38.5t15.5 -38.5t38.5 -15.5q22 0 37.5 15.5t15.5 38.5zM194 270q32 88 16 126.5t-64 38.5q-24 0 -53.5 -20t-52.5 -71l3 -2q19 38 38.5 54.5t34.5 16.5q14 0 20.5 -13t-0.5 -34l-145 -461
q-19 -60 -34 -101.5t-30 -67t-30 -37t-34 -11.5q-16 0 -22 9.5t-6 25.5q0 11 9 26t9 32q0 15 -9.5 25.5t-32.5 10.5q-20 0 -34.5 -14.5t-14.5 -40.5q0 -38 28.5 -58t72.5 -20q43 0 76.5 17t60 48t47 74.5t37.5 97.5z" />
    <glyph glyph-name="k" unicode="k" horiz-adv-x="472" 
d="M456 378q0 26 -17 41t-48 15q-24 0 -41.5 -13t-33 -32.5t-31 -42t-33.5 -43t-40.5 -34.5t-53.5 -16l151 482q1 3 -2 3l-148 -3q-2 0 -3 -2t1 -2l56 1q6 0 5 -4l-229 -728h89l78 248q20 -10 30 -33t16 -51.5t11.5 -59t18.5 -56t36.5 -41.5t65.5 -16q57 0 87 28t30 68
q0 18 -13.5 37t-37.5 19q-20 0 -31.5 -12t-11.5 -26q0 -15 9 -23.5t20.5 -14.5t20.5 -12.5t9 -18.5q0 -15 -14 -24.5t-34 -9.5q-31 0 -45 16t-20.5 41t-8.5 56t-8 61t-20 55.5t-44 39.5q24 16 42 40t33.5 45.5t30.5 37t32 15.5q22 0 22 -20q0 -10 -5.5 -14.5t-5.5 -18.5
q0 -11 8 -20.5t28 -9.5q23 0 36 15t13 37z" />
    <glyph glyph-name="l" unicode="l" horiz-adv-x="259" 
d="M320 735q0 3 -2 3l-149 -3q-2 0 -2.5 -2t1.5 -2l55 1q6 0 6 -4l-194 -615q-18 -57 -2 -89.5t63 -32.5q27 0 63.5 24.5t63.5 79.5l-3 2q-26 -45 -50.5 -63t-47.5 -18q-14 0 -19 8.5t0 22.5z" />
    <glyph glyph-name="m" unicode="m" horiz-adv-x="766" 
d="M750 95l-3 2q-26 -45 -50.5 -63t-47.5 -18q-16 0 -23 10.5t-7 27.5q0 24 14.5 61t32 78.5t32 82.5t14.5 73q0 44 -22.5 64.5t-51.5 20.5q-47 0 -96 -42t-94 -123q16 43 14.5 74t-13.5 51.5t-31 30t-38 9.5q-47 0 -96 -42t-94 -123q31 86 16 125.5t-61 39.5
q-24 0 -55 -19.5t-54 -70.5l3 -3q18 38 38 55t34 17q15 0 21.5 -13t-0.5 -35l-116 -365h89l79 252q25 42 45.5 69.5t37.5 43.5t31.5 22.5t26.5 6.5q33 0 45 -25.5t-4 -75.5l-92 -293h89l79 252q25 42 45.5 69.5t37.5 43.5t31.5 22.5t26.5 6.5q19 0 32 -12t13 -31
q0 -34 -14 -72t-30.5 -76.5t-30.5 -74.5t-14 -66q0 -31 21 -51t61 -20q27 0 64 24.5t65 79.5z" />
    <glyph glyph-name="n" unicode="n" horiz-adv-x="522" 
d="M506 95l-3 2q-26 -45 -50 -63t-47 -18q-17 0 -24 10.5t-7 27.5q0 24 14.5 61t32 78.5t32 82.5t14.5 73q0 44 -22 64.5t-51 20.5q-22 0 -48.5 -11t-54.5 -32t-54.5 -52t-48.5 -70q32 87 17 126t-61 39q-24 0 -55.5 -19.5t-54.5 -70.5l4 -3q18 38 38 55t34 17t21 -13t0 -35
l-116 -365h89l79 252q25 42 46.5 69.5t41 43.5t36.5 22.5t32 6.5q18 0 31 -12t13 -31q0 -34 -14 -72t-30.5 -76.5t-30.5 -74.5t-14 -66q0 -31 21 -51t61 -20q13 0 30 6t34.5 18.5t34 32.5t30.5 47z" />
    <glyph glyph-name="o" unicode="o" horiz-adv-x="470" 
d="M431 267q0 37 -12 68t-33 53t-49.5 34t-62.5 12q-50 0 -96.5 -23t-81.5 -61t-56 -87.5t-21 -103.5q0 -37 12 -68t33 -53t49.5 -34.5t62.5 -12.5q50 0 96 23t81.5 61t56.5 88t21 104zM358 340q0 -13 -4 -36t-10.5 -50t-15 -57t-17 -56t-16.5 -47t-14 -31q-18 -32 -43 -50
t-67 -18q-24 0 -39 7.5t-24 19.5t-12.5 28.5t-3.5 34.5q0 20 9 60t21 83.5t25 81t21 52.5q19 32 44 50.5t66 18.5q24 0 39.5 -7.5t24.5 -20t12.5 -29t3.5 -34.5z" />
    <glyph glyph-name="p" unicode="p" horiz-adv-x="508" 
d="M469 278q0 30 -7 58t-22.5 50t-41 35.5t-61.5 13.5q-37 0 -75 -34.5t-65 -100.5q20 71 4.5 103t-57.5 32q-24 0 -55 -20t-54 -71l3 -2q18 38 38 55t34 17q15 0 21.5 -13t-0.5 -35l-213 -673h89l111 354q3 -29 22 -42.5t48 -13.5q58 0 109 26.5t89 68.5t60.5 93t22.5 99z
M391 347q0 -32 -10 -78.5t-27 -94.5t-41 -89.5t-51 -62.5q-17 -13 -33 -20t-41 -7q-34 0 -51 18.5t-13 50.5l66 209q11 28 25.5 55.5t32.5 49.5t38.5 35t43.5 13q34 0 47.5 -20t13.5 -59z" />
    <glyph glyph-name="q" unicode="q" horiz-adv-x="474" 
d="M475 431l-91 -6l-14 -46q-3 28 -22 41.5t-48 13.5q-58 0 -109 -26.5t-89.5 -67.5t-60.5 -91.5t-22 -99.5q0 -30 7 -58t22.5 -50.5t41 -36t61.5 -13.5q37 0 75 35.5t65 101.5l-138 -436h89zM364 361l-66 -207q-11 -29 -25.5 -56.5t-32 -49.5t-38 -35.5t-43.5 -13.5
q-35 0 -48.5 21.5t-13.5 60.5q0 31 10 78t27 94t41 88t51 62q18 14 34 20.5t40 6.5q35 0 51.5 -18.5t12.5 -50.5z" />
    <glyph glyph-name="r" unicode="r" horiz-adv-x="399" 
d="M408 362q0 34 -21 53t-53 19q-36 0 -70 -38t-74 -127q31 86 16 126t-61 40q-24 0 -55.5 -20t-54.5 -71l4 -3q18 38 37.5 55t34.5 17q14 0 21 -13t0 -35l-116 -365h89l79 252q24 48 41.5 77t31 45t23 21.5t17.5 5.5q16 0 22 -6.5t6 -18.5q0 -6 -2 -10.5t-5 -8.5t-5 -9
t-2 -14q0 -15 13 -25.5t36 -10.5q20 0 34 19t14 45z" />
    <glyph glyph-name="s" unicode="s" horiz-adv-x="359" 
d="M340 360q0 32 -28.5 53t-75.5 21q-34 0 -62 -14t-47.5 -34t-30 -44t-10.5 -43q0 -40 20 -65t44.5 -46t44.5 -44.5t20 -59.5q0 -38 -22 -63.5t-70 -25.5q-44 0 -59.5 14.5t-15.5 31.5q0 10 6 14.5t13.5 9.5t13.5 13t6 26q0 13 -11 26t-32 13q-22 0 -35.5 -17t-13.5 -39
q0 -13 7.5 -29.5t23 -31.5t40 -25t57.5 -10q43 0 74 12t51 31t29.5 42t9.5 46q0 42 -21.5 70.5t-47 52.5t-47 47.5t-21.5 55.5q0 37 22.5 60t63.5 23q19 0 26 -9t7 -23q0 -6 -2.5 -11t-5 -9.5t-5 -10t-2.5 -13.5q0 -15 10 -27.5t30 -12.5q19 0 32.5 11.5t13.5 33.5z" />
    <glyph glyph-name="t" unicode="t" horiz-adv-x="264" 
d="M296 425h-74l48 156l-91 -6l-47 -150h-73q-2 0 -2.5 -1.5t1.5 -1.5h73l-97 -309q-19 -60 -2.5 -91t64.5 -31q27 0 63 24.5t64 79.5l-3 2q-26 -45 -50.5 -63t-47.5 -18q-14 0 -19 8.5t0 22.5l117 375h75q2 0 2.5 1.5t-1.5 1.5z" />
    <glyph glyph-name="u" unicode="u" horiz-adv-x="512" 
d="M491 431l-90 -6l-79 -252q-25 -42 -46.5 -69t-41 -43.5t-36.5 -23t-32 -6.5q-19 0 -32.5 13t-13.5 32q0 34 14 72t31.5 75.5t31.5 73.5t14 66q0 28 -15.5 49.5t-54.5 21.5q-23 0 -53 -19.5t-53 -70.5l3 -3q19 38 38.5 55t34.5 17q12 0 17.5 -6t5.5 -23q0 -24 -15 -62.5
t-33.5 -80.5t-33.5 -84t-15 -73q0 -44 22.5 -68.5t58.5 -24.5q45 0 99.5 43t98.5 122q-16 -43 -19.5 -74t3 -51.5t22 -30t38.5 -9.5q13 0 30 6t35 18.5t35 32t31 46.5l-3 3q-26 -45 -50.5 -63.5t-47.5 -18.5q-14 0 -19 9t0 23z" />
    <glyph glyph-name="v" unicode="v" horiz-adv-x="475" 
d="M451 371q0 25 -11.5 44t-37.5 19q-19 0 -29 -15t-10 -36q0 -17 3.5 -29.5t8 -25.5t8 -28.5t3.5 -39.5q0 -43 -20.5 -88t-51 -81.5t-66 -60t-65.5 -23.5q-27 0 -39.5 14.5t-12.5 54.5q0 25 12 58.5t26 70t26 74.5t12 74q0 43 -18.5 62t-52.5 19q-24 0 -55.5 -19.5
t-54.5 -70.5l3 -3q19 38 38.5 55t34.5 17q27 0 27 -31q0 -34 -11.5 -71t-25 -73.5t-25 -70.5t-11.5 -61q0 -115 112 -115q25 0 55.5 16.5t62 45t61 66.5t53 80t37.5 86.5t14 85.5z" />
    <glyph glyph-name="w" unicode="w" horiz-adv-x="695" 
d="M671 371q0 25 -11.5 44t-37.5 19q-19 0 -29 -15t-10 -36q0 -17 3.5 -29.5t8 -25.5t8 -28.5t3.5 -39.5q0 -42 -21 -87t-51.5 -82t-66 -60.5t-64.5 -23.5t-43.5 20.5t2.5 65.5l103 338l-90 -6l-87 -275q-34 -66 -67.5 -92.5t-65.5 -26.5q-19 0 -32 12.5t-13 30.5
q0 34 14 72t30.5 76.5t30.5 74.5t14 66q0 28 -13 49.5t-51 21.5q-24 0 -55 -19.5t-54 -70.5l3 -3q19 38 38.5 55t33.5 17q13 0 18.5 -6t5.5 -23q0 -24 -15 -63.5t-33.5 -83t-33.5 -86.5t-15 -74q0 -44 21.5 -65t50.5 -21q19 0 43.5 9t49.5 26t48 43t40 59q-7 -29 -4 -54
t16 -43.5t36 -29t55 -10.5q25 0 56 16.5t62.5 45t62 66.5t54 80t38 86.5t14.5 85.5z" />
    <glyph glyph-name="x" unicode="x" horiz-adv-x="477" 
d="M478 376q0 24 -13 41t-45 17q-43 0 -80.5 -48.5t-74.5 -126.5q-18 89 -37.5 132t-58.5 43q-26 0 -52 -19t-53 -72l4 -3q18 35 30.5 45.5t27.5 10.5q9 0 16.5 -7.5t15.5 -28t16 -56t18 -91.5q3 -14 5.5 -26.5t4.5 -23.5q-38 -81 -72 -114t-60 -33q-14 0 -20.5 8.5
t-6.5 19.5t5.5 18t5.5 20q0 11 -9.5 21.5t-26.5 10.5q-21 0 -36 -17t-15 -43t19.5 -44.5t54.5 -18.5q86 0 163 166q22 -90 50 -128t68 -38q31 0 64 25.5t52 78.5l-3 2q-20 -39 -34.5 -53.5t-32.5 -14.5q-26 0 -52.5 46t-43.5 146q-2 10 -2.5 15.5t-2.5 14.5q32 72 63 112.5
t50 40.5q14 0 19 -5t5 -16t-5.5 -18t-5.5 -19q0 -13 8.5 -22t26.5 -9q17 0 33.5 16.5t16.5 44.5z" />
    <glyph glyph-name="y" unicode="y" horiz-adv-x="442" 
d="M481 406q0 14 -6.5 21.5t-23.5 7.5q-24 0 -46.5 -23.5t-46 -67t-49.5 -104.5t-57 -136l-31 159q-9 49 -19 82.5t-21.5 53t-25.5 28t-31 8.5q-32 0 -57 -23.5t-53 -74.5l4 -3q17 30 28.5 39.5t25.5 9.5q9 0 18 -5.5t18.5 -23t19.5 -51t20 -89.5l43 -256q-26 -60 -50 -110
t-50.5 -85.5t-58 -55t-70.5 -19.5q-16 0 -22 9.5t-6 24.5q0 12 9.5 27t9.5 32q0 15 -10 25.5t-32 10.5q-20 0 -34.5 -14.5t-14.5 -40.5q0 -38 28 -58t72 -20q42 0 76 22.5t64 66t59.5 107t62.5 146.5q42 101 69.5 163.5t50.5 99t46 53.5t56 27q14 4 24.5 12.5t10.5 24.5z
" />
    <glyph glyph-name="z" unicode="z" horiz-adv-x="414" 
d="M401 432l-3 2l-9 -8q-20 -21 -42 -32t-49 -11q-31 0 -74 13.5t-108 42.5l-68 -177l4 -1l36 96q41 -17 81 -24.5t69 -7.5q20 0 35.5 2.5t26.5 8.5l-331 -342l3 -4q23 27 43 37.5t47 10.5q22 0 44.5 -7.5t45 -16t45 -16t45.5 -7.5q32 0 58 10.5t44 28.5t28 41.5t10 48.5
q0 18 -3.5 34t-12 29t-21 20.5t-30.5 7.5q-22 0 -35.5 -13.5t-13.5 -36.5q0 -14 8.5 -24t24.5 -10q22 0 33.5 8t23.5 8q11 0 16 -6t5 -23q0 -13 -5.5 -27t-16 -26t-26 -19.5t-35.5 -7.5q-16 0 -36.5 11t-44.5 23.5t-51 23.5t-55 11q-12 0 -18 -1.5l-14 -3.5z" />
    <glyph glyph-name="braceleft" unicode="{" horiz-adv-x="302" 
d="M419 734q2 0 2 2t-2 2h-7q-46 0 -90.5 -16t-79 -46.5t-56 -74.5t-21.5 -100q0 -33 1 -57.5t2.5 -46t2.5 -43.5t1 -49q0 -22 -9.5 -34.5t-19.5 -14.5q-8 -2 -12 -2q-8 0 -13 1.5t-12 1.5t-7 -5t7 -5t12 1.5t13 1.5q2 0 10 -2q10 -3 10 -16q0 -21 -26 -54.5t-57.5 -77
t-57.5 -96.5t-26 -112q0 -26 7 -50t23.5 -43.5t43.5 -31t67 -11.5h11q2 0 2 2t-2 2h-11q-21 0 -34 4.5t-20 13t-9.5 20.5t-2.5 28q0 44 19 96.5t42 104t42 96.5t19 75q0 19 -11 34t-28 20q32 8 54.5 31.5t29.5 46.5q9 28 15.5 69t12.5 84t12 83.5t15 67.5q17 55 48.5 77.5
t82.5 22.5h7z" />
    <glyph glyph-name="bar" unicode="|" horiz-adv-x="154" 
d="M79 -23v779q0 2 -2 2t-2 -2v-779q0 -2 2 -2t2 2z" />
    <glyph glyph-name="braceright" unicode="}" horiz-adv-x="302" 
d="M308 601q0 25 -7 49.5t-23.5 44t-43.5 31t-67 11.5h-11q-2 0 -2 -2t2 -2h11q43 0 54.5 -17.5t11.5 -48.5q0 -44 -19 -96.5t-42 -104t-42 -96.5t-19 -75q0 -19 11 -34t28 -20q-32 -8 -54.5 -31.5t-29.5 -46.5q-9 -28 -15.5 -69t-12.5 -84t-12 -83.5t-15 -67.5
q-17 -55 -48.5 -77.5t-82.5 -22.5h-7q-2 0 -2 -2t2 -2h7q46 0 90.5 16t79 46.5t56 74.5t21.5 100q0 33 -1 57.5t-2.5 46t-2.5 43.5t-1 49q0 22 9.5 34.5t19.5 14.5q8 2 12 2q8 0 13 -1.5t12 -1.5t7 5t-7 5t-12 -1.5t-13 -1.5q-2 0 -10 2q-10 3 -10 16q0 21 26 54.5t57.5 77
t57.5 96.5t26 112z" />
    <glyph glyph-name="asciitilde" unicode="~" horiz-adv-x="436" 
d="M420 414q0 2 -2 2t-2 -2q0 -12 -3.5 -25t-11.5 -23.5t-20 -17t-29 -6.5t-37 10t-42.5 22.5t-47 22.5t-49.5 10q-19 0 -40 -8.5t-39 -24t-29.5 -36t-11.5 -44.5q0 -2 2 -2t2 2q0 12 3.5 25t11.5 23.5t20 17.5t29 7t37 -10.5t42.5 -22.5t47 -22.5t49.5 -10.5q19 0 40.5 8.5
t39 24t29 36t11.5 44.5z" />
    <glyph glyph-name="Adieresis" unicode="&#xc4;" horiz-adv-x="657" 
d="M606 0q2 0 2 2t-2 2h-90q-6 0 -6 4v715q0 2 -2 2.5t-4 -2.5l-534 -677q-23 -29 -30.5 -35.5t-12.5 -6.5h-84q-2 0 -2 -2t2 -2h202q2 0 2 2t-2 2h-95q-5 0 -1.5 6.5t26.5 35.5l158 200h259v-238q0 -4 -6 -4h-80q-2 0 -2 -2t2 -2h300zM392 250h-256l256 324v-324zM660 855
q0 16 -9.5 26t-23.5 10q-22 0 -38.5 -18t-16.5 -41q0 -16 9.5 -26t24.5 -10q21 0 37.5 18t16.5 41zM468 855q0 16 -9.5 26t-23.5 10q-21 0 -38 -18t-17 -41q0 -16 10 -26t24 -10q21 0 37.5 18t16.5 41z" />
    <glyph glyph-name="Aring" unicode="&#xc5;" horiz-adv-x="657" 
d="M606 0q2 0 2 2t-2 2h-90q-6 0 -6 4v714q17 0 33.5 8t29 21t20.5 29.5t8 34.5q0 26 -17 41.5t-40 15.5q-17 0 -34 -8t-30 -20.5t-21 -29.5t-8 -35q0 -24 15.5 -39.5t36.5 -17.5l-533 -676q-23 -29 -30.5 -35.5t-12.5 -6.5h-84q-2 0 -2 -2t2 -2h202q2 0 2 2t-2 2h-95
q-5 0 -1.5 6.5t26.5 35.5l158 200h259v-238q0 -4 -6 -4h-80q-2 0 -2 -2t2 -2h300zM597 815q0 -17 -7.5 -33.5t-20.5 -29t-29 -20t-32 -7.5q-21 0 -37 15t-16 39q0 17 7.5 33t20.5 28.5t28.5 20t32.5 7.5q21 0 37 -15t16 -38zM392 250h-256l256 324v-324z" />
    <glyph glyph-name="Ccedilla" unicode="&#xc7;" horiz-adv-x="640" 
d="M699 723q1 2 -1 2t-3 -2q-6 -12 -22 -22t-43 -10q-18 0 -37.5 5.5t-39.5 12t-40 12t-39 5.5q-53 0 -105.5 -18.5t-99.5 -51.5t-87.5 -78.5t-70 -98.5t-46 -111.5t-16.5 -118.5q0 -72 23.5 -124t62 -85t87 -47.5t98.5 -9.5q-11 -10 -25 -28.5t-14 -40.5q0 -17 8 -29.5
t17.5 -23.5t17.5 -20.5t8 -20.5q0 -19 -13.5 -30.5t-40.5 -11.5q-17 0 -27 7.5t-10 19.5q0 4 3 7t6.5 6t6.5 7.5t3 10.5q0 24 -22 24q-12 0 -19 -8.5t-7 -21.5q0 -23 18 -39.5t52 -16.5q29 0 49.5 21.5t20.5 55.5q0 20 -6.5 32t-14.5 22t-14.5 20.5t-6.5 27.5q0 11 6 19
t11 11q75 8 142.5 56.5t125.5 131.5q1 2 -0.5 3.5t-2.5 -0.5q-64 -91 -137.5 -139.5t-154.5 -48.5q-78 0 -117 36t-39 101q0 30 8 73t20.5 92t28.5 100t32.5 96t31.5 80.5t26 52.5q37 58 78.5 81.5t104.5 23.5q37 0 70 -19.5t55.5 -50.5t31.5 -69t-3 -75q-1 -2 1 -2t2 2z
" />
    <glyph glyph-name="Eacute" unicode="&#xc9;" horiz-adv-x="677" 
d="M698 706q0 3 -2 3h-528q-2 0 -2.5 -2t1.5 -2h89q6 0 6 -4l-219 -693q-1 -4 -8 -4h-89q-2 0 -3 -2t1 -2h582q2 0 4 3l67 211q1 2 -1 2t-3 -2q-12 -38 -38 -75.5t-65.5 -67.5t-93.5 -48.5t-121 -18.5h-103q-6 0 -6 4l116 364h40q31 0 52 -11.5t32.5 -30.5t13 -43.5
t-6.5 -50.5q-1 -2 1 -2t3 2l79 253q1 2 -1 2t-3 -2q-16 -52 -61.5 -82.5t-107.5 -30.5h-40l102 325q1 4 8 4h115q48 0 78.5 -17t46 -44t17 -61t-9.5 -69q-1 -2 1 -2t3 2zM657 920q0 14 -9 23.5t-25 9.5q-20 0 -37 -24t-42 -55t-64 -61t-102 -42q-2 -1 -1.5 -2.5t2.5 -1.5
q74 13 127 32.5t86.5 41t49 42t15.5 37.5z" />
    <glyph glyph-name="Ntilde" unicode="&#xd1;" horiz-adv-x="757" 
d="M848 709h-197q-2 0 -2.5 -2t1.5 -2h90q6 0 5 -4l-166 -526l-179 516q-4 11 -8 14.5t-9 3.5h-215q-2 0 -2.5 -2t1.5 -2h89q6 0 6 -4l-219 -693q-1 -4 -8 -4h-89q-2 0 -3 -2t1 -2h197q2 0 2.5 2t-1.5 2h-90q-6 0 -5 4l218 691l254 -712q4 -7 6 0l224 714q1 4 8 4h89
q2 0 3 2t-1 2zM717 919q0 2 -2 2t-2 -2q0 -12 -3.5 -25t-11.5 -23.5t-20 -17t-29 -6.5t-37 10t-42.5 22.5t-47 22.5t-49.5 10q-19 0 -40 -8.5t-39 -24t-29.5 -36t-11.5 -44.5q0 -2 2 -2t2 2q0 12 3.5 25t11.5 23.5t20 17t29 6.5t37 -10t42.5 -22.5t47 -22.5t49.5 -10
q19 0 40.5 8.5t39 24t29 36t11.5 44.5z" />
    <glyph glyph-name="Odieresis" unicode="&#xd6;" horiz-adv-x="743" 
d="M724 460q0 62 -19 111.5t-52.5 84t-79 52.5t-99.5 18t-106 -18.5t-99.5 -51.5t-87.5 -78t-69.5 -98t-46 -111.5t-16.5 -118.5q0 -62 19 -111.5t52.5 -84t79.5 -53t100 -18.5q53 0 105 18.5t99.5 51.5t87.5 78.5t69.5 98.5t46 111.5t16.5 118.5zM630 586q0 -30 -8 -73
t-20.5 -92t-29 -100t-33 -96t-31.5 -80t-26 -53q-36 -58 -78 -81.5t-104 -23.5q-78 0 -117 36t-39 100q0 30 8 73.5t20.5 92.5t28.5 100t32.5 96t31.5 80t26 53q18 29 37.5 49t41.5 32t47.5 17.5t56.5 5.5q78 0 117 -35.5t39 -100.5zM656 855q0 16 -9.5 26t-23.5 10
q-22 0 -38.5 -18t-16.5 -41q0 -16 9.5 -26t24.5 -10q21 0 37.5 18t16.5 41zM464 855q0 16 -9.5 26t-23.5 10q-21 0 -38 -18t-17 -41q0 -16 10 -26t24 -10q21 0 37.5 18t16.5 41z" />
    <glyph glyph-name="Udieresis" unicode="&#xdc;" horiz-adv-x="762" 
d="M859 709h-197q-2 0 -2.5 -2t1.5 -2h89q6 0 6 -4l-155 -491q-15 -48 -38 -87.5t-55.5 -68t-75.5 -44t-99 -15.5q-63 0 -95.5 30.5t-32.5 79.5q0 29 7 64.5t20 74.5l143 457q2 4 8 4h90q2 0 2.5 2t-1.5 2h-316q-2 0 -2.5 -2t1.5 -2h90q7 0 5 -4l-138 -438q-18 -57 -18 -105
q0 -79 51 -127t156 -48q64 0 113 16t85.5 45.5t62 71.5t42.5 94l155 491q0 4 7 4h90q2 0 2.5 2t-1.5 2zM719 855q0 16 -9.5 26t-23.5 10q-22 0 -38.5 -18t-16.5 -41q0 -16 9.5 -26t24.5 -10q21 0 37.5 18t16.5 41zM527 855q0 16 -9.5 26t-23.5 10q-21 0 -38 -18t-17 -41
q0 -16 10 -26t24 -10q21 0 37.5 18t16.5 41z" />
    <glyph glyph-name="aacute" unicode="&#xe1;" 
d="M475 431l-91 -6l-14 -46q-3 29 -22 42t-48 13q-58 0 -109 -26.5t-89.5 -67.5t-60.5 -91.5t-22 -99.5q0 -30 7 -58t22.5 -50.5t41 -36t61.5 -13.5q37 0 75 35.5t65 101.5q-21 -59 -5.5 -98t61.5 -39q27 0 63.5 24.5t63.5 79.5l-3 2q-26 -45 -50 -63t-47 -18q-29 0 -18 37z
M364 361l-66 -207q-11 -29 -25.5 -56.5t-32 -49t-38 -35t-43.5 -13.5q-35 0 -48.5 21t-13.5 60q0 31 10 78t27 94t41 88t51 62q18 14 34 20.5t40 6.5q35 0 51.5 -18.5t12.5 -50.5zM510 665q0 14 -9 23.5t-25 9.5q-20 0 -37 -24t-42 -55t-64 -61t-102 -42q-2 -1 -1.5 -2.5
t2.5 -1.5q74 13 127 32.5t86.5 41t49 42t15.5 37.5z" />
    <glyph glyph-name="agrave" unicode="&#xe0;" 
d="M475 431l-91 -6l-14 -46q-3 29 -22 42t-48 13q-58 0 -109 -26.5t-89.5 -67.5t-60.5 -91.5t-22 -99.5q0 -30 7 -58t22.5 -50.5t41 -36t61.5 -13.5q37 0 75 35.5t65 101.5q-21 -59 -5.5 -98t61.5 -39q27 0 63.5 24.5t63.5 79.5l-3 2q-26 -45 -50 -63t-47 -18q-29 0 -18 37z
M364 361l-66 -207q-11 -29 -25.5 -56.5t-32 -49t-38 -35t-43.5 -13.5q-35 0 -48.5 21t-13.5 60q0 31 10 78t27 94t41 88t51 62q18 14 34 20.5t40 6.5q35 0 51.5 -18.5t12.5 -50.5zM420 501q-36 9 -58 27t-36 40t-21 45t-13 41.5t-13 30.5t-20 12q-17 0 -28 -11.5t-11 -30.5
q0 -18 8.5 -39.5t31 -43t61 -41t98.5 -33.5q2 -1 2.5 1t-1.5 2z" />
    <glyph glyph-name="acircumflex" unicode="&#xe2;" 
d="M475 431l-91 -6l-14 -46q-3 29 -22 42t-48 13q-58 0 -109 -26.5t-89.5 -67.5t-60.5 -91.5t-22 -99.5q0 -30 7 -58t22.5 -50.5t41 -36t61.5 -13.5q37 0 75 35.5t65 101.5q-21 -59 -5.5 -98t61.5 -39q27 0 63.5 24.5t63.5 79.5l-3 2q-26 -45 -50 -63t-47 -18q-29 0 -18 37z
M364 361l-66 -207q-11 -29 -25.5 -56.5t-32 -49t-38 -35t-43.5 -13.5q-35 0 -48.5 21t-13.5 60q0 31 10 78t27 94t41 88t51 62q18 14 34 20.5t40 6.5q35 0 51.5 -18.5t12.5 -50.5zM466 522q-8 19 -16.5 44t-15.5 51t-12.5 51.5t-7.5 47.5q0 4 -4 0q-17 -18 -37.5 -41
t-43.5 -49t-49 -52.5t-55 -51.5q-2 -1 -1 -2.5t3 0.5q36 31 74.5 65t65.5 61q8 -38 20.5 -73t25.5 -57z" />
    <glyph glyph-name="adieresis" unicode="&#xe4;" 
d="M475 431l-91 -6l-14 -46q-3 29 -22 42t-48 13q-58 0 -109 -26.5t-89.5 -67.5t-60.5 -91.5t-22 -99.5q0 -30 7 -58t22.5 -50.5t41 -36t61.5 -13.5q37 0 75 35.5t65 101.5q-21 -59 -5.5 -98t61.5 -39q27 0 63.5 24.5t63.5 79.5l-3 2q-26 -45 -50 -63t-47 -18q-29 0 -18 37z
M364 361l-66 -207q-11 -29 -25.5 -56.5t-32 -49t-38 -35t-43.5 -13.5q-35 0 -48.5 21t-13.5 60q0 31 10 78t27 94t41 88t51 62q18 14 34 20.5t40 6.5q35 0 51.5 -18.5t12.5 -50.5zM500 600q0 16 -9.5 26t-23.5 10q-22 0 -38.5 -18t-16.5 -41q0 -16 9.5 -26t24.5 -10
q21 0 37.5 18t16.5 41zM308 600q0 16 -9.5 26t-23.5 10q-21 0 -38 -18t-17 -41q0 -16 10 -26t24 -10q21 0 37.5 18t16.5 41z" />
    <glyph glyph-name="atilde" unicode="&#xe3;" 
d="M475 431l-91 -6l-14 -46q-3 29 -22 42t-48 13q-58 0 -109 -26.5t-89.5 -67.5t-60.5 -91.5t-22 -99.5q0 -30 7 -58t22.5 -50.5t41 -36t61.5 -13.5q37 0 75 35.5t65 101.5q-21 -59 -5.5 -98t61.5 -39q27 0 63.5 24.5t63.5 79.5l-3 2q-26 -45 -50 -63t-47 -18q-29 0 -18 37z
M364 361l-66 -207q-11 -29 -25.5 -56.5t-32 -49t-38 -35t-43.5 -13.5q-35 0 -48.5 21t-13.5 60q0 31 10 78t27 94t41 88t51 62q18 14 34 20.5t40 6.5q35 0 51.5 -18.5t12.5 -50.5zM540 664q0 2 -2 2t-2 -2q0 -12 -3.5 -25t-11.5 -23.5t-20 -17t-29 -6.5t-37 10t-42.5 22.5
t-47 22.5t-49.5 10q-19 0 -40 -8.5t-39 -24t-29.5 -36t-11.5 -44.5q0 -2 2 -2t2 2q0 12 3.5 25t11.5 23.5t20 17t29 6.5t37 -10t42.5 -22.5t47 -22.5t49.5 -10q19 0 40.5 8.5t39 24t29 36t11.5 44.5z" />
    <glyph glyph-name="aring" unicode="&#xe5;" 
d="M475 431l-91 -6l-14 -46q-3 29 -22 42t-48 13q-58 0 -109 -26.5t-89.5 -67.5t-60.5 -91.5t-22 -99.5q0 -30 7 -58t22.5 -50.5t41 -36t61.5 -13.5q37 0 75 35.5t65 101.5q-21 -59 -5.5 -98t61.5 -39q27 0 63.5 24.5t63.5 79.5l-3 2q-26 -45 -50 -63t-47 -18q-29 0 -18 37z
M364 361l-66 -207q-11 -29 -25.5 -56.5t-32 -49t-38 -35t-43.5 -13.5q-35 0 -48.5 21t-13.5 60q0 31 10 78t27 94t41 88t51 62q18 14 34 20.5t40 6.5q35 0 51.5 -18.5t12.5 -50.5zM433 628q0 26 -17 41.5t-40 15.5q-17 0 -34 -8t-30 -20.5t-21 -29.5t-8 -35q0 -26 17 -41.5
t40 -15.5q17 0 34 8t30 20.5t21 29.5t8 35zM429 628q0 -17 -7.5 -33.5t-20.5 -29t-29 -20t-32 -7.5q-21 0 -37 15t-16 39q0 17 7.5 33t20.5 28.5t28.5 20t32.5 7.5q21 0 37 -15t16 -38z" />
    <glyph glyph-name="ccedilla" unicode="&#xe7;" horiz-adv-x="407" 
d="M392 347q0 17 -9.5 33t-26 28t-38 19t-44.5 7q-50 0 -96 -23t-81.5 -61t-56.5 -87.5t-21 -103.5q0 -38 12.5 -69.5t34.5 -54t52 -34t66 -10.5q-11 -9 -25.5 -28t-14.5 -41q0 -17 8 -29.5t17.5 -23.5t17.5 -20.5t8 -20.5q0 -19 -13.5 -30.5t-40.5 -11.5q-17 0 -27 7.5
t-10 19.5q0 4 3 7t6.5 6t6.5 7.5t3 10.5q0 24 -22 24q-12 0 -19 -8.5t-7 -21.5q0 -23 18 -39.5t52 -16.5q29 0 49.5 21.5t20.5 55.5q0 20 -6.5 32t-14.5 22t-14.5 20.5t-6.5 27.5q0 11 6 19.5t11 11.5q89 7 154 95l-3 2q-32 -40 -71 -67t-98 -27q-24 0 -39.5 7.5t-24.5 19.5
t-12.5 28.5t-3.5 34.5q0 20 9 60t21.5 83.5t25.5 81t21 52.5q18 32 43 50.5t67 18.5q20 0 29 -7t9 -24q0 -9 -2.5 -14.5t-6 -11t-6 -13t-2.5 -19.5q0 -16 10.5 -29.5t32.5 -13.5q20 0 34.5 12.5t14.5 35.5z" />
    <glyph glyph-name="eacute" unicode="&#xe9;" horiz-adv-x="411" 
d="M392 353q0 13 -6.5 27.5t-20.5 26.5t-36.5 19.5t-53.5 7.5q-50 0 -96.5 -23t-82 -61t-56.5 -87.5t-21 -103.5q0 -37 12 -68t33 -53t50 -34.5t63 -12.5q50 0 85 19.5t70 61.5l-3 2q-14 -17 -28.5 -31.5t-33 -25t-41.5 -16.5t-54 -6q-24 0 -39 7.5t-24 19.5t-12.5 28.5
t-3.5 34.5q0 21 7.5 57t20.5 84h64q43 0 80.5 8.5t65.5 25t44.5 40t16.5 53.5zM321 380q0 -24 -7.5 -50t-26 -48.5t-49 -37t-76.5 -14.5h-39q12 44 24.5 81t29.5 63.5t40.5 41.5t57.5 15q46 0 46 -51zM489 665q0 14 -9 23.5t-25 9.5q-20 0 -37 -24t-42 -55t-64 -61t-102 -42
q-2 -1 -1.5 -2.5t2.5 -1.5q74 13 127 32.5t86.5 41t49 42t15.5 37.5z" />
    <glyph glyph-name="egrave" unicode="&#xe8;" horiz-adv-x="411" 
d="M392 353q0 13 -6.5 27.5t-20.5 26.5t-36.5 19.5t-53.5 7.5q-50 0 -96.5 -23t-82 -61t-56.5 -87.5t-21 -103.5q0 -37 12 -68t33 -53t50 -34.5t63 -12.5q50 0 85 19.5t70 61.5l-3 2q-14 -17 -28.5 -31.5t-33 -25t-41.5 -16.5t-54 -6q-24 0 -39 7.5t-24 19.5t-12.5 28.5
t-3.5 34.5q0 21 7.5 57t20.5 84h64q43 0 80.5 8.5t65.5 25t44.5 40t16.5 53.5zM321 380q0 -24 -7.5 -50t-26 -48.5t-49 -37t-76.5 -14.5h-39q12 44 24.5 81t29.5 63.5t40.5 41.5t57.5 15q46 0 46 -51zM343 501q-36 9 -58 27t-36 40t-21 45t-13 41.5t-13 30.5t-20 12
q-17 0 -28 -11.5t-11 -30.5q0 -18 8.5 -39.5t31 -43t61 -41t98.5 -33.5q2 -1 2.5 1t-1.5 2z" />
    <glyph glyph-name="ecircumflex" unicode="&#xea;" horiz-adv-x="411" 
d="M392 353q0 13 -6.5 27.5t-20.5 26.5t-36.5 19.5t-53.5 7.5q-50 0 -96.5 -23t-82 -61t-56.5 -87.5t-21 -103.5q0 -37 12 -68t33 -53t50 -34.5t63 -12.5q50 0 85 19.5t70 61.5l-3 2q-14 -17 -28.5 -31.5t-33 -25t-41.5 -16.5t-54 -6q-24 0 -39 7.5t-24 19.5t-12.5 28.5
t-3.5 34.5q0 21 7.5 57t20.5 84h64q43 0 80.5 8.5t65.5 25t44.5 40t16.5 53.5zM321 380q0 -24 -7.5 -50t-26 -48.5t-49 -37t-76.5 -14.5h-39q12 44 24.5 81t29.5 63.5t40.5 41.5t57.5 15q46 0 46 -51zM418 522q-8 19 -16.5 44t-15.5 51t-12.5 51.5t-7.5 47.5q0 4 -4 0
q-17 -18 -37.5 -41t-43.5 -49t-49 -52.5t-55 -51.5q-2 -1 -1 -2.5t3 0.5q36 31 74.5 65t65.5 61q8 -38 20.5 -73t25.5 -57z" />
    <glyph glyph-name="edieresis" unicode="&#xeb;" horiz-adv-x="411" 
d="M392 353q0 13 -6.5 27.5t-20.5 26.5t-36.5 19.5t-53.5 7.5q-50 0 -96.5 -23t-82 -61t-56.5 -87.5t-21 -103.5q0 -37 12 -68t33 -53t50 -34.5t63 -12.5q50 0 85 19.5t70 61.5l-3 2q-14 -17 -28.5 -31.5t-33 -25t-41.5 -16.5t-54 -6q-24 0 -39 7.5t-24 19.5t-12.5 28.5
t-3.5 34.5q0 21 7.5 57t20.5 84h64q43 0 80.5 8.5t65.5 25t44.5 40t16.5 53.5zM321 380q0 -24 -7.5 -50t-26 -48.5t-49 -37t-76.5 -14.5h-39q12 44 24.5 81t29.5 63.5t40.5 41.5t57.5 15q46 0 46 -51zM437 600q0 16 -9.5 26t-23.5 10q-22 0 -38.5 -18t-16.5 -41
q0 -16 9.5 -26t24.5 -10q21 0 37.5 18t16.5 41zM245 600q0 16 -9.5 26t-23.5 10q-21 0 -38 -18t-17 -41q0 -16 10 -26t24 -10q21 0 37.5 18t16.5 41z" />
    <glyph glyph-name="iacute" unicode="&#xed;" horiz-adv-x="262" 
d="M241 95l-3 2q-25 -45 -49.5 -63t-47.5 -18q-16 0 -23 10.5t-7 27.5q0 24 16 61.5t35 80t35 86.5t16 81q0 31 -15.5 51t-56.5 20q-24 0 -53.5 -20t-52.5 -70l3 -3q19 38 38.5 55t34.5 17q14 0 19 -6.5t5 -22.5q0 -34 -16 -77.5t-35.5 -87.5t-35.5 -85.5t-16 -71.5
q0 -31 21 -51t62 -20q13 0 29.5 6t33.5 18.5t33 32.5t30 47zM399 665q0 14 -9 23.5t-25 9.5q-20 0 -37 -24t-42 -55t-64 -61t-102 -42q-2 -1 -1.5 -2.5t2.5 -1.5q74 13 127 32.5t86.5 41t49 42t15.5 37.5z" />
    <glyph glyph-name="igrave" unicode="&#xec;" horiz-adv-x="262" 
d="M241 95l-3 2q-25 -45 -49.5 -63t-47.5 -18q-16 0 -23 10.5t-7 27.5q0 24 16 61.5t35 80t35 86.5t16 81q0 31 -15.5 51t-56.5 20q-24 0 -53.5 -20t-52.5 -70l3 -3q19 38 38.5 55t34.5 17q14 0 19 -6.5t5 -22.5q0 -34 -16 -77.5t-35.5 -87.5t-35.5 -85.5t-16 -71.5
q0 -31 21 -51t62 -20q13 0 29.5 6t33.5 18.5t33 32.5t30 47zM256 501q-36 9 -58 27t-36 40t-21 45t-13 41.5t-13 30.5t-20 12q-17 0 -28 -11.5t-11 -30.5q0 -18 8.5 -39.5t31 -43t61 -41t98.5 -33.5q2 -1 2.5 1t-1.5 2z" />
    <glyph glyph-name="icircumflex" unicode="&#xee;" horiz-adv-x="262" 
d="M241 95l-3 2q-25 -45 -49.5 -63t-47.5 -18q-16 0 -23 10.5t-7 27.5q0 24 16 61.5t35 80t35 86.5t16 81q0 31 -15.5 51t-56.5 20q-24 0 -53.5 -20t-52.5 -70l3 -3q19 38 38.5 55t34.5 17q14 0 19 -6.5t5 -22.5q0 -34 -16 -77.5t-35.5 -87.5t-35.5 -85.5t-16 -71.5
q0 -31 21 -51t62 -20q13 0 29.5 6t33.5 18.5t33 32.5t30 47zM326 522q-8 19 -16.5 44t-15.5 51t-12.5 51.5t-7.5 47.5q0 4 -4 0q-17 -18 -37.5 -41t-43.5 -49t-49 -52.5t-55 -51.5q-2 -1 -1 -2.5t3 0.5q36 31 74.5 65t65.5 61q8 -38 20.5 -73t25.5 -57z" />
    <glyph glyph-name="idieresis" unicode="&#xef;" horiz-adv-x="262" 
d="M241 95l-3 2q-25 -45 -49.5 -63t-47.5 -18q-16 0 -23 10.5t-7 27.5q0 24 16 61.5t35 80t35 86.5t16 81q0 31 -15.5 51t-56.5 20q-24 0 -53.5 -20t-52.5 -70l3 -3q19 38 38.5 55t34.5 17q14 0 19 -6.5t5 -22.5q0 -34 -16 -77.5t-35.5 -87.5t-35.5 -85.5t-16 -71.5
q0 -31 21 -51t62 -20q13 0 29.5 6t33.5 18.5t33 32.5t30 47zM342 600q0 16 -9.5 26t-23.5 10q-22 0 -38.5 -18t-16.5 -41q0 -16 9.5 -26t24.5 -10q21 0 37.5 18t16.5 41zM150 600q0 16 -9.5 26t-23.5 10q-21 0 -38 -18t-17 -41q0 -16 10 -26t24 -10q21 0 37.5 18t16.5 41z
" />
    <glyph glyph-name="ntilde" unicode="&#xf1;" horiz-adv-x="522" 
d="M506 95l-3 2q-26 -45 -50 -63t-47 -18q-17 0 -24 10.5t-7 27.5q0 24 14.5 61t32 78.5t32 82.5t14.5 73q0 44 -22 64.5t-51 20.5q-22 0 -48.5 -11t-54.5 -32t-54.5 -52t-48.5 -70q32 87 17 126t-61 39q-24 0 -55.5 -19.5t-54.5 -70.5l4 -3q18 38 38 55t34 17t21 -13t0 -35
l-116 -365h89l79 252q25 42 46.5 69.5t41 43.5t36.5 22.5t32 6.5q18 0 31 -12t13 -31q0 -34 -14 -72t-30.5 -76.5t-30.5 -74.5t-14 -66q0 -31 21 -51t61 -20q13 0 30 6t34.5 18.5t34 32.5t30.5 47zM519 664q0 2 -2 2t-2 -2q0 -12 -3.5 -25t-11.5 -23.5t-20 -17t-29 -6.5
t-37 10t-42.5 22.5t-47 22.5t-49.5 10q-19 0 -40 -8.5t-39 -24t-29.5 -36t-11.5 -44.5q0 -2 2 -2t2 2q0 12 3.5 25t11.5 23.5t20 17t29 6.5t37 -10t42.5 -22.5t47 -22.5t49.5 -10q19 0 40.5 8.5t39 24t29 36t11.5 44.5z" />
    <glyph glyph-name="oacute" unicode="&#xf3;" horiz-adv-x="470" 
d="M431 267q0 37 -12 68t-33 53t-49.5 34t-62.5 12q-50 0 -96.5 -23t-81.5 -61t-56 -87.5t-21 -103.5q0 -37 12 -68t33 -53t49.5 -34.5t62.5 -12.5q50 0 96 23t81.5 61t56.5 88t21 104zM358 340q0 -13 -4 -36t-10.5 -50t-15 -57t-17 -56t-16.5 -47t-14 -31q-18 -32 -43 -50
t-67 -18q-24 0 -39 7.5t-24 19.5t-12.5 28.5t-3.5 34.5q0 20 9 60t21 83.5t25 81t21 52.5q19 32 44 50.5t66 18.5q24 0 39.5 -7.5t24.5 -20t12.5 -29t3.5 -34.5zM492 665q0 14 -9 23.5t-25 9.5q-20 0 -37 -24t-42 -55t-64 -61t-102 -42q-2 -1 -1.5 -2.5t2.5 -1.5
q74 13 127 32.5t86.5 41t49 42t15.5 37.5z" />
    <glyph glyph-name="ograve" unicode="&#xf2;" horiz-adv-x="470" 
d="M431 267q0 37 -12 68t-33 53t-49.5 34t-62.5 12q-50 0 -96.5 -23t-81.5 -61t-56 -87.5t-21 -103.5q0 -37 12 -68t33 -53t49.5 -34.5t62.5 -12.5q50 0 96 23t81.5 61t56.5 88t21 104zM358 340q0 -13 -4 -36t-10.5 -50t-15 -57t-17 -56t-16.5 -47t-14 -31q-18 -32 -43 -50
t-67 -18q-24 0 -39 7.5t-24 19.5t-12.5 28.5t-3.5 34.5q0 20 9 60t21 83.5t25 81t21 52.5q19 32 44 50.5t66 18.5q24 0 39.5 -7.5t24.5 -20t12.5 -29t3.5 -34.5zM361 501q-36 9 -58 27t-36 40t-21 45t-13 41.5t-13 30.5t-20 12q-17 0 -28 -11.5t-11 -30.5q0 -18 8.5 -39.5
t31 -43t61 -41t98.5 -33.5q2 -1 2.5 1t-1.5 2z" />
    <glyph glyph-name="ocircumflex" unicode="&#xf4;" horiz-adv-x="470" 
d="M431 267q0 37 -12 68t-33 53t-49.5 34t-62.5 12q-50 0 -96.5 -23t-81.5 -61t-56 -87.5t-21 -103.5q0 -37 12 -68t33 -53t49.5 -34.5t62.5 -12.5q50 0 96 23t81.5 61t56.5 88t21 104zM358 340q0 -13 -4 -36t-10.5 -50t-15 -57t-17 -56t-16.5 -47t-14 -31q-18 -32 -43 -50
t-67 -18q-24 0 -39 7.5t-24 19.5t-12.5 28.5t-3.5 34.5q0 20 9 60t21 83.5t25 81t21 52.5q19 32 44 50.5t66 18.5q24 0 39.5 -7.5t24.5 -20t12.5 -29t3.5 -34.5zM430 522q-8 19 -16.5 44t-15.5 51t-12.5 51.5t-7.5 47.5q0 4 -4 0q-17 -18 -37.5 -41t-43.5 -49t-49 -52.5
t-55 -51.5q-2 -1 -1 -2.5t3 0.5q36 31 74.5 65t65.5 61q8 -38 20.5 -73t25.5 -57z" />
    <glyph glyph-name="odieresis" unicode="&#xf6;" horiz-adv-x="470" 
d="M431 267q0 37 -12 68t-33 53t-49.5 34t-62.5 12q-50 0 -96.5 -23t-81.5 -61t-56 -87.5t-21 -103.5q0 -37 12 -68t33 -53t49.5 -34.5t62.5 -12.5q50 0 96 23t81.5 61t56.5 88t21 104zM358 340q0 -13 -4 -36t-10.5 -50t-15 -57t-17 -56t-16.5 -47t-14 -31q-18 -32 -43 -50
t-67 -18q-24 0 -39 7.5t-24 19.5t-12.5 28.5t-3.5 34.5q0 20 9 60t21 83.5t25 81t21 52.5q19 32 44 50.5t66 18.5q24 0 39.5 -7.5t24.5 -20t12.5 -29t3.5 -34.5zM440 600q0 16 -9.5 26t-23.5 10q-22 0 -38.5 -18t-16.5 -41q0 -16 9.5 -26t24.5 -10q21 0 37.5 18t16.5 41z
M248 600q0 16 -9.5 26t-23.5 10q-21 0 -38 -18t-17 -41q0 -16 10 -26t24 -10q21 0 37.5 18t16.5 41z" />
    <glyph glyph-name="otilde" unicode="&#xf5;" horiz-adv-x="470" 
d="M431 267q0 37 -12 68t-33 53t-49.5 34t-62.5 12q-50 0 -96.5 -23t-81.5 -61t-56 -87.5t-21 -103.5q0 -37 12 -68t33 -53t49.5 -34.5t62.5 -12.5q50 0 96 23t81.5 61t56.5 88t21 104zM358 340q0 -13 -4 -36t-10.5 -50t-15 -57t-17 -56t-16.5 -47t-14 -31q-18 -32 -43 -50
t-67 -18q-24 0 -39 7.5t-24 19.5t-12.5 28.5t-3.5 34.5q0 20 9 60t21 83.5t25 81t21 52.5q19 32 44 50.5t66 18.5q24 0 39.5 -7.5t24.5 -20t12.5 -29t3.5 -34.5zM502 664q0 2 -2 2t-2 -2q0 -12 -3.5 -25t-11.5 -23.5t-20 -17t-29 -6.5t-37 10t-42.5 22.5t-47 22.5t-49.5 10
q-19 0 -40 -8.5t-39 -24t-29.5 -36t-11.5 -44.5q0 -2 2 -2t2 2q0 12 3.5 25t11.5 23.5t20 17t29 6.5t37 -10t42.5 -22.5t47 -22.5t49.5 -10q19 0 40.5 8.5t39 24t29 36t11.5 44.5z" />
    <glyph glyph-name="uacute" unicode="&#xfa;" horiz-adv-x="512" 
d="M491 431l-90 -6l-79 -252q-25 -42 -46.5 -69t-41 -43.5t-36.5 -23t-32 -6.5q-19 0 -32.5 13t-13.5 32q0 34 14 72t31.5 75.5t31.5 73.5t14 66q0 28 -15.5 49.5t-54.5 21.5q-23 0 -53 -19.5t-53 -70.5l3 -3q19 38 38.5 55t34.5 17q12 0 17.5 -6t5.5 -23q0 -24 -15 -62.5
t-33.5 -80.5t-33.5 -84t-15 -73q0 -44 22.5 -68.5t58.5 -24.5q45 0 99.5 43t98.5 122q-16 -43 -19.5 -74t3 -51.5t22 -30t38.5 -9.5q13 0 30 6t35 18.5t35 32t31 46.5l-3 3q-26 -45 -50.5 -63.5t-47.5 -18.5q-14 0 -19 9t0 23zM471 665q0 14 -9 23.5t-25 9.5q-20 0 -37 -24
t-42 -55t-64 -61t-102 -42q-2 -1 -1.5 -2.5t2.5 -1.5q74 13 127 32.5t86.5 41t49 42t15.5 37.5z" />
    <glyph glyph-name="ugrave" unicode="&#xf9;" horiz-adv-x="512" 
d="M491 431l-90 -6l-79 -252q-25 -42 -46.5 -69t-41 -43.5t-36.5 -23t-32 -6.5q-19 0 -32.5 13t-13.5 32q0 34 14 72t31.5 75.5t31.5 73.5t14 66q0 28 -15.5 49.5t-54.5 21.5q-23 0 -53 -19.5t-53 -70.5l3 -3q19 38 38.5 55t34.5 17q12 0 17.5 -6t5.5 -23q0 -24 -15 -62.5
t-33.5 -80.5t-33.5 -84t-15 -73q0 -44 22.5 -68.5t58.5 -24.5q45 0 99.5 43t98.5 122q-16 -43 -19.5 -74t3 -51.5t22 -30t38.5 -9.5q13 0 30 6t35 18.5t35 32t31 46.5l-3 3q-26 -45 -50.5 -63.5t-47.5 -18.5q-14 0 -19 9t0 23zM384 501q-36 9 -58 27t-36 40t-21 45t-13 41.5
t-13 30.5t-20 12q-17 0 -28 -11.5t-11 -30.5q0 -18 8.5 -39.5t31 -43t61 -41t98.5 -33.5q2 -1 2.5 1t-1.5 2z" />
    <glyph glyph-name="ucircumflex" unicode="&#xfb;" horiz-adv-x="512" 
d="M491 431l-90 -6l-79 -252q-25 -42 -46.5 -69t-41 -43.5t-36.5 -23t-32 -6.5q-19 0 -32.5 13t-13.5 32q0 34 14 72t31.5 75.5t31.5 73.5t14 66q0 28 -15.5 49.5t-54.5 21.5q-23 0 -53 -19.5t-53 -70.5l3 -3q19 38 38.5 55t34.5 17q12 0 17.5 -6t5.5 -23q0 -24 -15 -62.5
t-33.5 -80.5t-33.5 -84t-15 -73q0 -44 22.5 -68.5t58.5 -24.5q45 0 99.5 43t98.5 122q-16 -43 -19.5 -74t3 -51.5t22 -30t38.5 -9.5q13 0 30 6t35 18.5t35 32t31 46.5l-3 3q-26 -45 -50.5 -63.5t-47.5 -18.5q-14 0 -19 9t0 23zM448 522q-8 19 -16.5 44t-15.5 51t-12.5 51.5
t-7.5 47.5q0 4 -4 0q-17 -18 -37.5 -41t-43.5 -49t-49 -52.5t-55 -51.5q-2 -1 -1 -2.5t3 0.5q36 31 74.5 65t65.5 61q8 -38 20.5 -73t25.5 -57z" />
    <glyph glyph-name="udieresis" unicode="&#xfc;" horiz-adv-x="512" 
d="M491 431l-90 -6l-79 -252q-25 -42 -46.5 -69t-41 -43.5t-36.5 -23t-32 -6.5q-19 0 -32.5 13t-13.5 32q0 34 14 72t31.5 75.5t31.5 73.5t14 66q0 28 -15.5 49.5t-54.5 21.5q-23 0 -53 -19.5t-53 -70.5l3 -3q19 38 38.5 55t34.5 17q12 0 17.5 -6t5.5 -23q0 -24 -15 -62.5
t-33.5 -80.5t-33.5 -84t-15 -73q0 -44 22.5 -68.5t58.5 -24.5q45 0 99.5 43t98.5 122q-16 -43 -19.5 -74t3 -51.5t22 -30t38.5 -9.5q13 0 30 6t35 18.5t35 32t31 46.5l-3 3q-26 -45 -50.5 -63.5t-47.5 -18.5q-14 0 -19 9t0 23zM473 600q0 16 -9.5 26t-23.5 10
q-22 0 -38.5 -18t-16.5 -41q0 -16 9.5 -26t24.5 -10q21 0 37.5 18t16.5 41zM281 600q0 16 -9.5 26t-23.5 10q-21 0 -38 -18t-17 -41q0 -16 10 -26t24 -10q21 0 37.5 18t16.5 41z" />
    <glyph glyph-name="dagger" unicode="&#x2020;" horiz-adv-x="587" 
d="M576 384q0 14 -6 29.5t-18.5 28t-33 21t-49.5 8.5q-48 0 -77.5 -17.5t-50.5 -52.5q4 12 14 29.5t20 38.5t17.5 44t7.5 47q0 8 -1.5 18.5t-1.5 26.5q0 18 8.5 27.5t19 18t19.5 20t9 34.5q0 17 -11 28t-28 11q-26 0 -45 -19t-19 -45q0 -14 2.5 -21.5t5 -12t5 -8.5t2.5 -11
q0 -8 -5.5 -17t-13.5 -19t-16 -21.5t-13 -24.5q-14 -41 -16.5 -78t-9.5 -62q-5 33 -27 52.5t-64 19.5q-40 0 -69 -10.5t-47.5 -25.5t-27 -32.5t-8.5 -31.5q0 -17 10 -26.5t27 -9.5q30 0 39.5 17t9.5 38q0 43 18 60t47 17q54 0 76 -34t2 -96q-12 -39 -30 -53t-27 -17
q-2 -1 -2 -3q0 -1 2 -1q18 7 16.5 -30t-19 -113.5t-50.5 -188.5t-78 -254q0 -2 2 -2t2 2q45 142 82.5 253t67.5 186t51.5 111t35.5 29q2 -1 3 1t-1 2q-3 1 -7.5 6.5t-7.5 14.5t-2.5 23t6.5 34q20 65 55 94.5t91 29.5q25 0 33.5 -9t8.5 -30q0 -12 -4 -19.5t-8.5 -14t-8 -14.5
t-3.5 -21q0 -16 11 -23t28 -7q23 0 37.5 14.5t14.5 40.5z" />
    <glyph glyph-name="degree" unicode="&#xb0;" horiz-adv-x="283" 
d="M321 656q0 26 -17 41.5t-40 15.5q-17 0 -34 -8t-30 -20.5t-21 -29.5t-8 -35q0 -26 17 -41.5t40 -15.5q17 0 34 8t30 20.5t21 29.5t8 35zM317 656q0 -17 -7.5 -33.5t-20.5 -29t-29 -20t-32 -7.5q-21 0 -37 15t-16 39q0 17 7.5 33t20.5 28.5t28.5 20t32.5 7.5q21 0 37 -15
t16 -38z" />
    <glyph glyph-name="cent" unicode="&#xa2;" horiz-adv-x="407" 
d="M392 347q0 17 -9.5 33t-26 28t-38 19t-45.5 7l18 70q1 2 -2 2q-2 0 -3 -2l-18 -70q-49 -2 -94 -25t-79.5 -61.5t-55 -87.5t-20.5 -101q0 -33 10 -61.5t27 -50t41 -35.5t53 -18l-3 -11.5t-6.5 -25t-6.5 -24.5l-3 -11q0 -2 2 -2t3 2l19 71q5 -1 10.5 -1.5t11.5 -0.5
q51 0 91.5 24.5t75.5 71.5l-3 2q-32 -40 -71 -67t-98 -27q-5 0 -8.5 0.5t-7.5 0.5l116 435q25 0 35 -6t10 -25q0 -9 -2.5 -14.5t-6 -11t-6 -13t-2.5 -19.5q0 -16 10.5 -29.5t32.5 -13.5q20 0 34.5 12.5t14.5 35.5zM267 430l-116 -433q-35 6 -47 31t-12 57q0 20 9 60
t21.5 83.5t25.5 81t21 52.5q17 30 39.5 48t58.5 20z" />
    <glyph glyph-name="sterling" unicode="&#xa3;" horiz-adv-x="601" 
d="M625 643q0 36 -27.5 59.5t-82.5 23.5q-36 0 -75.5 -20.5t-74.5 -56.5t-61.5 -84.5t-36.5 -104.5q-5 -28 -7 -54.5t-2 -50.5h-115q-2 0 -2 -2t2 -2h115q0 -47 -1.5 -84t-7 -67t-16 -54t-28.5 -43q-20 4 -45 6.5t-54 2.5q-26 0 -47 -7.5t-36 -19.5t-23 -25.5t-8 -25.5
q0 -15 6 -24.5t15 -15.5t19 -8.5t18 -2.5q27 0 56 14.5t57 39.5q44 -19 93.5 -36.5t106.5 -17.5q31 0 59.5 13t50.5 33.5t36 46t16 51.5q0 2 -1.5 2.5t-2.5 -1.5q-4 -29 -22 -50.5t-47 -21.5q-45 0 -78.5 4.5t-60.5 11.5t-51.5 14.5t-51.5 13.5q25 21 48.5 50t43 62
t32.5 68.5t18 70.5h112q2 0 2 2t-2 2h-111q14 107 31.5 177.5t38 112.5t44 59.5t48.5 17.5q34 0 34 -35q0 -13 -10 -29.5t-10 -34.5q0 -16 10.5 -26.5t34.5 -10.5q21 0 36 15t15 42zM157 40q-26 -25 -54.5 -39.5t-49.5 -14.5q-8 0 -18 2.5t-19 8t-15 14.5t-6 21q0 41 52 41
q24 0 51.5 -9.5t58.5 -23.5z" />
    <glyph glyph-name="section" unicode="&#xa7;" horiz-adv-x="530" 
d="M576 614q0 25 -10 48.5t-29 41.5t-46.5 29t-62.5 11q-50 0 -92 -17t-72.5 -46.5t-47.5 -69.5t-17 -85q0 -29 6.5 -53t17.5 -46q-75 -17 -120.5 -71t-45.5 -131q0 -42 14 -77t34.5 -65.5t44.5 -59t44.5 -56.5t34.5 -57.5t14 -63.5q0 -85 -41 -122t-129 -37
q-36 0 -66.5 10.5t-53 27.5t-35 40t-12.5 47q0 20 10 29t27 9q10 0 17 -2.5t12 -5t11 -5t15 -2.5q15 0 25.5 11t10.5 34q0 21 -15 34t-35 13q-39 0 -62 -29.5t-23 -83.5q0 -24 13 -47.5t36.5 -42t55.5 -30t71 -11.5q63 0 108 18.5t73.5 50t42 72.5t13.5 86q0 26 -5.5 48
t-14.5 43q43 9 74 29t50.5 48t29 61.5t9.5 71.5q0 42 -14.5 78t-35.5 68.5t-46.5 62.5t-46.5 60t-35.5 61.5t-14.5 66.5q0 34 13.5 59t37 41t54 24t63.5 8t59 -10t43.5 -26t26.5 -37t9 -43q0 -42 -29 -42q-9 0 -15 2t-11 5t-10 5t-13 2q-14 0 -23.5 -10t-9.5 -31
q0 -19 12 -29.5t30 -10.5q34 0 55.5 24t21.5 75zM386 147q0 -27 -4 -49t-15 -39.5t-30 -30.5t-48 -21q-19 40 -48 76t-56 72t-46.5 73.5t-19.5 78.5q0 46 28.5 73.5t78.5 41.5q19 -37 46.5 -69.5t53 -65t43 -67t17.5 -73.5z" />
    <glyph glyph-name="bullet" unicode="&#x2022;" horiz-adv-x="345" 
d="M311 354q0 24 -9 44.5t-24.5 36t-36 24.5t-43.5 9q-24 0 -44.5 -9t-36 -24.5t-24.5 -36t-9 -44.5q0 -23 9 -43.5t24.5 -36t36 -24.5t44.5 -9q23 0 43.5 9t36 24.5t24.5 36t9 43.5z" />
    <glyph glyph-name="paragraph" unicode="&#xb6;" horiz-adv-x="646" 
d="M765 708h-229q-54 0 -108.5 -16.5t-105 -46t-95 -70t-77.5 -89t-52 -103t-19 -111.5q0 -59 20.5 -109t56 -86t82.5 -56.5t101 -20.5h203q2 0 2.5 2t-1.5 2h-90q-6 0 -5 4l219 693q2 4 7 4h90q2 0 2.5 1.5t-1.5 1.5zM662 701l-219 -694q-2 -3 -8 -3h-93q-7 0 -5 3l219 694
q0 3 7 3h94q6 0 5 -3z" />
    <glyph glyph-name="germandbls" unicode="&#xdf;" horiz-adv-x="511" 
d="M512 632q0 55 -36 83t-102 28q-36 0 -71 -18.5t-65.5 -51.5t-56 -79.5t-43.5 -102.5q-9 -26 -21 -71t-26 -100t-29 -115t-29.5 -116.5t-27.5 -105t-23 -79.5q-19 -60 -33 -101t-26.5 -66.5t-26 -37t-32.5 -11.5q-16 0 -22 9t-6 25q0 12 9.5 27t9.5 32q0 14 -10 24.5
t-33 10.5q-20 0 -34 -14t-14 -40q0 -38 28 -58t72 -20q39 0 69.5 19t56 53.5t46 82t39.5 104.5q9 27 22 72.5t27.5 99.5t30 112.5t29.5 112t26.5 98t20.5 70.5q21 69 40.5 113.5t37.5 70.5t34 36.5t30 10.5q22 0 35 -4.5t20 -13.5t9 -22t2 -30q0 -35 -10.5 -75t-31.5 -77.5
t-52.5 -68.5t-72.5 -49q-2 -1 -1.5 -3t2.5 0q22 11 41 11q83 0 83 -83q0 -19 -8.5 -57t-20 -79.5t-24 -77.5t-20.5 -50q-18 -32 -36 -48.5t-48 -16.5q-25 0 -25 28q0 10 8 22t8 26q0 12 -8 21t-27 9q-17 0 -28.5 -12t-11.5 -34q0 -31 24 -47.5t59 -16.5q40 0 80.5 21.5
t73.5 57.5t53.5 83.5t20.5 100.5q0 36 -11.5 65t-30 49.5t-42.5 32t-49 11.5h-16t-18 -2q39 14 77 36t68 50.5t48.5 62.5t18.5 73z" />
    <glyph glyph-name="registered" unicode="&#xae;" horiz-adv-x="844" 
d="M819 355q0 77 -29.5 144.5t-80 118t-118 79.5t-144.5 29t-144.5 -29t-118 -79.5t-80 -118t-29.5 -144.5t29.5 -145t80 -118.5t118 -79.5t144.5 -29t144.5 29t118 79.5t80 118.5t29.5 145zM815 355q0 -77 -29 -144t-79 -116.5t-117 -78.5t-143 -29t-143 29t-117 78.5
t-79 116.5t-29 144q0 76 29 143t79 116.5t117 78.5t143 29t143 -29t117 -78.5t79 -116.5t29 -143zM689 158q1 1 0 2.5t-2 1.5q-7 -7 -16.5 -12.5t-22.5 -5.5q-17 0 -26 15.5t-9 38.5v55q0 25 -8.5 46t-27 36.5t-47 24.5t-68.5 9q29 0 53 7.5t41.5 21t27 32t9.5 39.5
q0 45 -38.5 74.5t-107.5 29.5h-189q-1 0 -1 -2t1 -2h54q4 0 4 -2v-413q0 -3 -4 -3h-54q-1 0 -1 -2q0 -1 1 -1h198q2 0 2 1q0 2 -2 2h-62q-4 0 -4 3v213h52q42 0 68 -17.5t26 -56.5v-39q0 -32 8 -54.5t21.5 -36.5t30.5 -20t36 -6q20 0 34 6t23 15zM519 466q0 -29 -3.5 -47
t-12.5 -29t-24 -15t-37 -4h-52v196q0 2 4 2h37q44 0 66 -23t22 -80z" />
    <glyph glyph-name="copyright" unicode="&#xa9;" horiz-adv-x="844" 
d="M819 355q0 77 -29.5 144.5t-80 118t-118 79.5t-144.5 29t-144.5 -29t-118 -79.5t-80 -118t-29.5 -144.5t29.5 -145t80 -118.5t118 -79.5t144.5 -29t144.5 29t118 79.5t80 118.5t29.5 145zM815 355q0 -77 -29 -144t-79 -116.5t-117 -78.5t-143 -29t-143 29t-117 78.5
t-79 116.5t-29 144q0 76 29 143t79 116.5t117 78.5t143 29t143 -29t117 -78.5t79 -116.5t29 -143zM595 139v146q-1 2 -3 2q-1 0 -1 -2q0 -29 -10 -55.5t-28 -46t-42.5 -31t-52.5 -11.5q-21 0 -41.5 5t-35.5 18q-24 23 -35.5 70t-11.5 126t11.5 126.5t35.5 69.5
q15 14 34 18.5t40 4.5q22 0 44.5 -11.5t40 -30t28.5 -41t11 -44.5q0 -1 1 -1q2 0 3 1v129q-3 3 -4 0q-1 -5 -9 -9.5t-21 -4.5q-21 0 -46 8t-48 8q-44 0 -80.5 -18t-63 -49t-41.5 -71t-15 -85t15.5 -85t42.5 -71t64 -49t81 -18q13 0 27 3t28 6.5t26.5 6.5t23.5 3
q14 0 20.5 -6t7.5 -11q0 -1 1 -1q2 0 3 1z" />
    <glyph glyph-name="trademark" unicode="&#x2122;" horiz-adv-x="387" 
d="M483 565v3h-20q-1 0 -1.5 0.5l-0.5 0.5v136h2h20v4h-48l-1 -0.5t-2 -2.5l-41 -108l-41 108q-2 3 -3 3h-49v-4h20h2v-136l-0.5 -0.5t-1.5 -0.5h-20v-3h48v3h-21h-1v1v130l56 -137v-1q1 0 1 1l53 135v-128l-0.5 -0.5t-1.5 -0.5h-20v-3h71zM272 662v47h-139h-1v-47h4
q0 17 10.5 30t35.5 13h4h2v-136l-0.5 -0.5t-1.5 -0.5h-20v-3h71v3h-20q-1 0 -1.5 0.5l-0.5 0.5v136h2h4q25 0 36 -13t11 -30h4z" />
    <glyph glyph-name="acute" unicode="&#xb4;" horiz-adv-x="354" 
d="M375 665q0 14 -9 23.5t-25 9.5q-20 0 -37 -24t-42 -55t-64 -61t-102 -42q-2 -1 -1.5 -2.5t2.5 -1.5q74 13 127 32.5t86.5 41t49 42t15.5 37.5z" />
    <glyph glyph-name="dieresis" unicode="&#xa8;" horiz-adv-x="439" 
d="M437 600q0 16 -9.5 26t-23.5 10q-22 0 -38.5 -18t-16.5 -41q0 -16 9.5 -26t24.5 -10q21 0 37.5 18t16.5 41zM245 600q0 16 -9.5 26t-23.5 10q-21 0 -38 -18t-17 -41q0 -16 10 -26t24 -10q21 0 37.5 18t16.5 41z" />
    <glyph glyph-name="AE" unicode="&#xc6;" horiz-adv-x="914" 
d="M946 706q0 3 -2 3h-549q-2 0 -3 -2t1 -2h113l-535 -659q-22 -26 -30 -34t-16 -8h-81q-2 0 -2 -2t2 -2h203q2 0 2 2t-2 2h-98q-2 0 -2 1q0 2 2.5 6.5t9 12.5t17.5 22l186 229h213l-84 -267q-1 -4 -8 -4h-90q-2 0 -2.5 -2t1.5 -2h582q1 0 4 3l66 211q1 2 -1 2t-3 -2
q-12 -38 -37.5 -75.5t-65.5 -67.5t-93.5 -48.5t-120.5 -18.5h-104q-6 0 -6 4l116 364h41q31 0 52 -11.5t32.5 -30.5t13 -43.5t-6.5 -49.5q-1 -2 1 -2t3 2l79 252q1 2 -1 2t-3 -2q-16 -52 -61.5 -82.5t-107.5 -30.5h-41l102 325q1 4 8 4h116q48 0 78.5 -17t46 -44t16.5 -61
t-10 -69q0 -2 2 -2t2 2zM511 705l-135 -426h-210z" />
    <glyph glyph-name="Oslash" unicode="&#xd8;" horiz-adv-x="743" 
d="M724 460q0 62 -18.5 110t-50.5 83q5 6 16.5 18.5t23 26t20.5 23.5l9 10q1 1 -1 2.5t-3 -0.5l-68 -77q-34 34 -79 52t-99 18t-106 -18.5t-99.5 -51.5t-87.5 -78t-69.5 -98t-46 -111.5t-16.5 -118.5q0 -62 18.5 -110.5t50.5 -82.5l-69 -78q-1 -2 1 -3.5t3 0.5l8.5 9.5
t20 22.5l23 26t17.5 19q33 -34 78.5 -52t99.5 -18q53 0 105 18.5t99.5 51.5t87.5 78.5t69.5 98.5t46 111.5t16.5 118.5zM624 625l-476 -535q-4 13 -4 33q0 30 8 73.5t20.5 92.5t28.5 100t32.5 96t31.5 80t26 53q18 29 37.5 49t41.5 32t47.5 17.5t56.5 5.5q66 0 102.5 -26
t47.5 -71zM630 586q0 -30 -8 -73t-20.5 -92t-29 -100t-33 -96t-31.5 -80t-26 -53q-36 -58 -78 -81.5t-104 -23.5q-67 0 -103.5 26t-47.5 71l477 536q2 -8 3 -16.5t1 -17.5z" />
    <glyph glyph-name="yen" unicode="&#xa5;" horiz-adv-x="617" 
d="M765 709h-202q-2 0 -2.5 -2t1.5 -2h101q3 0 3.5 -1t-2 -5.5t-8.5 -12.5t-18 -23l-260 -329l-75 367q-2 4 4 4h109q2 0 2.5 2t-1.5 2h-310q-2 0 -2.5 -2t1.5 -2h92q7 0 7 -4l67 -319h-168q-2 0 -2 -2q0 -1 2 -1h169l9 -50l-25 -79h-195q-2 0 -2 -2t2 -2h194l-75 -238
q-1 -4 -8 -4h-90q-2 0 -2.5 -2t1.5 -2h288q2 0 2.5 2t-1.5 2h-89q-6 0 -6 4l76 238h194q2 0 2 2t-2 2h-194l25 76l42 53h169q2 0 2 1q0 2 -2 2h-166l221 281q11 14 18.5 22.5t12 13t7.5 5.5t5 1h78q2 0 2.5 2t-1.5 2z" />
    <glyph glyph-name="ordfeminine" unicode="&#xaa;" horiz-adv-x="355" 
d="M400 475l-3 3q-17 -33 -34 -46.5t-32 -13.5q-19 0 -12 22l81 283l-68 -4l-10 -34q-2 21 -14.5 31t-31.5 10q-39 0 -74.5 -19.5t-63 -50t-43.5 -67.5t-16 -73q0 -22 6 -43t18 -37.5t30 -26.5t42 -10q25 0 50.5 24.5t43.5 73.5q-14 -43 -4 -70.5t41 -27.5q24 0 49.5 18
t44.5 58zM318 669l-44 -150q-8 -21 -18 -41.5t-22 -36t-26 -25.5t-29 -10q-23 0 -31.5 13.5t-8.5 44.5q0 23 7 58t19.5 71t29 67t34.5 46q12 10 24 13t24 3q23 0 33 -15t8 -38z" />
    <glyph glyph-name="ordmasculine" unicode="&#xba;" horiz-adv-x="350" 
d="M371 602q0 27 -9 50t-24.5 39.5t-36 25.5t-43.5 9q-34 0 -66 -17t-57 -45.5t-40 -65t-15 -76.5q0 -27 9 -49.5t24.5 -39t35.5 -25.5t43 -9q34 0 66.5 17t57.5 45t40 65t15 76zM311 658q0 -15 -6 -45t-14 -63t-16.5 -61.5t-14.5 -39.5q-24 -46 -72 -46q-29 0 -39 16.5
t-10 47.5q0 15 6 45t14.5 63t17 61.5t14.5 39.5q24 46 72 46q29 0 38.5 -16.5t9.5 -47.5z" />
    <glyph glyph-name="ae" unicode="&#xe6;" horiz-adv-x="660" 
d="M641 353q0 13 -6.5 27.5t-21 26.5t-37 20t-53.5 8q-51 0 -94 -23t-78 -61q-17 38 -54.5 61t-83.5 23q-23 0 -43 -7t-35 -18t-23.5 -26t-8.5 -31q0 -22 13.5 -33t31.5 -11q21 0 30.5 12.5t9.5 27.5q0 8 -2.5 13.5t-5 10l-5 9t-2.5 10.5q0 14 12.5 26.5t31.5 12.5
q41 0 58.5 -23.5t17.5 -60.5q0 -20 -5.5 -52t-19.5 -80h-52q-57 0 -97.5 -11.5t-67 -29.5t-38.5 -41t-12 -46q0 -42 33 -69t96 -27q48 0 87 21.5t69 59.5q18 -38 56 -59.5t83 -21.5q50 0 85.5 19.5t70.5 61.5l-4 2q-14 -17 -28.5 -31t-33 -25t-41.5 -17t-54 -6
q-24 0 -39 7.5t-24 19.5t-12.5 28.5t-3.5 34.5q0 21 6.5 53.5t20.5 80.5h63q43 0 81 9.5t66.5 27.5t45.5 42.5t17 54.5zM570 380q0 -24 -8 -51.5t-27 -51t-50 -39t-76 -15.5h-40q12 45 25 83t30 66t40.5 43.5t58.5 15.5q47 0 47 -51zM267 211q-12 -44 -23 -83.5t-25.5 -69
t-35 -46.5t-53.5 -17q-27 0 -41.5 15t-14.5 50q0 24 8.5 50.5t28 49t51 37t77.5 14.5h28z" />
    <glyph glyph-name="oslash" unicode="&#xf8;" horiz-adv-x="470" 
d="M431 267q0 38 -13 70t-36 54l7 7.5t15 17t14.5 17l6.5 7.5q1 1 -1 2.5t-3 -0.5l-42 -48q-42 40 -105 40q-50 0 -96.5 -23t-81.5 -61t-56 -87.5t-21 -103.5q0 -38 12.5 -70t35.5 -54l-42 -48q-1 -2 1 -3.5t3 0.5l41 48q20 -20 47 -30.5t59 -10.5q50 0 96 23t81.5 61
t56.5 88t21 104zM355 366l-261 -299q-2 10 -2 18q0 20 9 60t21 83.5t25 81t21 52.5q19 32 44 50.5t66 18.5q38 0 55 -18t22 -47zM358 340q0 -13 -4 -36t-10.5 -50t-15 -57t-17 -56t-16.5 -47t-14 -31q-18 -32 -43 -50t-67 -18q-38 0 -54.5 18.5t-21.5 46.5l261 300
q1 -5 1.5 -10t0.5 -10z" />
    <glyph glyph-name="questiondown" unicode="&#xbf;" horiz-adv-x="461" 
d="M437 343q0 19 -11.5 30.5t-28.5 11.5q-26 0 -45 -21t-19 -48q0 -19 11 -31t28 -12q26 0 45.5 21.5t19.5 48.5zM345 208q1 2 -1 2t-2 -2l-58 -183q-8 15 -27 22.5t-36 7.5q-51 0 -96 -19t-79 -51.5t-54 -76.5t-20 -93q0 -34 12 -64.5t33.5 -53.5t50.5 -36.5t63 -13.5
q35 0 66.5 12.5t55.5 32t38 41.5t14 42q0 23 -14 39t-37 16q-25 0 -37 -11.5t-12 -28.5q0 -10 2 -15.5t5 -10.5t5 -11t2 -18q0 -42 -20.5 -63.5t-71.5 -21.5q-38 0 -58 21.5t-20 66.5q0 18 8 54.5t19.5 76.5t23.5 74.5t20 48.5q18 32 40 45.5t60 13.5q9 0 19 -2t19 -6
t16 -10.5t9 -16.5q0 -2 1.5 -1t1.5 2q1 1 0.5 2t0.5 3z" />
    <glyph glyph-name="exclamdown" unicode="&#xa1;" horiz-adv-x="281" 
d="M257 343q0 19 -11.5 30.5t-28.5 11.5q-26 0 -45 -21t-19 -48q0 -19 11 -31t28 -12q26 0 45.5 21.5t19.5 48.5zM167 208q0 2 -2 2t-2 -2q-14 -44 -35.5 -96t-45.5 -104.5t-48.5 -103.5t-44 -94t-31.5 -75t-12 -47q0 -17 10.5 -29.5t31.5 -12.5q22 0 43.5 15.5t35.5 58.5
q9 30 18 85t20.5 122.5t26 141t35.5 139.5z" />
    <glyph glyph-name="radical" unicode="&#x221a;" horiz-adv-x="733" 
d="M793 739q1 2 -1 3t-4 -1q-3 -4 -8.5 -7.5t-15.5 -6t-26 -4t-41 -1.5q-16 11 -33 16t-41 5q-32 0 -60 -13.5t-57 -39.5q-17 27 -43.5 40t-69.5 13q-36 0 -70.5 -18.5t-65.5 -51.5t-56.5 -79.5t-43.5 -102.5q-5 -14 -9.5 -30.5t-9.5 -35.5h-103q-2 0 -3 -1.5t1 -1.5h104
q-16 -57 -33 -126t-34.5 -139t-35 -136t-33.5 -117q-19 -60 -32.5 -101t-26 -66.5t-26 -37t-32.5 -11.5q-16 0 -22 9t-6 25q0 12 9 27t9 32q0 14 -9.5 24.5t-32.5 10.5q-20 0 -34 -14t-14 -40q0 -38 26 -58t70 -20q26 0 46.5 9t41.5 26q17 -18 40.5 -26.5t58.5 -8.5
q36 0 71 19t66 53t56.5 80.5t43.5 102.5q13 41 32 99.5t39.5 123.5t40.5 132.5t36 127.5h152l-98 -309q-18 -57 -1.5 -89.5t63.5 -32.5q27 0 63.5 24.5t63.5 79.5l-3 2q-26 -45 -50.5 -63t-47.5 -18q-14 0 -19 8.5t0 22.5zM696 717l-91 -292h-152q6 23 11.5 43.5t11.5 39.5
q22 70 41.5 115t37.5 70.5t36 35.5t38 10t35 -4.5t32 -17.5zM502 687q-37 -34 -68 -83.5t-51 -112.5q-5 -14 -10 -30.5t-10 -35.5h-136q6 23 12 43.5t11 39.5q22 69 41 113.5t37 71t37 36.5t40 10q32 0 57.5 -12.5t39.5 -39.5zM362 422q-16 -57 -35 -125t-38.5 -136.5
t-38.5 -133t-35 -115.5q-22 -69 -41.5 -112.5t-39 -68.5t-39 -34t-40.5 -9q-25 0 -47 8.5t-37 25.5q39 33 69.5 90.5t53.5 130.5q14 41 30 99t33.5 122.5t35 131t33.5 126.5h136z" />
    <glyph glyph-name="florin" unicode="&#x192;" horiz-adv-x="354" 
d="M537 675q0 34 -25.5 52t-60.5 18q-58 0 -108 -30.5t-89.5 -83t-67 -123.5t-39.5 -153l-3 -20q0 -3 -7 -3h-90q-2 0 -2 -2t2 -2h90q6 0 6 -4q-20 -133 -40 -249t-45 -201.5t-58.5 -134.5t-81.5 -49q-17 0 -22 6t-5 22q0 9 2.5 14.5t5.5 10t5.5 10t2.5 13.5q0 15 -9.5 25.5
t-32.5 10.5q-20 0 -34.5 -14.5t-14.5 -33.5q0 -36 23.5 -53t64.5 -17q51 0 93.5 29t77 78t61.5 112.5t47.5 132.5t35 138.5t23.5 129.5l3 20q2 4 7 4h90q2 0 2 2t-2 2h-89q-8 0 -6 3q18 134 40.5 214t47.5 122t51 55t50 13q16 0 21 -6t5 -22q0 -10 -2.5 -16t-5.5 -10.5
t-5.5 -9t-2.5 -13.5q0 -16 9.5 -25.5t32.5 -9.5q20 0 34.5 14t14.5 34z" />
    <glyph glyph-name="approxequal" unicode="&#x2248;" horiz-adv-x="735" 
d="M746 632q0 54 -32.5 82.5t-89.5 28.5q-31 0 -60 -13.5t-58 -39.5q-17 27 -43.5 40t-69.5 13q-36 0 -71 -18.5t-65.5 -51.5t-56 -79.5t-43.5 -102.5q-5 -14 -10 -30.5t-10 -35.5h-103q-2 0 -3 -1.5t1 -1.5h104q-16 -57 -33 -126t-34.5 -139t-34.5 -136t-33 -117
q-19 -60 -33 -101t-26.5 -66.5t-26 -37t-32.5 -11.5q-16 0 -22 9t-6 25q0 12 9.5 27t9.5 32q0 14 -9.5 24.5t-32.5 10.5q-20 0 -34.5 -14t-14.5 -40q0 -38 26.5 -58t70.5 -20q26 0 46.5 9t41.5 26q32 -35 99 -35q36 0 71 19t66 53t56.5 80.5t43.5 102.5q13 41 32 99.5
t39 123.5t40 132.5t36 127.5h149q-3 -18 -12.5 -46.5t-22.5 -63t-27 -71.5t-26 -71.5t-19.5 -62.5t-7.5 -45q0 -31 19.5 -51t59.5 -20q13 0 30 6t35 18.5t34.5 32.5t30.5 47l-3 2q-26 -45 -50 -63t-47 -18q-17 0 -24 10.5t-7 27.5q0 12 7.5 37t19.5 58.5t27.5 72.5t31 77.5
t29 75t23.5 64.5q0 7 -5 2t-9.5 -8t-14 -5t-27.5 -2.5t-49 -0.5h-144q6 23 12 43.5t12 39.5q22 69 41 113.5t37.5 71t36.5 36.5t38 10q32 0 43.5 -12t11.5 -38q0 -11 -5 -19.5t-11 -16t-11 -16.5t-5 -22q0 -40 44 -40q20 0 35 15.5t15 41.5zM502 687q-37 -34 -68 -83.5
t-51 -112.5q-5 -14 -10 -30.5t-10 -35.5h-136q6 23 12 43.5t11 39.5q22 69 41 113.5t37 71t37 36.5t40 10q31 0 57 -12.5t40 -39.5zM362 422q-16 -57 -35 -125t-38.5 -136.5t-39 -133t-35.5 -115.5q-22 -69 -41.5 -112.5t-38.5 -68.5t-38.5 -34t-40.5 -9q-25 0 -46.5 8.5
t-37.5 25.5q39 33 69 90.5t54 130.5q13 41 29.5 99t34 122.5t35 131t33.5 126.5h136z" />
    <glyph glyph-name="guillemotleft" unicode="&#xab;" horiz-adv-x="427" 
d="M411 374q1 3 -3 3q-3 0 -4 -3q-9 -29 -36 -54.5t-58 -46t-59.5 -34t-40.5 -18.5q-4 -2 -2 -4q9 -5 28 -21t36.5 -38.5t27.5 -50.5t1 -58q-1 -3 2 -3q4 0 5 3q15 48 6 93t-28 70q18 11 37 29t36 39.5t30.5 45.5t21.5 48zM251 374q1 3 -3 3q-3 0 -4 -3q-9 -29 -36 -54.5
t-58 -46t-59.5 -34t-40.5 -18.5q-4 -2 -2 -4q9 -5 28 -21t36.5 -38.5t27.5 -50.5t1 -58q-1 -3 2 -3q4 0 5 3q15 48 6 93t-28 70q18 11 37 29t36 39.5t30.5 45.5t21.5 48z" />
    <glyph glyph-name="guillemotright" unicode="&#xbb;" horiz-adv-x="427" 
d="M378 207q-9 5 -28 21t-36.5 38.5t-27.5 50.5t-1 58q1 3 -3 3q-3 0 -4 -3q-15 -48 -6 -93t29 -70q-18 -11 -37 -29t-36.5 -39.5t-31.5 -45.5t-21 -48q-1 -3 2 -3q4 0 5 3q9 29 36 54.5t58 46t59.5 34t40.5 18.5q4 2 2 4zM218 207q-9 5 -28 21t-36.5 38.5t-27.5 50.5t-1 58
q1 3 -3 3q-3 0 -4 -3q-15 -48 -6 -93t29 -70q-18 -11 -37 -29t-36.5 -39.5t-31.5 -45.5t-21 -48q-1 -3 2 -3q4 0 5 3q9 29 36 54.5t58 46t59.5 34t40.5 18.5q4 2 2 4z" />
    <glyph glyph-name="ellipsis" unicode="&#x2026;" horiz-adv-x="618" 
d="M545 56q0 19 -11.5 31t-28.5 12q-25 0 -44.5 -21.5t-19.5 -48.5q0 -19 11.5 -30.5t28.5 -11.5q25 0 44.5 21t19.5 48zM334 56q0 19 -11.5 31t-28.5 12q-25 0 -44.5 -21.5t-19.5 -48.5q0 -19 11.5 -30.5t28.5 -11.5q25 0 44.5 21t19.5 48zM123 56q0 19 -11.5 31t-28.5 12
q-25 0 -44.5 -21.5t-19.5 -48.5q0 -19 11.5 -30.5t28.5 -11.5q25 0 44.5 21t19.5 48z" />
    <glyph glyph-name="Agrave" unicode="&#xc0;" horiz-adv-x="657" 
d="M606 0q2 0 2 2t-2 2h-90q-6 0 -6 4v715q0 2 -2 2.5t-4 -2.5l-534 -677q-23 -29 -30.5 -35.5t-12.5 -6.5h-84q-2 0 -2 -2t2 -2h202q2 0 2 2t-2 2h-95q-5 0 -1.5 6.5t26.5 35.5l158 200h259v-238q0 -4 -6 -4h-80q-2 0 -2 -2t2 -2h300zM392 250h-256l256 324v-324zM546 756
q-36 9 -58 27t-36 40t-21 45t-13 41.5t-13 30.5t-20 12q-17 0 -28 -11.5t-11 -30.5q0 -18 8.5 -39.5t31 -43t61 -41t98.5 -33.5q2 -1 2.5 1t-1.5 2z" />
    <glyph glyph-name="Atilde" unicode="&#xc3;" horiz-adv-x="657" 
d="M606 0q2 0 2 2t-2 2h-90q-6 0 -6 4v715q0 2 -2 2.5t-4 -2.5l-534 -677q-23 -29 -30.5 -35.5t-12.5 -6.5h-84q-2 0 -2 -2t2 -2h202q2 0 2 2t-2 2h-95q-5 0 -1.5 6.5t26.5 35.5l158 200h259v-238q0 -4 -6 -4h-80q-2 0 -2 -2t2 -2h300zM392 250h-256l256 324v-324zM723 919
q0 2 -2 2t-2 -2q0 -12 -3.5 -25t-11.5 -23.5t-20 -17t-29 -6.5t-37 10t-42.5 22.5t-47 22.5t-49.5 10q-19 0 -40 -8.5t-39 -24t-29.5 -36t-11.5 -44.5q0 -2 2 -2t2 2q0 12 3.5 25t11.5 23.5t20 17t29 6.5t37 -10t42.5 -22.5t47 -22.5t49.5 -10q19 0 40.5 8.5t39 24t29 36
t11.5 44.5z" />
    <glyph glyph-name="Otilde" unicode="&#xd5;" horiz-adv-x="743" 
d="M724 460q0 62 -19 111.5t-52.5 84t-79 52.5t-99.5 18t-106 -18.5t-99.5 -51.5t-87.5 -78t-69.5 -98t-46 -111.5t-16.5 -118.5q0 -62 19 -111.5t52.5 -84t79.5 -53t100 -18.5q53 0 105 18.5t99.5 51.5t87.5 78.5t69.5 98.5t46 111.5t16.5 118.5zM630 586q0 -30 -8 -73
t-20.5 -92t-29 -100t-33 -96t-31.5 -80t-26 -53q-36 -58 -78 -81.5t-104 -23.5q-78 0 -117 36t-39 100q0 30 8 73.5t20.5 92.5t28.5 100t32.5 96t31.5 80t26 53q18 29 37.5 49t41.5 32t47.5 17.5t56.5 5.5q78 0 117 -35.5t39 -100.5zM699 919q0 2 -2 2t-2 -2q0 -12 -3.5 -25
t-11.5 -23.5t-20 -17t-29 -6.5t-37 10t-42.5 22.5t-47 22.5t-49.5 10q-19 0 -40 -8.5t-39 -24t-29.5 -36t-11.5 -44.5q0 -2 2 -2t2 2q0 12 3.5 25t11.5 23.5t20 17t29 6.5t37 -10t42.5 -22.5t47 -22.5t49.5 -10q19 0 40.5 8.5t39 24t29 36t11.5 44.5z" />
    <glyph glyph-name="OE" unicode="&#x152;" horiz-adv-x="1017" 
d="M1049 706q3 3 -2 3h-541q-54 0 -108.5 -16.5t-105 -46t-95 -70t-77.5 -89t-52 -103.5t-19 -112q0 -59 20.5 -109t56 -86t83 -56.5t101.5 -20.5h568q3 0 3 3l66 211q1 2 -1 2t-2 -2q-12 -38 -38 -75.5t-65.5 -67.5t-93 -48.5t-120.5 -18.5h-105q-6 0 -5 4l115 364h41
q31 0 52 -11.5t32.5 -30.5t13 -43.5t-6.5 -49.5q0 -2 2 -2t2 2l80 252q0 2 -2 2q-1 0 -2 -2q-17 -52 -62 -82.5t-107 -30.5h-42l103 325q0 4 7 4h116q48 0 78.5 -17t46 -44t17 -61t-9.5 -69q-1 -2 1 -2t3 2zM613 701l-219 -693q0 -4 -7 -4h-78q-48 0 -79 12.5t-49.5 33
t-26 47.5t-7.5 56q0 28 6 66t16 80t23 85t27 81t27 68t24 47q42 65 101.5 95t134.5 30h102q6 0 5 -4z" />
    <glyph glyph-name="oe" unicode="&#x153;" horiz-adv-x="710" 
d="M692 353q0 13 -6.5 27.5t-20.5 26.5t-36.5 20t-53.5 8q-49 0 -92.5 -21.5t-78.5 -58.5q-18 37 -51.5 58.5t-78.5 21.5q-50 0 -96.5 -23t-81.5 -61.5t-56 -88t-21 -103.5q0 -37 12 -68t33 -53t49.5 -34.5t62.5 -12.5q48 0 92 21.5t78 57.5q19 -37 52.5 -58t78.5 -21
q50 0 85 19.5t70 61.5l-3 2q-14 -17 -28.5 -31t-33 -25t-41.5 -17t-54 -6q-24 0 -39.5 7.5t-24 19.5t-12 28.5t-3.5 34.5q0 21 7.5 57t20.5 84h64q43 0 80.5 8.5t65.5 25t44.5 40t16.5 53.5zM621 380q0 -24 -7.5 -50t-26 -48.5t-49 -37t-76.5 -14.5h-39q12 44 24.5 81
t29.5 63.5t40.5 41.5t57.5 15q46 0 46 -51zM358 340q0 -13 -4 -36t-10.5 -50t-15 -57t-17 -56t-16.5 -47t-14 -31q-18 -32 -43 -50t-67 -18q-24 0 -39 7.5t-24 19.5t-12.5 28.5t-3.5 34.5q0 20 9 60t21 83.5t25 81t21 52.5q19 32 44 50.5t66 18.5q24 0 39.5 -7.5t24.5 -20
t12.5 -29t3.5 -34.5z" />
    <glyph glyph-name="endash" unicode="&#x2013;" horiz-adv-x="570" 
d="M535 234q2 0 2 2t-2 2h-500q-2 0 -2 -2t2 -2h500z" />
    <glyph glyph-name="emdash" unicode="&#x2014;" horiz-adv-x="1070" 
d="M1035 234q2 0 2 2t-2 2h-1000q-2 0 -2 -2t2 -2h1000z" />
    <glyph glyph-name="quotedblleft" unicode="&#x201c;" horiz-adv-x="331" 
d="M438 722q1 0 1.5 2t-1.5 1q-39 -8 -74.5 -28.5t-62 -46.5t-42 -55t-15.5 -54q0 -17 10.5 -33.5t33.5 -16.5q26 0 40 16t14 41q0 11 -4 20t-8.5 17.5t-8 17t-3.5 18.5q0 15 7.5 28t19 24.5t25.5 20t27 14.5q18 10 41 14zM288 722q1 0 1.5 2t-1.5 1q-39 -8 -74.5 -28.5
t-62 -46.5t-42 -55t-15.5 -54q0 -17 10.5 -33.5t33.5 -16.5q26 0 40 16t14 41q0 11 -4 20t-8.5 17.5t-8 17t-3.5 18.5q0 15 7.5 28t19 24.5t25.5 20t27 14.5q18 10 41 14z" />
    <glyph glyph-name="quotedblright" unicode="&#x201d;" horiz-adv-x="331" 
d="M407 676q0 17 -10.5 33.5t-33.5 16.5q-26 0 -39.5 -16t-13.5 -41q0 -11 3.5 -20t8 -17.5t8.5 -17t4 -18.5q0 -15 -7.5 -28.5t-19 -24.5t-25.5 -19.5t-27 -14.5q-17 -9 -41 -14q-2 0 -2.5 -2t1.5 -1q39 8 74.5 28.5t62 46.5t42 55t15.5 54zM257 676q0 17 -10.5 33.5
t-33.5 16.5q-26 0 -39.5 -16t-13.5 -41q0 -11 3.5 -20t8 -17.5t8.5 -17t4 -18.5q0 -15 -7.5 -28.5t-19 -24.5t-25.5 -19.5t-27 -14.5q-17 -9 -41 -14q-2 0 -2.5 -2t1.5 -1q39 8 74.5 28.5t62 46.5t42 55t15.5 54z" />
    <glyph glyph-name="quoteleft" unicode="&#x2018;" horiz-adv-x="181" 
d="M288 722q1 0 1.5 2t-1.5 1q-39 -8 -74.5 -28.5t-62 -46.5t-42 -55t-15.5 -54q0 -17 10.5 -33.5t33.5 -16.5q26 0 40 16t14 41q0 11 -4 20t-8.5 17.5t-8 17t-3.5 18.5q0 15 7.5 28t19 24.5t25.5 20t27 14.5q18 10 41 14z" />
    <glyph glyph-name="quoteright" unicode="&#x2019;" horiz-adv-x="181" 
d="M257 676q0 17 -10.5 33.5t-33.5 16.5q-26 0 -39.5 -16t-13.5 -41q0 -11 3.5 -20t8 -17.5t8.5 -17t4 -18.5q0 -15 -7.5 -28.5t-19 -24.5t-25.5 -19.5t-27 -14.5q-17 -9 -41 -14q-2 0 -2.5 -2t1.5 -1q39 8 74.5 28.5t62 46.5t42 55t15.5 54z" />
    <glyph glyph-name="ydieresis" unicode="&#xff;" horiz-adv-x="442" 
d="M481 406q0 14 -6.5 21.5t-23.5 7.5q-24 0 -46.5 -23.5t-46 -67t-49.5 -104.5t-57 -136l-31 159q-9 49 -19 82.5t-21.5 53t-25.5 28t-31 8.5q-32 0 -57 -23.5t-53 -74.5l4 -3q17 30 28.5 39.5t25.5 9.5q9 0 18 -5.5t18.5 -23t19.5 -51t20 -89.5l43 -256q-26 -60 -50 -110
t-50.5 -85.5t-58 -55t-70.5 -19.5q-16 0 -22 9.5t-6 24.5q0 12 9.5 27t9.5 32q0 15 -10 25.5t-32 10.5q-20 0 -34.5 -14.5t-14.5 -40.5q0 -38 28 -58t72 -20q42 0 76 22.5t64 66t59.5 107t62.5 146.5q42 101 69.5 163.5t50.5 99t46 53.5t56 27q14 4 24.5 12.5t10.5 24.5z
M437 600q0 16 -9.5 26t-23.5 10q-22 0 -38.5 -18t-16.5 -41q0 -16 9.5 -26t24.5 -10q21 0 37.5 18t16.5 41zM245 600q0 16 -9.5 26t-23.5 10q-21 0 -38 -18t-17 -41q0 -16 10 -26t24 -10q21 0 37.5 18t16.5 41z" />
    <glyph glyph-name="Ydieresis" unicode="&#x178;" horiz-adv-x="645" 
d="M793 709h-202q-2 0 -2.5 -2t1.5 -2h101q3 0 3.5 -1t-2 -5.5t-8.5 -12.5t-18 -23l-260 -329l-75 367q-2 4 4 4h109q2 0 2.5 2t-1.5 2h-337q-2 0 -2.5 -2t1.5 -2h92q7 0 7 -4l77 -372l-101 -321q-1 -4 -8 -4h-90q-2 0 -2.5 -2t1.5 -2h315q2 0 2.5 2t-1.5 2h-89q-6 0 -6 4
l101 318l266 337q11 14 18.5 22.5t12 13t7.5 5.5t5 1h78q2 0 2.5 2t-1.5 2zM674 855q0 16 -9.5 26t-23.5 10q-22 0 -38.5 -18t-16.5 -41q0 -16 9.5 -26t24.5 -10q21 0 37.5 18t16.5 41zM482 855q0 16 -9.5 26t-23.5 10q-21 0 -38 -18t-17 -41q0 -16 10 -26t24 -10
q21 0 37.5 18t16.5 41z" />
    <glyph glyph-name="guilsinglleft" unicode="&#x2039;" horiz-adv-x="267" 
d="M251 374q1 3 -3 3q-3 0 -4 -3q-9 -29 -36 -54.5t-58 -46t-59.5 -34t-40.5 -18.5q-4 -2 -2 -4q9 -5 28 -21t36.5 -38.5t27.5 -50.5t1 -58q-1 -3 2 -3q4 0 5 3q15 48 6 93t-28 70q18 11 37 29t36 39.5t30.5 45.5t21.5 48z" />
    <glyph glyph-name="guilsinglright" unicode="&#x203a;" horiz-adv-x="267" 
d="M218 207q-9 5 -28 21t-36.5 38.5t-27.5 50.5t-1 58q1 3 -3 3q-3 0 -4 -3q-15 -48 -6 -93t29 -70q-18 -11 -37 -29t-36.5 -39.5t-31.5 -45.5t-21 -48q-1 -3 2 -3q4 0 5 3q9 29 36 54.5t58 46t59.5 34t40.5 18.5q4 2 2 4z" />
    <glyph glyph-name="fi" unicode="&#xfb01;" horiz-adv-x="510" 
d="M521 632q0 54 -34 82.5t-94 28.5q-36 0 -71 -18.5t-65.5 -51.5t-56 -79.5t-43.5 -102.5q-5 -14 -10 -30.5t-10 -35.5h-103q-2 0 -2.5 -1.5t1.5 -1.5h103q-16 -57 -33 -126t-34 -139t-34.5 -136t-33.5 -117q-19 -60 -32.5 -101t-26.5 -66.5t-26.5 -37t-31.5 -11.5
q-29 0 -29 34q0 12 9.5 27t9.5 32q0 14 -9.5 24.5t-32.5 10.5q-20 0 -34.5 -14t-14.5 -40q0 -38 28.5 -58t72.5 -20q38 0 69 19t56 53.5t46 82t39 104.5q13 41 29.5 99t33.5 122.5t34.5 131t33.5 126.5h149q-3 -18 -12.5 -46.5t-22.5 -63t-27 -71.5t-26 -71.5t-19.5 -62.5
t-7.5 -45q0 -31 19.5 -51t59.5 -20q13 0 30.5 6t35 18.5t34.5 32.5t31 47l-3 2q-26 -45 -50 -63t-47 -18q-17 0 -24 10.5t-7 27.5q0 12 7.5 37t19.5 58.5t27.5 72.5t30.5 77.5t29 75t23 64.5q1 2 -0.5 3t-3.5 -1q-5 -5 -9.5 -8t-14.5 -5t-28 -2.5t-49 -0.5h-144
q6 23 12 43.5t12 39.5q22 69 41 113.5t37 71t36 36.5t36 10q31 0 44.5 -12t13.5 -38q0 -11 -5 -19.5t-11 -16t-11 -16.5t-5 -22q0 -40 44 -40q20 0 35.5 15.5t15.5 41.5z" />
    <glyph glyph-name="fl" unicode="&#xfb02;" horiz-adv-x="507" 
d="M567 739q1 2 -1 3t-4 -1q-3 -4 -8.5 -7.5t-15.5 -6t-26 -4t-41 -1.5q-16 11 -32.5 16t-41.5 5q-36 0 -71.5 -18.5t-67 -51.5t-57.5 -79.5t-44 -102.5q-5 -14 -10 -30.5t-10 -35.5h-103q-2 0 -2.5 -1.5t1.5 -1.5h103q-16 -57 -33 -126t-34.5 -139t-34.5 -136t-33 -117
q-19 -60 -33 -101t-26.5 -66.5t-26 -37t-32.5 -11.5q-16 0 -22 9t-6 25q0 12 9.5 27t9.5 32q0 14 -9.5 24.5t-32.5 10.5q-20 0 -34.5 -14t-14.5 -40q0 -38 28 -58t72 -20q39 0 69.5 19t56 53.5t46.5 82t39 104.5q14 41 30 99t33.5 122.5t35 131t33.5 126.5h152l-97 -309
q-19 -57 -2.5 -89.5t63.5 -32.5q27 0 63 24.5t64 79.5l-3 2q-26 -45 -50.5 -63t-47.5 -18q-14 0 -19 8.5t0 22.5zM470 717l-91 -292h-152q6 23 12 43.5t11 39.5q22 69 42 113.5t38.5 71t36.5 36.5t36 10q20 0 35 -4.5t32 -17.5z" />
    <glyph glyph-name="daggerdbl" unicode="&#x2021;" horiz-adv-x="587" 
d="M592 426q0 14 -6.5 29.5t-20.5 28t-35.5 21t-50.5 8.5q-43 0 -70.5 -18t-44.5 -44q4 12 10 24t12 24.5t10.5 27.5t4.5 33q0 8 -2 18.5t-2 26.5q0 19 9 28.5t19.5 18t19.5 19.5t9 34q0 17 -11.5 28t-28.5 11q-25 0 -44.5 -19t-19.5 -45q0 -14 2.5 -21.5t5 -12t5 -8.5
t2.5 -11q0 -8 -5.5 -17t-13 -19t-15.5 -21t-13 -24q-8 -20 -10 -42t-2 -48q-2 26 -23.5 44.5t-66.5 18.5q-40 0 -69 -10.5t-47.5 -26t-27 -33t-8.5 -31.5q0 -17 10 -26.5t27 -9.5q30 0 39.5 17.5t9.5 38.5q0 43 17.5 60t47.5 17q25 0 44 -6.5t30.5 -21t13.5 -37t-7 -53.5
q-6 -21 -14 -34t-15.5 -21t-15 -11.5t-11.5 -5.5q-2 0 -2 -2t2 -1q18 7 26 -1t8.5 -25t-4 -39.5t-10.5 -43.5q-7 -21 -16.5 -42t-21 -36.5t-24.5 -22.5t-26 1q-1 1 -2 -1t0 -2q4 -2 9 -6t8 -12.5t3 -22.5q0 -13 -6 -33q-17 -56 -52 -87t-87 -31q-46 0 -46 40q0 12 3.5 19
t8 13.5t8.5 14.5t4 21q0 17 -11.5 24t-27.5 7q-23 0 -38 -15t-15 -41q0 -14 6.5 -29.5t20.5 -28t35.5 -21t50.5 -8.5q42 0 70 18t45 44q-4 -12 -10 -24t-12 -24.5t-10.5 -27.5t-4.5 -33q0 -8 2 -19t2 -26q0 -19 -9 -28.5t-19.5 -18t-19.5 -20t-9 -33.5q0 -18 11.5 -28.5
t28.5 -10.5q25 0 44.5 19t19.5 45q0 14 -2.5 21.5t-5 12t-5 8.5t-2.5 11q0 8 5.5 17t13 19t15.5 21t13 24q8 20 10 42t2 48q2 -26 23.5 -44.5t66.5 -18.5q40 0 69 10.5t47.5 26t27 33t8.5 31.5q0 16 -10 25.5t-27 9.5q-30 0 -39.5 -17t-9.5 -38q0 -43 -18 -60t-47 -17
q-25 0 -44 6.5t-30.5 21t-13.5 36.5t7 54q12 40 29 54t27 17q2 1 2 3t-2 1q-18 -8 -26 0.5t-8.5 25.5t4 39t10.5 43q7 21 16.5 42t20.5 36.5t24 22.5t26 0q2 -1 3 0.5t0 2.5q-4 2 -9 6t-8 12.5t-3 21.5q0 14 6 34q17 56 52 87t87 31q46 0 46 -40q0 -12 -4 -19t-8.5 -13.5
t-8 -15t-3.5 -21.5q0 -16 11 -23t28 -7q23 0 38 14.5t15 41.5z" />
    <glyph glyph-name="periodcentered" unicode="&#xb7;" horiz-adv-x="181" 
d="M159 367q0 19 -11 31t-28 12q-26 0 -45 -21.5t-19 -48.5q0 -19 11.5 -30.5t28.5 -11.5q25 0 44 21t19 48z" />
    <glyph glyph-name="quotesinglbase" unicode="&#x201a;" horiz-adv-x="196" 
d="M120 49q0 17 -10.5 33.5t-33.5 16.5q-25 0 -39 -16.5t-14 -40.5q0 -11 3.5 -20.5t8 -17.5t8.5 -16.5t4 -18.5q0 -15 -7.5 -28.5t-19 -24.5t-25.5 -20t-27 -15q-8 -4 -19 -7.5t-22 -5.5q-2 0 -2.5 -2t1.5 -2q39 8 74.5 28.5t62 47t42 55.5t15.5 54z" />
    <glyph glyph-name="quotedblbase" unicode="&#x201e;" horiz-adv-x="346" 
d="M270 49q0 17 -10.5 33.5t-33.5 16.5q-25 0 -39 -16.5t-14 -40.5q0 -11 3.5 -20.5t8 -17.5t8.5 -16.5t4 -18.5q0 -15 -7.5 -28.5t-19 -24.5t-25.5 -20t-27 -15q-8 -4 -19 -7.5t-22 -5.5q-2 0 -2.5 -2t1.5 -2q39 8 74.5 28.5t62 47t42 55.5t15.5 54zM120 49
q0 17 -10.5 33.5t-33.5 16.5q-25 0 -39 -16.5t-14 -40.5q0 -11 3.5 -20.5t8 -17.5t8.5 -16.5t4 -18.5q0 -15 -7.5 -28.5t-19 -24.5t-25.5 -20t-27 -15q-8 -4 -19 -7.5t-22 -5.5q-2 0 -2.5 -2t1.5 -2q39 8 74.5 28.5t62 47t42 55.5t15.5 54z" />
    <glyph glyph-name="perthousand" unicode="&#x2030;" horiz-adv-x="1107" 
d="M1092 220q0 60 -34 93t-86 33q-50 0 -92.5 -21.5t-74 -54.5t-49 -73.5t-17.5 -79.5q0 -60 34 -93t87 -33q50 0 92.5 21.5t73.5 54.5t48.5 73.5t17.5 79.5zM407 587q0 60 -34 93t-86 33q-50 0 -92.5 -21.5t-73.5 -54.5t-48.5 -73.5t-17.5 -79.5q0 -60 34 -93t86 -33
q50 0 92.5 21.5t73.5 54.5t48.5 73.5t17.5 79.5zM610 725q1 2 -1 3.5t-3 -0.5l-453 -749q-1 -2 1 -3.5t3 0.5zM708 220q0 60 -34 93t-86 33q-50 0 -92.5 -21.5t-74 -54.5t-49 -73.5t-17.5 -79.5q0 -60 34 -93t87 -33q50 0 92.5 21.5t73.5 54.5t48.5 73.5t17.5 79.5z
M1027 274q0 -23 -6.5 -60t-19.5 -76.5t-32 -74t-43 -50.5q-16 -11 -32 -14.5t-34 -3.5q-31 0 -43 16t-12 52q0 22 6.5 59.5t19.5 77t31.5 73.5t42.5 51q16 11 32 14.5t35 3.5q31 0 43 -16t12 -52zM342 641q0 -23 -6.5 -60t-19.5 -76.5t-32 -74t-43 -50.5q-15 -11 -31 -14.5
t-35 -3.5q-31 0 -43 16t-12 52q0 22 6.5 59.5t19.5 77t32 73.5t43 51q15 11 31.5 14.5t34.5 3.5q31 0 43 -16t12 -52zM643 274q0 -23 -6.5 -60t-19.5 -76.5t-32 -74t-43 -50.5q-16 -11 -32 -14.5t-34 -3.5q-31 0 -43 16t-12 52q0 22 6.5 59.5t19.5 77t31.5 73.5t42.5 51
q16 11 32 14.5t35 3.5q31 0 43 -16t12 -52z" />
    <glyph glyph-name="Acircumflex" unicode="&#xc2;" horiz-adv-x="657" 
d="M606 0q2 0 2 2t-2 2h-90q-6 0 -6 4v715q0 2 -2 2.5t-4 -2.5l-534 -677q-23 -29 -30.5 -35.5t-12.5 -6.5h-84q-2 0 -2 -2t2 -2h202q2 0 2 2t-2 2h-95q-5 0 -1.5 6.5t26.5 35.5l158 200h259v-238q0 -4 -6 -4h-80q-2 0 -2 -2t2 -2h300zM392 250h-256l256 324v-324zM643 777
q-8 19 -16.5 44t-15.5 51t-12.5 51.5t-7.5 47.5q0 4 -4 0q-17 -18 -37.5 -41t-43.5 -49t-49 -52.5t-55 -51.5q-2 -1 -1 -2.5t3 0.5q36 31 74.5 65t65.5 61q8 -38 20.5 -73t25.5 -57z" />
    <glyph glyph-name="Ecircumflex" unicode="&#xca;" horiz-adv-x="666" 
d="M698 706q0 3 -2 3h-528q-2 0 -2.5 -2t1.5 -2h89q6 0 6 -4l-219 -693q-1 -4 -8 -4h-89q-2 0 -3 -2t1 -2h582q2 0 4 3l67 211q1 2 -1 2t-3 -2q-12 -38 -38 -75.5t-65.5 -67.5t-93.5 -48.5t-121 -18.5h-103q-6 0 -6 4l116 364h40q31 0 52 -11.5t32.5 -30.5t13 -43.5
t-6.5 -50.5q-1 -2 1 -2t3 2l79 253q1 2 -1 2t-3 -2q-16 -52 -61.5 -82.5t-107.5 -30.5h-40l102 325q1 4 8 4h115q48 0 78.5 -17t46 -44t17 -61t-9.5 -69q-1 -2 1 -2t3 2zM616 777q-8 19 -16.5 44t-15.5 51t-12.5 51.5t-7.5 47.5q0 4 -4 0q-17 -18 -37.5 -41t-43.5 -49
t-49 -52.5t-55 -51.5q-2 -1 -1 -2.5t3 0.5q36 31 74.5 65t65.5 61q8 -38 20.5 -73t25.5 -57z" />
    <glyph glyph-name="Aacute" unicode="&#xc1;" horiz-adv-x="657" 
d="M606 0q2 0 2 2t-2 2h-90q-6 0 -6 4v715q0 2 -2 2.5t-4 -2.5l-534 -677q-23 -29 -30.5 -35.5t-12.5 -6.5h-84q-2 0 -2 -2t2 -2h202q2 0 2 2t-2 2h-95q-5 0 -1.5 6.5t26.5 35.5l158 200h259v-238q0 -4 -6 -4h-80q-2 0 -2 -2t2 -2h300zM392 250h-256l256 324v-324zM741 920
q0 14 -9 23.5t-25 9.5q-20 0 -37 -24t-42 -55t-64 -61t-102 -42q-2 -1 -1.5 -2.5t2.5 -1.5q74 13 127 32.5t86.5 41t49 42t15.5 37.5z" />
    <glyph glyph-name="Edieresis" unicode="&#xcb;" horiz-adv-x="666" 
d="M698 706q0 3 -2 3h-528q-2 0 -2.5 -2t1.5 -2h89q6 0 6 -4l-219 -693q-1 -4 -8 -4h-89q-2 0 -3 -2t1 -2h582q2 0 4 3l67 211q1 2 -1 2t-3 -2q-12 -38 -38 -75.5t-65.5 -67.5t-93.5 -48.5t-121 -18.5h-103q-6 0 -6 4l116 364h40q31 0 52 -11.5t32.5 -30.5t13 -43.5
t-6.5 -50.5q-1 -2 1 -2t3 2l79 253q1 2 -1 2t-3 -2q-16 -52 -61.5 -82.5t-107.5 -30.5h-40l102 325q1 4 8 4h115q48 0 78.5 -17t46 -44t17 -61t-9.5 -69q-1 -2 1 -2t3 2zM640 855q0 16 -9.5 26t-23.5 10q-22 0 -38.5 -18t-16.5 -41q0 -16 9.5 -26t24.5 -10q21 0 37.5 18
t16.5 41zM448 855q0 16 -9.5 26t-23.5 10q-21 0 -38 -18t-17 -41q0 -16 10 -26t24 -10q21 0 37.5 18t16.5 41z" />
    <glyph glyph-name="Egrave" unicode="&#xc8;" horiz-adv-x="666" 
d="M698 706q0 3 -2 3h-528q-2 0 -2.5 -2t1.5 -2h89q6 0 6 -4l-219 -693q-1 -4 -8 -4h-89q-2 0 -3 -2t1 -2h582q2 0 4 3l67 211q1 2 -1 2t-3 -2q-12 -38 -38 -75.5t-65.5 -67.5t-93.5 -48.5t-121 -18.5h-103q-6 0 -6 4l116 364h40q31 0 52 -11.5t32.5 -30.5t13 -43.5
t-6.5 -50.5q-1 -2 1 -2t3 2l79 253q1 2 -1 2t-3 -2q-16 -52 -61.5 -82.5t-107.5 -30.5h-40l102 325q1 4 8 4h115q48 0 78.5 -17t46 -44t17 -61t-9.5 -69q-1 -2 1 -2t3 2zM570 756q-36 9 -58 27t-36 40t-21 45t-13 41.5t-13 30.5t-20 12q-17 0 -28 -11.5t-11 -30.5
q0 -18 8.5 -39.5t31 -43t61 -41t98.5 -33.5q2 -1 2.5 1t-1.5 2z" />
    <glyph glyph-name="Iacute" unicode="&#xcd;" horiz-adv-x="399" 
d="M484 709h-316q-2 0 -2.5 -2t1.5 -2h89q6 0 6 -4l-219 -693q-1 -4 -8 -4h-89q-2 0 -3 -2t1 -2h316q2 0 3 2t-1 2h-90q-6 0 -5 4l218 693q1 4 8 4h90q2 0 2.5 2t-1.5 2zM544 920q0 14 -9 23.5t-25 9.5q-20 0 -37 -24t-42 -55t-64 -61t-102 -42q-2 -1 -1.5 -2.5t2.5 -1.5
q74 13 127 32.5t86.5 41t49 42t15.5 37.5z" />
    <glyph glyph-name="Icircumflex" unicode="&#xce;" horiz-adv-x="399" 
d="M484 709h-316q-2 0 -2.5 -2t1.5 -2h89q6 0 6 -4l-219 -693q-1 -4 -8 -4h-89q-2 0 -3 -2t1 -2h316q2 0 3 2t-1 2h-90q-6 0 -5 4l218 693q1 4 8 4h90q2 0 2.5 2t-1.5 2zM491 777q-8 19 -16.5 44t-15.5 51t-12.5 51.5t-7.5 47.5q0 4 -4 0q-17 -18 -37.5 -41t-43.5 -49
t-49 -52.5t-55 -51.5q-2 -1 -1 -2.5t3 0.5q36 31 74.5 65t65.5 61q8 -38 20.5 -73t25.5 -57z" />
    <glyph glyph-name="Idieresis" unicode="&#xcf;" horiz-adv-x="399" 
d="M484 709h-316q-2 0 -2.5 -2t1.5 -2h89q6 0 6 -4l-219 -693q-1 -4 -8 -4h-89q-2 0 -3 -2t1 -2h316q2 0 3 2t-1 2h-90q-6 0 -5 4l218 693q1 4 8 4h90q2 0 2.5 2t-1.5 2zM508 855q0 16 -9.5 26t-23.5 10q-22 0 -38.5 -18t-16.5 -41q0 -16 9.5 -26t24.5 -10q21 0 37.5 18
t16.5 41zM316 855q0 16 -9.5 26t-23.5 10q-21 0 -38 -18t-17 -41q0 -16 10 -26t24 -10q21 0 37.5 18t16.5 41z" />
    <glyph glyph-name="Igrave" unicode="&#xcc;" horiz-adv-x="399" 
d="M484 709h-316q-2 0 -2.5 -2t1.5 -2h89q6 0 6 -4l-219 -693q-1 -4 -8 -4h-89q-2 0 -3 -2t1 -2h316q2 0 3 2t-1 2h-90q-6 0 -5 4l218 693q1 4 8 4h90q2 0 2.5 2t-1.5 2zM442 756q-36 9 -58 27t-36 40t-21 45t-13 41.5t-13 30.5t-20 12q-17 0 -28 -11.5t-11 -30.5
q0 -18 8.5 -39.5t31 -43t61 -41t98.5 -33.5q2 -1 2.5 1t-1.5 2z" />
    <glyph glyph-name="Oacute" unicode="&#xd3;" horiz-adv-x="743" 
d="M724 460q0 62 -19 111.5t-52.5 84t-79 52.5t-99.5 18t-106 -18.5t-99.5 -51.5t-87.5 -78t-69.5 -98t-46 -111.5t-16.5 -118.5q0 -62 19 -111.5t52.5 -84t79.5 -53t100 -18.5q53 0 105 18.5t99.5 51.5t87.5 78.5t69.5 98.5t46 111.5t16.5 118.5zM630 586q0 -30 -8 -73
t-20.5 -92t-29 -100t-33 -96t-31.5 -80t-26 -53q-36 -58 -78 -81.5t-104 -23.5q-78 0 -117 36t-39 100q0 30 8 73.5t20.5 92.5t28.5 100t32.5 96t31.5 80t26 53q18 29 37.5 49t41.5 32t47.5 17.5t56.5 5.5q78 0 117 -35.5t39 -100.5zM690 920q0 14 -9 23.5t-25 9.5
q-20 0 -37 -24t-42 -55t-64 -61t-102 -42q-2 -1 -1.5 -2.5t2.5 -1.5q74 13 127 32.5t86.5 41t49 42t15.5 37.5z" />
    <glyph glyph-name="Ocircumflex" unicode="&#xd4;" horiz-adv-x="743" 
d="M724 460q0 62 -19 111.5t-52.5 84t-79 52.5t-99.5 18t-106 -18.5t-99.5 -51.5t-87.5 -78t-69.5 -98t-46 -111.5t-16.5 -118.5q0 -62 19 -111.5t52.5 -84t79.5 -53t100 -18.5q53 0 105 18.5t99.5 51.5t87.5 78.5t69.5 98.5t46 111.5t16.5 118.5zM630 586q0 -30 -8 -73
t-20.5 -92t-29 -100t-33 -96t-31.5 -80t-26 -53q-36 -58 -78 -81.5t-104 -23.5q-78 0 -117 36t-39 100q0 30 8 73.5t20.5 92.5t28.5 100t32.5 96t31.5 80t26 53q18 29 37.5 49t41.5 32t47.5 17.5t56.5 5.5q78 0 117 -35.5t39 -100.5zM637 777q-8 19 -16.5 44t-15.5 51
t-12.5 51.5t-7.5 47.5q0 4 -4 0q-17 -18 -37.5 -41t-43.5 -49t-49 -52.5t-55 -51.5q-2 -1 -1 -2.5t3 0.5q36 31 74.5 65t65.5 61q8 -38 20.5 -73t25.5 -57z" />
    <glyph glyph-name="apple" unicode="&#xf8ff;" horiz-adv-x="967" 
d="M867 0v750h-767v-750h767zM820 520q0 -1 -1 -1v0q-4 0 -6 0.5t-7 0.5t-7 -0.5t-7 -0.5q-1 0 -1 1v1v1q7 1 7 5q0 3 -1 4l-3 15h-25l4 -15q0 -4 1 -5.5t8 -3.5v-2v-1q-4 0 -5.5 0.5t-6.5 0.5t-7.5 -0.5t-7.5 -0.5q-1 0 -1 1v1v1q8 1 8 5q0 3 -1 4l-7 33l-3 6t-8 3v2v1
q4 0 6.5 -0.5t6.5 -0.5q5 0 7 0.5t7 0.5q1 0 1 -2v-1q-7 -1 -7 -5v-4l4 -14h25l-3 14l-3 6t-6 3q-1 0 -1 2v1q4 0 6 -0.5t7 -0.5q4 0 7 0.5t7 0.5q2 0 2 -2q0 -1 -1 -1q-8 -1 -8 -5q0 -3 1 -4l8 -33q1 -4 2 -5.5t7 -3.5q2 0 2 -2zM559 686h-2q-3 9 -11 9q-3 0 -3 -3v-22
q0 -5 5 -6q1 0 1 -1t-1 -1h-8h-9q-1 0 -1 1t1 1q5 1 5 6v22q0 3 -3 3q-5 0 -6 -2t-3 -7h-1h-1q1 4 1.5 6.5t0.5 5.5q2 -1 4 -1h12h11t4 1q2 -3 2 -6q0 -2 2 -6zM694 540q0 -12 -7.5 -17t-14.5 -5q-14 0 -25 11t-11 27q0 12 7.5 17t14.5 5q14 0 25 -11.5t11 -26.5zM503 662
h-9h-9v1v1q5 1 5 6v9h-17v-9q0 -5 5 -6v-1v-1h-9h-8q-1 0 -1 1t1 1q5 1 5 6v19q0 6 -5 6q-1 0 -1 1t1 1h8h9v-1v-1q-5 0 -5 -6v-8h17v8q0 6 -5 6v1v1h9h9v-1v-1q-5 0 -5.5 -1.5t-0.5 -4.5v-19q0 -3 0.5 -4t5.5 -2v-1v-1zM825 378h-36v28h-11v-65h14v-33h-81v33h14v65h-11
v-28h-36v62h147v-62zM587 536q0 -8 -6.5 -13t-17.5 -5q-16 0 -16 13q0 10 9 10q7 0 7 -5t-4 -5q-2 0 -3 1t-2 1q-3 0 -3 -3q0 -9 12 -9t12 14q0 10 -6 15q-5 -5 -11 -5q-8 0 -8 6t8 6h8q2 2 2 6q0 12 -10 12q-7 0 -7 -6q0 -2 1.5 -2.5t1.5 -3.5t-4 -3q-5 0 -5 6q0 5 3.5 8.5
t9.5 3.5q9 0 14.5 -5t5.5 -10t-4 -9q13 -7 13 -18zM826 619h-685v4h685v-4zM439 663q0 -1 -1 -1v0h-16h-12q-1 3 -2 5.5t-2 5.5v0q0 1 1 1q4 -9 12 -9h3q4 0 4 3v12h-4q-6 0 -6 -6v-1h-1h-1v1v6v6q0 1 1 1t1 -1q0 -5 6 -5h4v10q0 4 -4 4h-3q-6 0 -9 -8v-1q-1 0 -1.5 0.5
l-0.5 0.5q2 4 2 10h12h16v0q1 0 1 -1t-1 -1v0q-5 0 -5 -6v-19q0 -5 5 -6v0q1 0 1 -1zM497 520v-1q-5 0 -7 0.5t-7 0.5q-4 0 -7 -0.5t-7 -0.5q-1 0 -1.5 1l-0.5 1v1h1q8 1 8 5q0 3 -1 4l-3 16h-5q-9 0 -8 -11h-1h-2q-1 4 -1 6q0 3 -1 6q-1 4 -1.5 5.5t-1.5 5.5v1h1q2 0 2 -1
q2 -6 4.5 -7.5t7.5 -1.5h4l-3 16q-1 6 -6 6h-4q-13 0 -14 -13q0 -1 -1 -1q-2 0 -2 1q0 3 0.5 5.5t0.5 4.5q0 5 -1 7q5 0 10 -0.5t10 -0.5t13.5 0.5t11.5 0.5l0.5 -0.5t0.5 -1.5t-1 -1q-7 -1 -7 -5q0 -3 1 -4l7 -33q2 -4 3 -5.5t7 -3.5q1 0 1 -2zM823 173q0 -1 -0.5 -1.5
l-0.5 -0.5q-4 0 -6 0.5t-7 0.5t-7.5 -0.5t-7.5 -0.5q-1 0 -1 1v1v2q8 1 8 5q0 1 -0.5 1.5t-0.5 2.5l-3 15h-5q-9 0 -8 -11h-1h-1q-2 4 -2 7t-1 5q-1 4 -1.5 5.5t-1.5 6.5h2h1q2 -7 4.5 -8t7.5 -1h5l-4 15q-1 6 -6 6h-4q-11 0 -14 -13v-1h-1t-1.5 0.5t0.5 0.5v11v6h19h25
q2 0 2 -2l-1 -1q-8 -1 -8 -5v-4l9 -32q1 -5 2 -6.5t7 -2.5q1 0 1.5 -1zM826 476h-685v4h685v-4zM644 406h-14l-37 -45v-20h15v-33h-81v33h14v19l-37 46h-12v34h62v-34h-10l15 -23l15 23h-11v34h81v-34zM399 521q0 -3 -4 -3q-7 0 -12 7q-8 0 -11 -6t-16 -6t-13 11q0 6 5 6
t5 -4q0 -2 -1 -2.5t-1 -2.5q0 -4 5 -4q7 0 8.5 6.5t12.5 6.5q-5 6 -7 14t-3 14.5t-2.5 11.5t-6.5 5t-5 -6t-4 -6q-5 0 -5 5q0 3 4 6.5t9 3.5q10 0 14.5 -6t6.5 -13.5t3.5 -16t4.5 -12.5q7 -1 10 -4t3 -5zM725 192q0 -12 -7.5 -17t-14.5 -5q-13 0 -24 11.5t-11 26.5
q0 12 7 17t14 5q14 0 25 -11.5t11 -26.5zM292 536q0 -8 -6 -13t-17 -5q-17 0 -17 13q0 10 9 10q8 0 8 -5t-5 -5q-2 0 -3 1t-2 1q-2 0 -2 -3q0 -9 12 -9q5 0 8.5 3t3.5 11q0 9 -6 15q-5 -5 -12 -5t-7 6t7 6h9q0 1 0.5 2t0.5 4q0 12 -10 12q-6 0 -6 -6q0 -2 1.5 -2.5t1.5 -3.5
t-5 -3t-5 6q0 5 4 8.5t9 3.5q9 0 14.5 -5t5.5 -10t-4 -9q13 -7 13 -18zM620 225q-9 -1 -9 -5q0 -1 0.5 -1.5t0.5 -2.5l5 -22q2 -6 2 -8q0 -5 -4.5 -10.5t-16.5 -5.5q-14 0 -19 9t-7 17l-5 20q-1 5 -2.5 6.5t-8.5 2.5q-1 0 -1 1v1v1h11h12v-1v-2q-8 -1 -8 -5q0 -1 0.5 -1.5
t0.5 -2.5l4 -19q2 -9 7 -15.5t13 -6.5q13 0 13 10q0 2 -2 10l-5 21q-1 5 -2 6.5t-8 2.5q-1 0 -1 1v1v1h14h15q1 0 1 -2v-1zM455 308h-81v33h15v19h-30q-22 0 -34.5 11.5t-12.5 28.5t12.5 28.5t34.5 11.5h96v-34h-14v-65h14v-33zM826 272h-685v4h685v-4zM694 47h-8h-6
q-1 0 -1 1v0q0 1 1 1q5 0 5 5l-1 19l-25 -27h-1h-2v28q0 2 -0.5 3.5t-5.5 1.5v2v1q2 0 3.5 -0.5t3.5 -0.5t4 0.5t4 0.5v-1v-2q-5 0 -5.5 -1.5t-0.5 -3.5v-17l24 25q2 0 2.5 -0.5t2.5 -0.5t2.5 0.5t2.5 0.5v-1v-2q-6 0 -6 -5l1 -20q0 -5 6 -5v-1v-1zM203 520q0 -1 -1 -1
q-4 0 -6.5 0.5t-6.5 0.5q-5 0 -8 -0.5t-7 -0.5q-1 0 -1 1v1v1q8 1 8 5v4l-4 14q-4 0 -5 -3l-12 -23q-6 0 -10.5 -0.5t-7.5 -0.5q-2 0 -2 1q0 2 1 2q9 1 14 9l8 16q-7 2 -13 6.5t-6 10.5q0 13 20 13q5 0 7.5 -0.5t6.5 -0.5t6 0.5t7 0.5v-2v-1q-8 -1 -8 -5q0 -3 1 -4l7 -33
q2 -4 3 -5.5t8 -3.5l0.5 -0.5t0.5 -1.5zM522 173q0 -2 -1 -2q-2 0 -4 0.5t-5 0.5q-4 0 -7 -0.5t-5 -0.5l-1 2q0 2 1 2q8 1 6 9l-5 30l-31 -44h-2q-1 0 -1 1l-8 45q-2 8 -10 9v2v1q3 0 5 -0.5t5 -0.5q4 0 6.5 0.5t4.5 0.5t2 -2v-1h-1q-9 -1 -7 -9l4 -28l30 40h9h5q2 0 2 -2
v-1h-1q-9 -1 -9 -6q0 -2 1 -3l7 -32q0 -8 9 -9zM632 46q-3 1 -8 1h-9q-8 0 -12 -1q-1 7 -4 11q0 1 1 1h1q3 -9 12 -9h2q4 0 4 4v11h-4q-2 0 -3.5 -0.5t-2.5 -5.5h-1v6v7v1q1 0 1 -1v0q1 -5 6 -5h4v9q0 4 -4 4h-2q-8 0 -10 -7q0 -1 -1 -1v1q0 3 0.5 5t1.5 5q3 0 5.5 -0.5
t6.5 -0.5q3 0 8 0.5t8 0.5v-1v-2q-5 0 -5.5 -1.5t-0.5 -3.5v-20q0 -2 0.5 -3.5t5.5 -1.5v-1v-2zM582 81q0 -2 -1 -2q-2 0 -6 -6l-12 -27h-1l-9 15l-7 -15h-1h-1l-12 27q-2 3 -2.5 4.5t-3.5 1.5v2v1q2 0 2.5 -0.5t2.5 -0.5t3 0.5t3 0.5q1 0 1 -1v0q0 -2 -1 -2q-2 0 -2 -3v-3
l8 -18l7 13l-3 5q-3 6 -7 6q-1 0 -1 2v1q2 0 3.5 -0.5t3.5 -0.5t2.5 0.5t2.5 0.5q3 0 4 -0.5t3 -0.5q3 0 3.5 0.5t3.5 0.5l1 -1q0 -1 -0.5 -1.5l-0.5 -0.5q-5 0 -6 -6l-5 -9l6 -9l9 19v2q0 3 -2 3v2v1q3 0 4.5 -0.5t3.5 -0.5t3 0.5t4 0.5v-1zM826 128h-685v4h685v-4z
M277 308h-141v61h41v-28h33v21h-24v24h24v20h-33v-28h-41v62h141v-34h-14v-65h14v-33zM413 171q-3 1 -8 1h-9h-15q-13 0 -24 9t-11 25q0 11 8 17t17 6q3 0 6.5 -0.5t8.5 -0.5h15v-2v-1q-7 -1 -7 -5v-4l8 -32q1 -5 2 -6.5t8 -2.5q1 0 1 -1v-1v-2zM479 81v-2q-5 0 -7 -5
l-8 -12v-8q0 -5 5 -5q1 0 1 -1v0q0 -2 -1 -2q-2 0 -4 0.5t-4 0.5q-4 0 -5.5 -0.5t-3.5 -0.5v2v1q5 0 5 5v8l-8 12q-4 5 -8 5v2v1q2 0 3 -0.5t3 -0.5t4 0.5t4 0.5v-1v-2q-4 0 -4 -3v-1l1 -1l6 -9l6 9q1 1 1 3t-2 2q-1 0 -1 2v0q0 1 1 1q2 0 3.5 -0.5t4.5 -0.5t4.5 0.5
t3.5 0.5v-1zM306 173q0 -1 -0.5 -1.5l-0.5 -0.5q-4 0 -6 0.5t-7 0.5t-7.5 -0.5t-7.5 -0.5l-1 2q0 2 1 2q7 1 7 5v4l-3 13q-4 0 -6 -3l-12 -22q-6 0 -10 -0.5t-8 -1.5h-1v2q0 1 1 1q9 3 12 10l9 16q-7 1 -12.5 6t-5.5 11q0 12 19 12h14h12q2 0 2 -2v-1h-1q-7 -1 -7 -5v-4
l8 -32q1 -5 2 -6.5t8 -2.5zM424 64q0 -8 -5.5 -13t-14.5 -5t-14 5t-5 13t5 13t14 5t14.5 -5t5.5 -13zM364 48q0 -2 -1 -2q-2 0 -3.5 0.5t-5.5 0.5q-3 0 -4.5 -0.5t-3.5 -0.5q-1 0 -1 2v0q0 1 1 1q5 0 5 5v9q-3 0 -4 -1t-3 -4l-6 -11h-6h-6v1v1q5 0 7 4l8 11q-8 3 -8 9
q0 9 12 9q3 0 4.5 -0.5t4.5 -0.5t5 0.5t4 0.5q1 0 1 -1v0q0 -2 -1 -2q-5 0 -5 -5v-20q0 -5 5 -5q1 0 1 -1v0zM202 215h-2l-4.5 4.5t-7.5 2.5q-9 0 -9 -13q0 -8 3 -17l2 -8q1 -5 2 -6.5t8 -2.5l1 -2q0 -1 -0.5 -1.5l-0.5 -0.5q-4 0 -6 0.5t-6 0.5q-5 0 -7.5 -0.5t-7.5 -0.5
q-1 0 -1 1v1v2q7 1 7 5v4l-1 6q-4 14 -9 23.5t-15 9.5q-8 0 -8 -6h-3v1q0 5 2 8.5t7 3.5q8 0 14.5 -6.5t9.5 -16.5v5q0 18 14 18q8 0 11.5 -4t6.5 -9q2 0 0 -2zM308 46q-2 0 -4 0.5t-5 0.5t-4.5 -0.5t-4.5 -0.5v2v1q5 0 5.5 1.5t0.5 3.5v9q-2 0 -4 -2l-7 -8q-1 -1 -1 -2
q0 -2 3 -2v-1v-2q-3 0 -5.5 0.5t-4.5 0.5q-3 0 -4.5 -0.5t-3.5 -0.5q-1 0 -1 2l1 1q3 0 7 4l13 13l-9 9l-3 3t-5 1v2v1q2 0 3 -0.5t3 -0.5t3.5 0.5t3.5 0.5v-1v-2q-3 0 -3 -1t2 -3l8 -8q1 -3 4 -3v10q0 2 -0.5 3.5t-5.5 1.5v2v1q3 0 4.5 -0.5t4.5 -0.5t5 0.5t4 0.5v-1v-2
q-6 0 -6 -5v-20q0 -5 6 -5v-1v-2zM683 535q0 16 -7.5 28t-16.5 12q-12 0 -12 -15t7.5 -27t16.5 -12q12 0 12 14zM565 553q-2 1 -7 1q-4 0 -4 -3q0 -2 4 -2t7 4zM713 188q0 15 -6.5 27t-17.5 12q-10 0 -10 -14q0 -16 6.5 -28t17.5 -12q10 0 10 15zM270 553q-2 1 -7 1
q-3 0 -3 -3q0 -2 3 -2q4 0 7 4zM389 384v22h-11q-13 0 -13 -11t13 -11h11zM176 548l-3 18q-2 6 -9 6q-8 0 -8 -9q0 -5 3 -10t12 -5h5zM554 77q0 2 -3 2q-2 0 -2 -3l0.5 -1.5t1.5 -3.5q3 4 3 6zM392 182l-9 36q-2 5 -3 5.5t-3 0.5l-6 1q-14 0 -14 -18q0 -12 7.5 -21.5
t18.5 -9.5h5q2 0 3 0.5t1 5.5zM280 201l-5 17q0 7 -7 7q-8 0 -8 -10q0 -5 3 -9.5t12 -4.5h5zM416 64q0 7 -2.5 12t-9.5 5q-6 0 -9 -5t-3 -12q0 -16 12 -16t12 16zM351 65v10q0 4 -4 4q-7 0 -7 -6q0 -8 8 -8h3z" />
    <glyph glyph-name="Ograve" unicode="&#xd2;" horiz-adv-x="743" 
d="M724 460q0 62 -19 111.5t-52.5 84t-79 52.5t-99.5 18t-106 -18.5t-99.5 -51.5t-87.5 -78t-69.5 -98t-46 -111.5t-16.5 -118.5q0 -62 19 -111.5t52.5 -84t79.5 -53t100 -18.5q53 0 105 18.5t99.5 51.5t87.5 78.5t69.5 98.5t46 111.5t16.5 118.5zM630 586q0 -30 -8 -73
t-20.5 -92t-29 -100t-33 -96t-31.5 -80t-26 -53q-36 -58 -78 -81.5t-104 -23.5q-78 0 -117 36t-39 100q0 30 8 73.5t20.5 92.5t28.5 100t32.5 96t31.5 80t26 53q18 29 37.5 49t41.5 32t47.5 17.5t56.5 5.5q78 0 117 -35.5t39 -100.5zM546 756q-36 9 -58 27t-36 40t-21 45
t-13 41.5t-13 30.5t-20 12q-17 0 -28 -11.5t-11 -30.5q0 -18 8.5 -39.5t31 -43t61 -41t98.5 -33.5q2 -1 2.5 1t-1.5 2z" />
    <glyph glyph-name="Uacute" unicode="&#xda;" horiz-adv-x="762" 
d="M859 709h-197q-2 0 -2.5 -2t1.5 -2h89q6 0 6 -4l-155 -491q-15 -48 -38 -87.5t-55.5 -68t-75.5 -44t-99 -15.5q-63 0 -95.5 30.5t-32.5 79.5q0 29 7 64.5t20 74.5l143 457q2 4 8 4h90q2 0 2.5 2t-1.5 2h-316q-2 0 -2.5 -2t1.5 -2h90q7 0 5 -4l-138 -438q-18 -57 -18 -105
q0 -79 51 -127t156 -48q64 0 113 16t85.5 45.5t62 71.5t42.5 94l155 491q0 4 7 4h90q2 0 2.5 2t-1.5 2zM747 920q0 14 -9 23.5t-25 9.5q-20 0 -37 -24t-42 -55t-64 -61t-102 -42q-2 -1 -1.5 -2.5t2.5 -1.5q74 13 127 32.5t86.5 41t49 42t15.5 37.5z" />
    <glyph glyph-name="Ucircumflex" unicode="&#xdb;" horiz-adv-x="762" 
d="M859 709h-197q-2 0 -2.5 -2t1.5 -2h89q6 0 6 -4l-155 -491q-15 -48 -38 -87.5t-55.5 -68t-75.5 -44t-99 -15.5q-63 0 -95.5 30.5t-32.5 79.5q0 29 7 64.5t20 74.5l143 457q2 4 8 4h90q2 0 2.5 2t-1.5 2h-316q-2 0 -2.5 -2t1.5 -2h90q7 0 5 -4l-138 -438q-18 -57 -18 -105
q0 -79 51 -127t156 -48q64 0 113 16t85.5 45.5t62 71.5t42.5 94l155 491q0 4 7 4h90q2 0 2.5 2t-1.5 2zM700 777q-8 19 -16.5 44t-15.5 51t-12.5 51.5t-7.5 47.5q0 4 -4 0q-17 -18 -37.5 -41t-43.5 -49t-49 -52.5t-55 -51.5q-2 -1 -1 -2.5t3 0.5q36 31 74.5 65t65.5 61
q8 -38 20.5 -73t25.5 -57z" />
    <glyph glyph-name="Ugrave" unicode="&#xd9;" horiz-adv-x="762" 
d="M859 709h-197q-2 0 -2.5 -2t1.5 -2h89q6 0 6 -4l-155 -491q-15 -48 -38 -87.5t-55.5 -68t-75.5 -44t-99 -15.5q-63 0 -95.5 30.5t-32.5 79.5q0 29 7 64.5t20 74.5l143 457q2 4 8 4h90q2 0 2.5 2t-1.5 2h-316q-2 0 -2.5 -2t1.5 -2h90q7 0 5 -4l-138 -438q-18 -57 -18 -105
q0 -79 51 -127t156 -48q64 0 113 16t85.5 45.5t62 71.5t42.5 94l155 491q0 4 7 4h90q2 0 2.5 2t-1.5 2zM618 756q-36 9 -58 27t-36 40t-21 45t-13 41.5t-13 30.5t-20 12q-17 0 -28 -11.5t-11 -30.5q0 -18 8.5 -39.5t31 -43t61 -41t98.5 -33.5q2 -1 2.5 1t-1.5 2z" />
    <glyph glyph-name="dotlessi" unicode="&#x131;" horiz-adv-x="262" 
d="M241 95l-3 2q-25 -45 -49.5 -63t-47.5 -18q-16 0 -23 10.5t-7 27.5q0 24 16 61.5t35 80t35 86.5t16 81q0 31 -15.5 51t-56.5 20q-24 0 -53.5 -20t-52.5 -70l3 -3q19 38 38.5 55t34.5 17q14 0 19 -6.5t5 -22.5q0 -34 -16 -77.5t-35.5 -87.5t-35.5 -85.5t-16 -71.5
q0 -31 21 -51t62 -20q13 0 29.5 6t33.5 18.5t33 32.5t30 47z" />
    <glyph glyph-name="circumflex" unicode="&#x2c6;" horiz-adv-x="326" 
d="M337 522q-8 19 -16.5 44t-15.5 51t-12.5 51.5t-7.5 47.5q0 4 -4 0q-17 -18 -37.5 -41t-43.5 -49t-49 -52.5t-55 -51.5q-2 -1 -1 -2.5t3 0.5q36 31 74.5 65t65.5 61q8 -38 20.5 -73t25.5 -57z" />
    <glyph glyph-name="tilde" unicode="&#x2dc;" horiz-adv-x="406" 
d="M465 664q0 2 -2 2t-2 -2q0 -12 -3.5 -25t-11.5 -23.5t-20 -17t-29 -6.5t-37 10t-42.5 22.5t-47 22.5t-49.5 10q-19 0 -40 -8.5t-39 -24t-29.5 -36t-11.5 -44.5q0 -2 2 -2t2 2q0 12 3.5 25t11.5 23.5t20 17t29 6.5t37 -10t42.5 -22.5t47 -22.5t49.5 -10q19 0 40.5 8.5
t39 24t29 36t11.5 44.5z" />
    <glyph glyph-name="macron" unicode="&#xaf;" horiz-adv-x="400" 
d="M455 597q2 0 2 5q0 6 -2 6h-320q-2 0 -2 -6q0 -5 2 -5h320z" />
    <glyph glyph-name="macron" unicode="&#x2c9;" horiz-adv-x="400" 
d="M455 597q2 0 2 5q0 6 -2 6h-320q-2 0 -2 -6q0 -5 2 -5h320z" />
    <glyph glyph-name="breve" unicode="&#x2d8;" horiz-adv-x="380" 
d="M486 690q1 2 -1 2t-3 -2q-4 -13 -14 -30.5t-28 -33t-45.5 -26t-66.5 -10.5t-62 10.5t-33.5 26t-11.5 33t3 30.5q1 2 -1 2t-3 -2q-8 -24 -9.5 -51t7.5 -50t31 -38.5t63 -15.5q40 0 69.5 15.5t50 38.5t33.5 50t21 51z" />
    <glyph glyph-name="dotaccent" unicode="&#x2d9;" horiz-adv-x="247" 
d="M245 600q0 16 -9.5 26t-23.5 10q-21 0 -38 -18t-17 -41q0 -16 10 -26t24 -10q21 0 37.5 18t16.5 41z" />
    <glyph glyph-name="ring" unicode="&#x2da;" horiz-adv-x="283" 
d="M307 628q0 26 -17 41.5t-40 15.5q-17 0 -34 -8t-30 -20.5t-21 -29.5t-8 -35q0 -26 17 -41.5t40 -15.5q17 0 34 8t30 20.5t21 29.5t8 35zM303 628q0 -17 -7.5 -33.5t-20.5 -29t-29 -20t-32 -7.5q-21 0 -37 15t-16 39q0 17 7.5 33t20.5 28.5t28.5 20t32.5 7.5q21 0 37 -15
t16 -38z" />
    <glyph glyph-name="cedilla" unicode="&#xb8;" horiz-adv-x="289" 
d="M104 -141q0 20 -6.5 32t-14.5 22t-14.5 20.5t-6.5 27.5q0 11 6.5 19.5t11.5 11.5q2 2 1 3t-3 0q-5 -4 -13 -11t-15 -17t-12 -21.5t-5 -23.5q0 -17 8 -29.5t17.5 -23.5t17.5 -20.5t8 -20.5q0 -19 -13.5 -30.5t-40.5 -11.5q-17 0 -27 7.5t-10 19.5q0 4 3 7t6.5 6t6.5 7.5
t3 10.5q0 24 -22 24q-12 0 -19 -8.5t-7 -21.5q0 -23 18 -39.5t52 -16.5q29 0 49.5 21.5t20.5 55.5z" />
    <glyph glyph-name="hungarumlaut" unicode="&#x2dd;" horiz-adv-x="588" 
d="M569 665q0 14 -9 23.5t-25 9.5q-20 0 -37 -24t-42 -55t-64 -61t-102 -42q-2 -1 -1.5 -2.5t2.5 -1.5q74 13 127 32.5t86.5 41t49 42t15.5 37.5zM375 665q0 14 -9 23.5t-25 9.5q-20 0 -37 -24t-42 -55t-64 -61t-102 -42q-2 -1 -1.5 -2.5t2.5 -1.5q74 13 127 32.5t86.5 41
t49 42t15.5 37.5z" />
    <glyph glyph-name="ogonek" unicode="&#x2db;" horiz-adv-x="273" 
d="M142 -4q2 0 1 1.5t-3 1.5q-82 -14 -125.5 -47t-43.5 -77q0 -34 23.5 -52.5t61.5 -18.5q20 0 39 7.5t34 18.5q2 1 1.5 3t-2.5 0q-20 -10 -36 -10q-29 0 -47.5 13t-18.5 42q0 28 9.5 47.5t26 33t37 22.5t43.5 15z" />
    <glyph glyph-name="caron" unicode="&#x2c7;" horiz-adv-x="326" 
d="M410 705q2 2 1 3.5t-3 -0.5q-36 -31 -74.5 -65t-65.5 -61q-8 38 -20.5 73t-25.5 57l-53 -7q8 -19 16.5 -43.5t15.5 -50.5t12.5 -51.5t7.5 -47.5q0 -4 4 0q17 18 37.5 41t43.5 48.5t49 52.5t55 51z" />
    <glyph glyph-name="quotedbl" unicode="&#x22;" horiz-adv-x="331" 
d="M385 686q0 40 -36 40q-14 0 -24.5 -11t-14.5 -25q-5 -16 -8 -38.5t-5 -48.5t-4 -53t-5 -52l-3 -11l1 -0.5t1 0.5q1 0 2.5 5l1.5 5q12 22 28 48t30.5 51.5t25 49t10.5 40.5zM235 686q0 40 -36 40q-14 0 -24.5 -11t-14.5 -25q-5 -16 -8 -38.5t-5 -48.5t-4 -53t-5 -52
l-3 -11l1 -0.5t1 0.5q1 0 2.5 5l1.5 5q12 22 28 48t30.5 51.5t25 49t10.5 40.5z" />
    <glyph glyph-name="exclam" unicode="!" horiz-adv-x="281" 
d="M328 684q0 17 -11 29.5t-31 12.5q-22 0 -44 -15.5t-36 -58.5q-9 -30 -17.5 -85t-20 -122.5t-26 -141t-35.5 -139.5q-1 -2 1 -2t3 2q14 44 35.5 96t45.5 104.5t48 103.5t43.5 94t32 75t12.5 47zM121 56q0 19 -11.5 31t-28.5 12q-26 0 -45 -21.5t-19 -48.5
q0 -19 11.5 -30.5t28.5 -11.5q25 0 44.5 21t19.5 48z" />
    <glyph glyph-name="Omega" unicode="&#x3a9;" horiz-adv-x="509" 
d="M723 665q0 34 -23 56t-77 22q-32 0 -60 -13.5t-57 -39.5q-17 27 -43.5 40t-69.5 13q-36 0 -71 -18.5t-65.5 -51.5t-56 -79.5t-43.5 -102.5q-5 -14 -10 -30.5t-10 -35.5h-103q-2 0 -2.5 -1.5t1.5 -1.5h103q-16 -57 -33 -126t-34 -139t-34.5 -136t-33.5 -117
q-19 -60 -32.5 -101t-26 -66.5t-26 -37t-32.5 -11.5q-16 0 -22 9t-6 25q0 12 9 27t9 32q0 14 -9.5 24.5t-32.5 10.5q-20 0 -34.5 -14t-14.5 -40q0 -38 26.5 -58t70.5 -20q26 0 46.5 9t41.5 26q17 -18 40.5 -26.5t58.5 -8.5q36 0 71 19t66 53t57 80.5t44 102.5
q13 41 31.5 99.5t39 123.5t40.5 132.5t36 127.5h116q2 0 3 1.5t-1 1.5h-117q6 23 12 43.5t11 39.5q22 69 41.5 113.5t37.5 71t34 36.5t30 10q18 0 25 -8t7 -25q0 -12 -9 -27.5t-9 -32.5q0 -15 9.5 -25.5t32.5 -10.5q20 0 34 14.5t14 40.5zM502 687q-37 -34 -68 -83.5
t-51 -112.5q-5 -14 -10 -30.5t-10 -35.5h-136q6 23 12 43.5t11 39.5q22 69 41 113.5t37 71t37 36.5t40 10q31 0 57 -12.5t40 -39.5zM362 422q-16 -57 -35 -125t-38.5 -136.5t-39 -133t-35.5 -115.5q-21 -69 -40.5 -112.5t-39 -68.5t-39 -34t-40.5 -9q-25 0 -47 8.5t-37 25.5
q39 33 69.5 90.5t53.5 130.5q14 41 30 99t33.5 122.5t35 131t33.5 126.5h136z" />
    <glyph glyph-name="fraction" unicode="&#x2215;" horiz-adv-x="493" 
d="M425 726q1 1 -1 2.5t-3 -0.5l-453 -749q-1 -2 1 -3.5t3 0.5z" />
    </font>
</defs>
</svg>
