<svg xmlns="http://www.w3.org/2000/svg" viewBox="0 0 26.99 22.3"><defs><style>.cls-1{fill:#a9a9aa;fill-rule:evenodd;}</style></defs><g id="图层_2" data-name="图层 2"><g id="图层_1-2" data-name="图层 1"><path class="cls-1" d="M6.33,6.81A1.28,1.28,0,1,1,7.59,5.53,1.27,1.27,0,0,1,6.33,6.81Z"/><path class="cls-1" d="M13.07,6.81a1.28,1.28,0,1,1,1.27-1.28A1.27,1.27,0,0,1,13.07,6.81Z"/><path class="cls-1" d="M27,14.44c0-3.64-3.38-6.6-7.63-6.77C18.9,3.37,14.75,0,9.7,0,4.34,0,0,3.79,0,8.46a8.16,8.16,0,0,0,3.94,6.81c.27.17-.89,2.6-.6,2.75.48.25,2.43-1.81,3-1.64a10.81,10.81,0,0,0,3.4.54,11.3,11.3,0,0,0,1.76-.14A8.05,8.05,0,0,0,19,21.22a9.45,9.45,0,0,0,2.69-.39c.27-.09,2.14,1.57,2.4,1.46.43-.17-.77-2.13-.39-2.36A6.5,6.5,0,0,0,27,14.44ZM16,12.77a.85.85,0,1,1,.84-.85A.85.85,0,0,1,16,12.77ZM11,14.44a6,6,0,0,0,0,.74,9.4,9.4,0,0,1-1.31.09,9.26,9.26,0,0,1-3.15-.54.76.76,0,0,0-.63,0,8,8,0,0,0-1,1,4.15,4.15,0,0,0,.28-1.17c0-.31-.45-.53-.55-.6a6.7,6.7,0,0,1-3-5.43c0-3.75,3.58-6.79,8-6.79,4.13,0,7.53,2.65,8,6.05C13.86,8.28,11,11.07,11,14.44Zm10.13-1.67a.85.85,0,1,1,.84-.85A.85.85,0,0,1,21.09,12.77Z"/></g></g></svg>