<svg xmlns="http://www.w3.org/2000/svg" viewBox="0 0 25.66 21.08"><defs><style>.cls-1{fill:#a9a9aa;fill-rule:evenodd;}</style></defs><g id="图层_2" data-name="图层 2"><g id="图层_1-2" data-name="图层 1"><path class="cls-1" d="M20.49,5.71a2.68,2.68,0,0,0-2.18-.66.5.5,0,0,1-.54-.51V4.33a.63.63,0,0,1,.53-.62,3.55,3.55,0,0,1,3.08.78c1.34,1.22.77,3.45.77,3.45a.66.66,0,0,1-.64.53H21A.37.37,0,0,1,20.65,8,2.49,2.49,0,0,0,20.49,5.71Z"/><path class="cls-1" d="M24.63,9.42h-.34a.67.67,0,0,1-.69-.79,6.7,6.7,0,0,0-.83-4.84C21.29,1.65,17.84,2,17.84,2A.77.77,0,0,1,17,1.24V.84a.82.82,0,0,1,.8-.82,8.47,8.47,0,0,1,6.05,2c2.45,2.36,1.66,6.59,1.66,6.59A.93.93,0,0,1,24.63,9.42Z"/><path class="cls-1" d="M18.57,9.83c0-.23,2.16-2.26,0-3.53s-6.09.66-6,.45c1.69-3-.73-3.89-2-3.89C7.69,2.86,0,9.41,0,13.57s5.14,7.51,11.47,7.51S22.9,17.72,22.9,13.57C22.9,10.06,18.57,10.06,18.57,9.83Zm-6.79,9c-4,.57-7.63-1.14-8-3.81s2.61-5.3,6.65-5.87,7.64,1.14,8,3.81S15.83,18.21,11.78,18.78Z"/><path class="cls-1" d="M14.68,13.51c-.4-2-2.67-3.31-5.08-2.84s-4,2.5-3.64,4.54S8.63,18.52,11,18.05,15.08,15.55,14.68,13.51ZM9.4,16a1.33,1.33,0,0,1-1.81-.39A1.33,1.33,0,0,1,8.45,14a1.34,1.34,0,0,1,1.82.39A1.34,1.34,0,0,1,9.4,16Zm1.7-1.71a.76.76,0,1,1,.74-.75A.75.75,0,0,1,11.1,14.32Z"/></g></g></svg>