<?xml version="1.0" encoding="utf-8"?>
<!-- Generator: Adobe Illustrator 19.0.0, SVG Export Plug-In . SVG Version: 6.00 Build 0)  -->
<svg version="1.1" id="图层_1" xmlns="http://www.w3.org/2000/svg" xmlns:xlink="http://www.w3.org/1999/xlink" x="0px" y="0px"
	 viewBox="-379 181 200 200" style="enable-background:new -379 181 200 200;" xml:space="preserve">
<style type="text/css">
	.st0{fill:#999999;}
</style>
<path class="st0" d="M-212.7,296.3c-4.3-12.9-17.7-17.7-20.7-17.9c-3-0.3-5.8-1.9-3.8-5.4c2-3.4,5.7-13.4-1.4-20.4
	c-7.1-7.1-22.8-4.4-33.8,0.2c-11,4.6-10.4,1.4-10.1-1.7c0.4-3.3,6.3-21.7-11.9-23.9c-23.8-2.9-54.4,26.4-65.2,43.3
	c-16.3,25.5-13.7,42.7-13.7,42.7h0.1c2,23.8,37.3,42.7,80.5,42.7c37.2,0,68.5-14,77.8-33.1c0,0,0-0.1,0.1-0.2c1-2.1,1.7-4.1,2.2-6.3
	C-211.3,311-210.3,303.6-212.7,296.3L-212.7,296.3z M-298,345.3c-30.8,0-55.8-16.4-55.8-36.7c0-20.2,25-36.7,55.8-36.7
	c30.8,0,55.8,16.4,55.8,36.7C-242.2,329-267.2,345.3-298,345.3z"/>
<path class="st0" d="M-222.1,264.1c0.6,0.3,1.2,0.4,1.8,0.4c1.8,0,3.5-1,4.2-2.8c1.2-2.7,1.8-5.6,1.8-8.6c0-12.2-10-22.1-22.3-22.1
	c-3,0-5.9,0.6-8.7,1.7c-2.3,1-3.4,3.6-2.4,5.9c1,2.3,3.6,3.3,6,2.4c1.6-0.7,3.4-1,5.2-1c7.3,0,13.2,5.9,13.2,13.1
	c0,1.8-0.3,3.5-1,5.1C-225.5,260.4-224.5,263-222.1,264.1C-222.2,264-222.2,264.1-222.1,264.1L-222.1,264.1L-222.1,264.1z"/>
<path class="st0" d="M-237,203.3c-5.1,0-10.1,0.7-14.9,2.1c-3.6,1.1-5.6,4.8-4.6,8.4c1.1,3.6,4.8,5.6,8.4,4.6
	c3.6-1,7.3-1.6,11.1-1.6c21.3,0,38.7,17.2,38.7,38.4c0,3.8-0.6,7.6-1.6,11.2c-1.1,3.6,0.9,7.3,4.5,8.4c0.7,0.2,1.3,0.3,2,0.3
	c2.9,0,5.6-1.9,6.5-4.8c1.5-4.9,2.2-9.9,2.2-15.1C-184.7,226.6-208.2,203.3-237,203.3L-237,203.3z"/>
<path class="st0" d="M-303.2,285.4c-16.4,0-29.8,11.6-29.8,25.8c0,14.3,13.3,25.8,29.8,25.8c16.4,0,29.8-11.6,29.8-25.8
	C-273.4,296.9-286.7,285.4-303.2,285.4z M-312.9,328c-5.8,0-10.4-4.6-10.4-10.3c0-5.7,4.7-10.3,10.4-10.3c5.8,0,10.4,4.6,10.4,10.3
	C-302.5,323.4-307.1,328-312.9,328z M-293.4,309.4c-1.2,2.2-3.8,3.1-5.6,2c-1.8-1-2.3-3.7-1-5.8c1.2-2.2,3.8-3.1,5.6-2
	C-292.6,304.6-292.1,307.2-293.4,309.4L-293.4,309.4z"/>
</svg>
