<svg xmlns="http://www.w3.org/2000/svg" viewBox="0 0 222.72 42.86"><defs><style>.cls-1,.cls-2{fill:#231815;}.cls-2{fill-rule:evenodd;}</style></defs><g id="图层_2" data-name="图层 2"><g id="图层_1-2" data-name="图层 1"><path class="cls-1" d="M66.9,39.9a17,17,0,1,1,17-17A17,17,0,0,1,66.9,39.9Zm0-31.28A14.29,14.29,0,1,0,81.19,22.91,14.31,14.31,0,0,0,66.9,8.62Z"/><path class="cls-1" d="M54.86,23.15h0a.39.39,0,0,1-.38-.41,13.57,13.57,0,0,1,3.9-8.52c3.7-3.63,9.06-3.17,9.29-3.14a.39.39,0,0,1,.35.43.4.4,0,0,1-.43.35s-5.23-.44-8.66,2.93a13,13,0,0,0-3.66,8A.4.4,0,0,1,54.86,23.15Z"/><path class="cls-1" d="M94.6,42.86H85.92a.42.42,0,0,1-.42-.42v-.66a.42.42,0,0,1,.42-.42h7.49V4.49H88.13a.45.45,0,0,1-.42-.42V3.38A.42.42,0,0,1,88.13,3H94.6a.42.42,0,0,1,.42.42V42.44A.42.42,0,0,1,94.6,42.86Z"/><path class="cls-1" d="M47.88,42.86H39.21a.41.41,0,0,1-.42-.42V3.38A.42.42,0,0,1,39.21,3h8.67a.42.42,0,0,1,.42.42v.69a.4.4,0,0,1-.12.29.42.42,0,0,1-.3.13H40.4V41.34h7.48a.42.42,0,0,1,.42.42v.66A.41.41,0,0,1,47.88,42.86Z"/><path class="cls-2" d="M112,7s4.72,8.2,6.41,10.8c1.07,1.63,2.13,3.28,3.2,4.93a14.72,14.72,0,0,0,.9,1.37,12.88,12.88,0,0,1,.91,1.36c.58.93,1.17,1.85,1.78,2.76L127,31c.17.28.38.61.64,1a1.14,1.14,0,0,0,1,.59c.17-.07.26-.12.26-.15a1.36,1.36,0,0,0,.25-.88V7.5a5.36,5.36,0,0,0,0-.78,2.18,2.18,0,0,1,0-.77V5.38A1.39,1.39,0,0,0,129.2,5a.91.91,0,0,1,.13-.37,1.15,1.15,0,0,1,.93-.43c.41,0,.86,0,1.34,0h.65a1.78,1.78,0,0,1,.59.1,1.09,1.09,0,0,1,.7.91,13.4,13.4,0,0,1,.07,1.52V38.3q0,.57,0,1.14a1.22,1.22,0,0,1-.23.87.86.86,0,0,1-.49.39l-.7.18h-2.6a2.3,2.3,0,0,1-1.06-.21,1.27,1.27,0,0,1-.65-.51c-.15-.24-.32-.48-.49-.72-.27-.42-.56-.85-.85-1.29s-.58-.9-.85-1.35q-1.86-2.77-3.66-5.52c-1.21-1.82-2.41-3.68-3.62-5.57-.65-1-1.31-2.05-2-3s-1.34-2-2-3.05c-.8-1.27-1.63-2.54-2.49-3.83Z"/><path class="cls-2" d="M107.87,4.11a5.05,5.05,0,0,1,1,.09c0,11.27.07,22.53.07,33.79,0,.17,0,.38,0,.62a1.48,1.48,0,0,1-.08.62v.41a2.92,2.92,0,0,1-.21.72.53.53,0,0,1-.36.34l-.57.18h-1c-.48,0-.91,0-1.29-.05a1,1,0,0,1-.83-.47,1.29,1.29,0,0,1-.25-.85V5.77a2.07,2.07,0,0,1,.25-1.11,1.4,1.4,0,0,1,.62-.47C105.35,4.13,107.61,4.12,107.87,4.11Z"/><path class="cls-1" d="M126.56,13.51a.4.4,0,0,1-.4-.39V5.61a.4.4,0,0,1,.8,0v7.51A.4.4,0,0,1,126.56,13.51Z"/><path class="cls-2" d="M1.48,4.13h9.09V8.18c-.46,0-1,0-1.45,0H3.44L2,8.18A3.31,3.31,0,0,1,.81,8.05L.5,7.84a.92.92,0,0,1-.26-.26A1.36,1.36,0,0,1,0,6.91a5,5,0,0,1,.1-1.8A1.16,1.16,0,0,1,.4,4.54a.58.58,0,0,1,.28-.23,2.23,2.23,0,0,1,.39-.13.28.28,0,0,1,.2,0,.31.31,0,0,0,.21,0Zm10.85,0H28a1.82,1.82,0,0,1,.88.2,1,1,0,0,1,.49.7,6.66,6.66,0,0,1,.08,1.11v.62c-.07.28-.13.5-.18.67a1,1,0,0,1-.34.46,2,2,0,0,1-1.13.26H20.52l-1.11,0a4.37,4.37,0,0,0-1,0,1.68,1.68,0,0,0-.75.31,1.36,1.36,0,0,0-.46.69,3.07,3.07,0,0,0-.11,1.19q.06.72.06,1.29V38.44a11.46,11.46,0,0,1-.08,1.39,1,1,0,0,1-.6.88,2,2,0,0,1-.61.13c-.25,0-.5,0-.78,0H13.68a1.13,1.13,0,0,1-1-.37,1.7,1.7,0,0,1-.34-1c0-.37,0-.79,0-1.23V16.81h0V10.29a3.3,3.3,0,0,0,0-.55Z"/><path class="cls-1" d="M10,40a.32.32,0,0,1-.32-.31V10.33A.32.32,0,0,1,10,10a.32.32,0,0,1,.32.32v29.4A.31.31,0,0,1,10,40Z"/><path class="cls-2" d="M145.74,4.14c.51,0,1.15,0,1.9,0a3.87,3.87,0,0,1,1.71.2,1.76,1.76,0,0,1,.64.52l.49.67.62,1c.21.35.43.69.67,1,1,1.51,1.92,3,2.87,4.48s1.88,3,2.81,4.49c.34.55.68,1.09,1,1.6s.66,1,1,1.55c.14.24.29.47.44.7a1.46,1.46,0,0,0,.16.19l-2.89,3.92v0c-.18-.27-.35-.56-.54-.85l-2-3.1c-1.17-1.76-2.3-3.5-3.4-5.24s-2.24-3.48-3.41-5.24c-.45-.68-.89-1.35-1.32-2s-.87-1.3-1.31-2a3,3,0,0,1-.52-1,.52.52,0,0,1,0-.52.37.37,0,0,1,.29-.31,2.7,2.7,0,0,0,.49-.15.3.3,0,0,1,.12,0,.17.17,0,0,0,.14,0Zm20.48,8.57A141,141,0,0,1,158,25.11c0,.09.08,4,.08,4.67v6.87c0,.31,0,.65,0,1s0,.75,0,1.11.06.71.11,1a1.23,1.23,0,0,0,.28.7,1,1,0,0,0,.88.36h1.24a3.91,3.91,0,0,1,.49,0,1.29,1.29,0,0,0,.44,0,1.14,1.14,0,0,1,.36,0,.41.41,0,0,0,.31-.07,1.48,1.48,0,0,0,.72-1.19v-.88a2.54,2.54,0,0,0,.05-.88c0-.31-.05-.6-.05-.87V26.72a2.19,2.19,0,0,1,.1-.7,5.25,5.25,0,0,1,.59-1.21c.23-.33.46-.68.7-1.06l1.08-1.68,1.09-1.63c1.13-1.82,2.27-3.62,3.4-5.41s2.31-3.56,3.51-5.32c.17-.27.33-.53.47-.77s.29-.48.46-.72.54-.77.78-1.16.5-.8.77-1.22a3.12,3.12,0,0,0,.34-.69A.59.59,0,0,0,176,4.4a1.08,1.08,0,0,0-.67-.23c-.27,0-.55,0-.82,0H172.8a2.12,2.12,0,0,0-1.32.36,2.74,2.74,0,0,0-.51.57c-.14.21-.28.43-.42.67-.27.41-.54.83-.8,1.26s-.52.87-.79,1.32C168,9.76,167.12,11.23,166.22,12.71Z"/><path class="cls-1" d="M156.76,40.06a.4.4,0,0,1-.4-.4V26.47L143.43,6.67a.39.39,0,0,1,.12-.55.38.38,0,0,1,.54.12l13,19.9a.39.39,0,0,1,.06.21V39.66A.4.4,0,0,1,156.76,40.06Z"/><polygon class="cls-1" points="194.31 7.31 194.31 2.93 190.25 2.93 190.25 7.31 187.29 7.31 187.29 11.6 190.25 11.6 190.25 25.08 187.29 25.08 187.29 29.16 190.25 29.16 190.25 42.07 190.62 42.07 194.31 38.45 194.31 11.6 195.08 11.6 196.28 7.31 194.31 7.31"/><path class="cls-1" d="M221.67,2.93H199V6.24h2.67v16.7h17.07V6.24h2.94Zm-6.82,16.14h-3.13V10.39h-2.79v8.68h-3.4V6.24h9.32Z"/><path class="cls-1" d="M180.28,25.64H173l3.8-6.94Zm-5.38-1.12h3.57l-1.7-3.41Z"/><polygon class="cls-1" points="202.38 42.07 209.07 29.7 213.92 29.7 207.23 42.07 211.37 42.07 219.84 26.41 219.81 26.39 206.41 26.39 197.94 42.07 202.38 42.07"/><polygon class="cls-1" points="217.33 35.52 213.74 42.07 220.61 42.07 217.33 35.52"/><polygon class="cls-1" points="201.25 31.69 204.16 26.39 198.6 26.39 201.25 31.69"/><polygon class="cls-1" points="222.72 42.06 219.04 34.82 218.35 35.21 221.84 42.06 222.72 42.06"/><path class="cls-1" d="M88.13,4.42a.71.71,0,0,1-.7-.7V1.4H79.84a.7.7,0,0,1,0-1.4h8.29a.7.7,0,0,1,.7.7v3A.7.7,0,0,1,88.13,4.42Z"/></g></g></svg>