<svg xmlns="http://www.w3.org/2000/svg" viewBox="0 0 213.11 149.97"><defs><style>.cls-1{fill:#221613;fill-rule:evenodd;}.cls-2{fill:#d6007f;}.cls-3{fill:#173993;}.cls-4{opacity:0.9;}.cls-5{fill:#ee91ba;}.cls-6{opacity:0.8;}.cls-7{fill:#c00078;}.cls-8{fill:#fff11d;}.cls-9{fill:#b8cb19;}</style></defs><g id="图层_2" data-name="图层 2"><g id="图层_1-2" data-name="图层 1"><path class="cls-1" d="M199.4,127.15h4.31L202,122l-.92,1.89-1.63,3.3Zm-7.31,7.76h0c.77-1.38,1.69-3.08,2.73-5.1l3-5.66c.93-1.76,1.69-3.27,2.29-4.55,1,0,1.66,0,2.06,0,.72,0,1.41,0,2.09,0l1.6,4.59,3.49,9.48.49,1.24-1.7,0-2,0c-.18-.67-.46-1.56-.85-2.68s-.71-2-1-2.76h-5.9c-.87,1.78-1.73,3.6-2.56,5.44l-1.83,0-1.93,0Zm-12.77,0h0c.22-2.22.39-4.79.5-7.68s.17-5.44.17-7.63c.89,0,1.64,0,2.25,0s1.29,0,1.91,0,1.29,0,2,0a14.92,14.92,0,0,1,2.34.16,4.24,4.24,0,0,1,1.81.66,3.64,3.64,0,0,1,1.2,1.28,4,4,0,0,1,.38,1.75,4.7,4.7,0,0,1-.16,1.2,3.61,3.61,0,0,1-.42,1.06,3.75,3.75,0,0,1-.68.88,3.79,3.79,0,0,1-.78.6,4.75,4.75,0,0,1-.88.37c-.33.11-.77.23-1.32.38l.76,1.49c.24.47.71,1.31,1.4,2.53l1.13,2c.07.09.25.43.55,1l-1.82,0-1.89,0-1.25-3c-.2-.46-.47-1-.78-1.63l-1.36-2.72c-.14-.26-.33-.64-.56-1.14a8.76,8.76,0,0,0,1.38.13,4.74,4.74,0,0,0,1.75-.32,2.53,2.53,0,0,0,1.23-1,2.73,2.73,0,0,0,.43-1.44,2.13,2.13,0,0,0-.19-.87,1.71,1.71,0,0,0-.63-.69,2.61,2.61,0,0,0-1-.35,10.13,10.13,0,0,0-1.22-.08h-.92l-1.43,0-.21,4.61-.2,8.4-1.76,0-1.68,0ZM162.41,119.6h0c.87,0,1.46,0,1.76,0s1,0,1.71,0l-.53,9.06V129a4.76,4.76,0,0,0,.43,2.28,2.52,2.52,0,0,0,1.27,1.11,4.86,4.86,0,0,0,1.91.34,5,5,0,0,0,1.29-.16,3.6,3.6,0,0,0,.92-.36,3.56,3.56,0,0,0,.6-.47,3.37,3.37,0,0,0,.51-.76,3.25,3.25,0,0,0,.31-.94,25.57,25.57,0,0,0,.27-2.77l.23-3.9c.06-1.14.1-2.39.12-3.76.86,0,1.48,0,1.89,0l1.65,0-.36,5.41-.22,4.29a13,13,0,0,1-.31,2.25,4.21,4.21,0,0,1-.52,1.14,3.52,3.52,0,0,1-.74.84,6.08,6.08,0,0,1-1.31.82,7.21,7.21,0,0,1-1.79.58,13.77,13.77,0,0,1-2.68.25,13,13,0,0,1-2.64-.25,7.12,7.12,0,0,1-1.94-.71,5.1,5.1,0,0,1-1.4-1,3.49,3.49,0,0,1-.65-1.19,4.81,4.81,0,0,1-.29-1.74c0-.23,0-.52,0-.87s.05-.81.08-1.37l.11-1.6c0-.48.08-1.2.12-2.16l.1-2.44c0-.66.06-1.4.08-2.21Zm-12.23,7.21h0l1.12,1.56,3.06,4.36c.34.49.58.84.71,1.06l.72,1.12,2.19,0,2,0-3.26-4.23-2.22-2.92-.71-1,.87-1.09,5.17-6.07-1.93,0-2,0c-.39.54-.67.92-.85,1.14l-2.31,2.94-2.54,3.13Zm-4.08,8.1h0c.13-1.47.22-2.73.29-3.79.08-1.52.18-3.66.29-6.44.08-1.89.11-3.24.11-4v-1l1.84,0,1.73,0-.35,6.06-.3,7.25,0,2-1.73,0-1.84,0Zm-12.3-7.76h4.3L136.34,122l-.9,1.89-1.64,3.3Zm-7.3,7.76h0c.77-1.38,1.67-3.08,2.73-5.1l2.94-5.66c.92-1.76,1.69-3.27,2.29-4.55,1,0,1.66,0,2.07,0,.7,0,1.4,0,2.09,0l1.59,4.59,3.49,9.48.49,1.24-1.69,0-2,0c-.17-.67-.46-1.56-.85-2.68s-.71-2-1-2.76h-5.9c-.87,1.78-1.73,3.6-2.56,5.44l-1.82,0-1.93,0Zm-10.44-.32h0c-.06-1.14-.14-2.06-.23-2.79a9.67,9.67,0,0,0,4,1,4,4,0,0,0,1.34-.22,1.7,1.7,0,0,0,.91-.62,1.43,1.43,0,0,0,.3-.89,1.51,1.51,0,0,0-.14-.68,3.25,3.25,0,0,0-.71-.86c-.44-.41-1.19-1.09-2.29-2-.53-.46-.88-.79-1.08-1a7.58,7.58,0,0,1-1-1.14,4,4,0,0,1-.53-1,3.71,3.71,0,0,1,.44-3,3.93,3.93,0,0,1,1.76-1.45,7.28,7.28,0,0,1,3-.51,18.94,18.94,0,0,1,3.6.39c.05.78.12,1.67.23,2.67a8.94,8.94,0,0,0-3.23-.67,3,3,0,0,0-1.79.49,1.44,1.44,0,0,0-.71,1.16,1.85,1.85,0,0,0,.06.39,1.78,1.78,0,0,0,.14.38,3.21,3.21,0,0,0,.34.47,6.77,6.77,0,0,0,.75.7c.32.27.59.47.81.64l1.4,1.26c.34.29.65.58.93.85a7.21,7.21,0,0,1,.72.8,4,4,0,0,1,.45.72,2.61,2.61,0,0,1,.26.72,2.73,2.73,0,0,1,.09.76,3.76,3.76,0,0,1-.44,1.79,3.57,3.57,0,0,1-1.26,1.36,5,5,0,0,1-1.79.75,9.88,9.88,0,0,1-2.07.21,10.76,10.76,0,0,1-1.67-.13c-.63-.08-1.46-.24-2.51-.46Zm-18.87.32h0c.1-.83.18-1.91.28-3.25s.14-2.4.17-3.19l-5-8.87c.85,0,1.5,0,2,0s1,0,1.79,0c.34.78.83,1.76,1.46,3s1.2,2.28,1.67,3.28l3.34-5.38c.1-.2.27-.48.49-.86.71,0,1.36,0,1.92,0l1.81,0-6.13,9.1-.13,2.84c0,.84-.08,2-.1,3.37l-1.75,0-1.76,0Zm-17.91,0h0c.23-2.22.4-4.79.51-7.68s.17-5.44.17-7.63c.89,0,1.65,0,2.24,0s1.3,0,1.91,0,1.29,0,2,0a14.87,14.87,0,0,1,2.33.16,4.28,4.28,0,0,1,1.82.66,3.61,3.61,0,0,1,1.19,1.28,3.89,3.89,0,0,1,.38,1.75,5.19,5.19,0,0,1-.15,1.2,3.38,3.38,0,0,1-.43,1.06,3.75,3.75,0,0,1-.68.88,4.08,4.08,0,0,1-.78.6,5,5,0,0,1-.87.37c-.33.11-.76.23-1.33.38l.76,1.49c.25.47.72,1.31,1.41,2.53l1.12,2a9.42,9.42,0,0,1,.55,1l-1.81,0-1.89,0-1.24-3-.79-1.63-1.36-2.72c-.13-.26-.31-.64-.57-1.14a8.87,8.87,0,0,0,1.38.13,4.88,4.88,0,0,0,1.77-.32,2.48,2.48,0,0,0,1.21-1,2.63,2.63,0,0,0,.42-1.44,2.12,2.12,0,0,0-.18-.87,1.76,1.76,0,0,0-.62-.69,2.72,2.72,0,0,0-1-.35,9.87,9.87,0,0,0-1.22-.08h-.91l-1.43,0-.22,4.61-.2,8.4-1.75,0-1.69,0ZM62.38,119.6h0c.86,0,1.45,0,1.76,0s1,0,1.7,0l-.53,9.06V129a4.63,4.63,0,0,0,.44,2.28A2.46,2.46,0,0,0,67,132.38a5.46,5.46,0,0,0,3.21.18,3.92,3.92,0,0,0,.92-.36,3.13,3.13,0,0,0,.59-.47,3.37,3.37,0,0,0,.51-.76,3.58,3.58,0,0,0,.32-.94,25.57,25.57,0,0,0,.27-2.77l.23-3.9c0-1.14.1-2.39.12-3.76.85,0,1.48,0,1.89,0l1.63,0L76.36,125l-.23,4.29a11.27,11.27,0,0,1-.31,2.25,4.19,4.19,0,0,1-.51,1.14,3.56,3.56,0,0,1-.75.84,6.08,6.08,0,0,1-1.31.82,7.42,7.42,0,0,1-1.78.58,14,14,0,0,1-2.69.25,13,13,0,0,1-2.64-.25,7.12,7.12,0,0,1-1.94-.71,5.1,5.1,0,0,1-1.4-1,4.09,4.09,0,0,1-.66-1.19,5,5,0,0,1-.28-1.74q0-.34,0-.87c0-.37,0-.81.08-1.37l.09-1.6c0-.48.08-1.2.13-2.16l.11-2.44c0-.66.05-1.4.08-2.21ZM51.5,134.91h0l.25-3.28.24-4.87.17-4.8H50.63l-.69,0-2.59.08c.06-1.09.1-1.9.11-2.46,2.15,0,4.41,0,6.76,0h4l2.16,0c-.07,1.06-.11,1.88-.11,2.46-1.36-.07-2.66-.1-3.89-.1h-.87L55.39,124l-.32,7.87,0,1.33c0,.55,0,1.11,0,1.7l-1.71,0-1.83,0Zm-21.61,0h0c.14-1.34.25-2.83.32-4.51l.26-5.48c.09-2,.14-3.77.14-5.32.86,0,1.6,0,2.21,0,.44,0,1.09,0,2,0,.84,1.47,2,3.4,3.5,5.77s2.68,4.34,3.6,5.88l.41-10.41c0-.23,0-.65,0-1.24.71,0,1.22,0,1.58,0l1.57,0-.27,4.12-.35,7.05-.14,4.14-2,0-2.12,0c-.36-.67-.65-1.15-.84-1.47-.31-.5-1-1.52-2-3.06-.66-1-1.49-2.32-2.47-3.91-.73-1.17-1.35-2.17-1.87-3-.05,1.2-.15,3.45-.27,6.74,0,1.34-.1,2.92-.13,4.74l-1.53,0-1.64,0Zm-14.34,0h0l.33-4.29.23-5,.15-4.52V119.6c1.85,0,3.77,0,5.78,0h2.15l3.24,0L27.3,122,26.23,122l-1.21,0H21.17l-1.53,0-.18,4q1.51,0,3.09,0c.72,0,1.93,0,3.64-.06-.07.67-.11,1.5-.16,2.45l-3.44,0c-.87,0-2,0-3.29.07l-.17,4.2h1.23l2.46,0,2.43-.05,1.63-.07c-.08.87-.12,1.68-.15,2.45l-5.27,0-3.69,0Zm-2.64-2.8h0c-.17.87-.31,1.76-.44,2.67-.85.15-1.63.25-2.34.31s-1.31.09-1.82.09a10.79,10.79,0,0,1-3.23-.48,7.83,7.83,0,0,1-2.76-1.47,5.89,5.89,0,0,1-1.77-2.46A9.1,9.1,0,0,1,0,127.6a8.91,8.91,0,0,1,.66-3.45,7.32,7.32,0,0,1,1.9-2.67,7.92,7.92,0,0,1,2.94-1.61A11.57,11.57,0,0,1,9,119.34a20.91,20.91,0,0,1,4,.41c0,.66.05,1.14.07,1.41l.07,1.2A19.42,19.42,0,0,0,11,121.9a11.4,11.4,0,0,0-1.6-.12,7.1,7.1,0,0,0-2.3.37,5.18,5.18,0,0,0-2,1.15,5.48,5.48,0,0,0-1.3,1.94,6.35,6.35,0,0,0-.45,2.33A6,6,0,0,0,4,130.19a4.34,4.34,0,0,0,1.81,1.87,6,6,0,0,0,3.06.72A15.64,15.64,0,0,0,12.91,132.11Z"/><path class="cls-1" d="M210.78,121.61a2.07,2.07,0,0,0,2-2.35,2.11,2.11,0,0,0-4.19.29,2.15,2.15,0,0,0,2.19,2.06Zm-.35-4.47h0a2.34,2.34,0,0,1,2.66,2.62,2.41,2.41,0,0,1-2.59,2.17,2.53,2.53,0,0,1-2.07-1.48A2.41,2.41,0,0,1,210.43,117.14Z"/><path class="cls-1" d="M210.24,119.38c1.37.37,1.37-1.36,0-1v1Zm1.54,1.69h-.43c-.21-.45-.44-.88-.64-1.34h-.47v1.34h-.4V118c.65,0,1.51-.09,1.77.41s.06,1.22-.49,1.28C211.32,120.15,211.58,120.59,211.78,121.07Z"/><path class="cls-2" d="M31,143.58h0l-1.45.86c-.09.05-.14,0-.14-.07v-.8a.17.17,0,0,1,.09-.15l1.5-.92a.35.35,0,0,1,.21-.07H32c.09,0,.13,0,.13.11v7.15c0,.07,0,.11-.13.11h-.82c-.09,0-.13,0-.13-.11Z"/><path class="cls-2" d="M34.56,148.25l.76-.17a.15.15,0,0,1,.17.09,1.32,1.32,0,0,0,1.43.9,1.22,1.22,0,0,0,1.28-.73,2.39,2.39,0,0,0,.12-.92,2.42,2.42,0,0,0-.13-.93,1.22,1.22,0,0,0-1.27-.71,1.32,1.32,0,0,0-1.29.68.16.16,0,0,1-.15.11h-.76c-.09,0-.13,0-.13-.11v-3.92c0-.08,0-.11.13-.11h4.4c.09,0,.13,0,.13.11v.63c0,.07,0,.11-.13.11H35.67c-.05,0-.08,0-.08.06v2.07h0a1.92,1.92,0,0,1,1.44-.48,2.13,2.13,0,0,1,2.16,1.22,3.6,3.6,0,0,1,.2,1.27,3.51,3.51,0,0,1-.18,1.19,2.32,2.32,0,0,1-2.33,1.3c-1.34,0-2.29-.62-2.46-1.53C34.45,148.3,34.47,148.26,34.56,148.25Z"/><path class="cls-2" d="M45.16,149.8c-.09,0-.12,0-.12-.11V143.4c0-.05,0-.07-.08-.07H42.57c-.09,0-.13,0-.13-.11v-.68c0-.08,0-.11.13-.11h6.08c.09,0,.13,0,.13.11v.68c0,.08,0,.11-.13.11H46.26s-.08,0-.08.07v6.29c0,.07,0,.11-.13.11Z"/><path class="cls-2" d="M53.69,142.54c0-.08,0-.11.12-.11h.89c.09,0,.13,0,.13.11v3c0,.05,0,.07.08.07H58.7c.06,0,.08,0,.08-.07v-3c0-.08,0-.11.13-.11h.89c.09,0,.13,0,.13.11v7.15c0,.07,0,.11-.13.11h-.89c-.09,0-.13,0-.13-.11v-3.1s0-.06-.08-.06H54.91s-.08,0-.08.06v3.1c0,.07,0,.11-.13.11h-.89c-.09,0-.12,0-.12-.11Z"/><path class="cls-3" d="M73,142.6a.15.15,0,0,1,.15-.11H74a.16.16,0,0,1,.17.11l3,7.15c0,.07,0,.1-.09.1h-.9c-.09,0-.15,0-.17-.1l-.67-1.61H71.83l-.67,1.61a.18.18,0,0,1-.17.1h-.9c-.09,0-.11,0-.09-.1Zm-.84,4.66H75l-1.38-3.35h0Z"/><path class="cls-3" d="M81.17,142.6c0-.08,0-.11.13-.11h.82a.22.22,0,0,1,.22.11l4,5.52h0V142.6c0-.08,0-.11.13-.11h.81c.09,0,.13,0,.13.11v7.15c0,.07,0,.1-.13.1h-.82a.24.24,0,0,1-.22-.1l-4-5.5h0v5.5c0,.07,0,.1-.12.1H81.3c-.09,0-.13,0-.13-.1Z"/><path class="cls-3" d="M91.86,142.6c0-.08,0-.11.13-.11h.82a.21.21,0,0,1,.22.11l4,5.52h0V142.6c0-.08,0-.11.13-.11H98c.09,0,.13,0,.13.11v7.15c0,.07,0,.1-.13.1h-.83a.24.24,0,0,1-.22-.1l-4-5.5h0v5.5c0,.07,0,.1-.13.1H92c-.09,0-.13,0-.13-.1Z"/><path class="cls-3" d="M105.11,142.6c0-.08,0-.11.13-.11h.89c.09,0,.13,0,.13.11v7.15c0,.07,0,.1-.13.1h-.89c-.09,0-.13,0-.13-.1Z"/><path class="cls-3" d="M116,149.85a.15.15,0,0,1-.15-.1L113,142.62c0-.09,0-.13.09-.13H114c.09,0,.16,0,.18.11l2.24,5.68h0l2.16-5.68a.16.16,0,0,1,.17-.11h.89c.09,0,.12,0,.09.13l-2.82,7.13a.15.15,0,0,1-.16.1Z"/><path class="cls-3" d="M124.31,142.6c0-.08,0-.11.13-.11h5.26c.09,0,.13,0,.13.11v.68c0,.08,0,.11-.13.11h-4.17s-.07,0-.07.07v2.16a.06.06,0,0,0,.07.07h3.54c.09,0,.13,0,.13.1v.69c0,.07,0,.1-.13.1h-3.54a.06.06,0,0,0-.07.07v2.24a.06.06,0,0,0,.07.07h4.17c.09,0,.13,0,.13.1v.69c0,.07,0,.1-.13.1h-5.26c-.09,0-.13,0-.13-.1Z"/><path class="cls-3" d="M139.74,149.85a.18.18,0,0,1-.17-.1l-1.75-3h-1.93s-.08,0-.08.06v2.95c0,.07,0,.1-.13.1h-.89c-.09,0-.13,0-.13-.1V142.6c0-.08,0-.11.13-.11H138a3.15,3.15,0,0,1,2,.59,1.85,1.85,0,0,1,.76,1.53,2.09,2.09,0,0,1-1.72,2l1.86,3.11c0,.05,0,.12-.07.12Zm-1.81-4c1,0,1.63-.46,1.63-1.23s-.61-1.22-1.63-1.22h-2s-.08,0-.08.07v2.31s0,.07.08.07Z"/><path class="cls-3" d="M145.35,149.05a.1.1,0,0,1,0-.16l.56-.56a.12.12,0,0,1,.18,0,4.28,4.28,0,0,0,2.45.75c1.2,0,1.93-.5,1.93-1.25s-.49-1.06-1.83-1.2l-.44-.06c-1.71-.19-2.57-.87-2.57-2a1.88,1.88,0,0,1,.77-1.57,3.45,3.45,0,0,1,2.09-.59,5,5,0,0,1,2.66.68c.07,0,.08.1,0,.16l-.44.59a.13.13,0,0,1-.18,0,4.67,4.67,0,0,0-2.11-.55c-1,0-1.66.47-1.66,1.19s.54,1,1.84,1.18l.42.06c1.72.19,2.58.87,2.58,2.05,0,1.34-1.15,2.22-3.19,2.22A5.41,5.41,0,0,1,145.35,149.05Z"/><path class="cls-3" d="M158.59,142.6a.15.15,0,0,1,.16-.11h.83c.09,0,.15,0,.17.11l3,7.15c0,.07,0,.1-.09.1h-.9a.16.16,0,0,1-.17-.1l-.67-1.61h-3.54l-.67,1.61a.16.16,0,0,1-.16.1h-.9c-.09,0-.12,0-.09-.1Zm-.83,4.66h2.79l-1.38-3.35h0Z"/><path class="cls-3" d="M171.82,149.85a.18.18,0,0,1-.17-.1l-1.75-3H168c-.05,0-.08,0-.08.06v2.95c0,.07,0,.1-.13.1h-.88c-.09,0-.13,0-.13-.1V142.6c0-.08,0-.11.13-.11H170a3.15,3.15,0,0,1,2,.59,1.82,1.82,0,0,1,.76,1.53,2.08,2.08,0,0,1-1.72,2l1.87,3.11c0,.05,0,.12-.08.12Zm-1.8-4c1,0,1.62-.46,1.62-1.23s-.61-1.22-1.62-1.22H168c-.05,0-.08,0-.08.07v2.31s0,.07.08.07Z"/><path class="cls-3" d="M180.11,149.85c-.1,0-.13,0-.13-.1v-2.91l-2.59-4.23c0-.08,0-.12.1-.12h.92a.22.22,0,0,1,.19.11l2,3.15h0l1.94-3.15a.17.17,0,0,1,.18-.11h.89c.11,0,.14,0,.11.12l-2.59,4.23v2.91c0,.07,0,.1-.13.1Z"/><path class="cls-2" d="M63.39,88.91V99.75h5.45V88.91Z"/><g class="cls-4"><rect class="cls-5" x="60.07" y="16.03" width="7.61" height="14.83"/></g><g class="cls-6"><rect class="cls-7" x="56.01" y="30.86" width="4.06" height="47.21"/></g><rect class="cls-2" x="63.39" y="88.91" width="5.45" height="10.84"/><rect class="cls-8" x="30.45" y="77.32" width="12.83" height="10.84"/><path class="cls-2" d="M165.82,95.75v-4.7h-1.5v-2.2h1.5V86h2.79v2.85h2.61v2.2h-2.61v4.7c0,1.21.49,1.78,1.44,1.78a3,3,0,0,0,1-.23l.45,2a6.75,6.75,0,0,1-2.23.4C166.79,99.73,165.82,98.14,165.82,95.75Z"/><path class="cls-2" d="M173.38,84.34H176v5.8a4.8,4.8,0,0,1,3.33-1.56c2.3,0,3.28,1.59,3.28,4.27v6.61h-2.78V93.19c0-1.63-.46-2.22-1.5-2.22a3.08,3.08,0,0,0-2.22,1.19v7.3h-2.77Z"/><polygon class="cls-2" points="45.17 0 45.17 30.86 60.07 30.86 60.07 16.03 67.67 16.03 67.67 30.86 60.07 30.86 60.07 78.07 68.84 78.07 68.84 88.91 77.58 88.91 77.58 99.75 88.41 99.75 88.41 0 45.17 0"/><rect class="cls-2" x="70.21" y="64.76" width="11.79" height="10.84"/><polygon class="cls-2" points="88.42 88.91 88.42 99.77 77.58 99.77 77.58 99.75 88.41 99.75 88.41 88.91 88.42 88.91"/><rect class="cls-2" x="63.39" y="88.91" width="5.45" height="10.84"/><rect class="cls-9" x="47.65" y="95.03" width="8.74" height="10.84"/><rect class="cls-5" x="43.29" y="62.38" width="6.03" height="6.03"/><path class="cls-3" d="M159.16,23.6h7.7V0H103.18V55.91h26.43v8.53h7.7V71.7h-7.7V64.44H103.18V93h6.39v6.73l32.06,0a35.88,35.88,0,0,0-1.34-68.91h18.87Z"/></g></g></svg>