<svg xmlns="http://www.w3.org/2000/svg" viewBox="0 0 153.16 74.54"><defs><style>.cls-1{fill:#231815;}</style></defs><g id="图层_2" data-name="图层 2"><g id="图层_1-2" data-name="图层 1"><polygon class="cls-1" points="10.84 39.23 10.84 41.4 6.5 41.4 6.5 55.48 4.34 55.48 4.34 41.4 0 41.4 0 39.23 10.84 39.23 10.84 39.23"/><path class="cls-1" d="M25,51.61a6,6,0,0,0-4.25-10.22,6,6,0,1,0,0,11.93A5.78,5.78,0,0,0,25,51.61Zm1.55-10a8.13,8.13,0,0,1-5.8,13.92,8.13,8.13,0,1,1,0-16.25,7.87,7.87,0,0,1,5.8,2.33Z"/><polygon class="cls-1" points="43.98 39.23 43.98 55.48 41.69 55.48 33.14 42.85 33.14 55.48 30.98 55.48 30.98 39.23 33.31 39.23 41.81 51.77 41.81 39.23 43.98 39.23 43.98 39.23"/><polygon class="cls-1" points="60.86 39.19 54.54 47.7 54.54 55.48 52.38 55.48 52.38 47.65 46.11 39.21 48.81 39.22 53.47 45.5 58.14 39.22 60.86 39.19 60.86 39.19"/><polygon class="cls-1" points="69.6 41.4 69.6 46.28 74.47 46.28 74.47 48.45 69.6 48.45 69.6 55.49 67.42 55.49 67.42 39.23 76.65 39.23 76.65 41.4 69.6 41.4 69.6 41.4"/><polygon class="cls-1" points="89.48 53.32 89.48 55.48 79.19 55.48 79.19 39.23 81.35 39.23 81.35 53.32 89.48 53.32 89.48 53.32"/><path class="cls-1" d="M102.36,51.61a6.16,6.16,0,1,0-4.25,1.71,5.75,5.75,0,0,0,4.25-1.71Zm1.55-10a8.4,8.4,0,1,1-5.8-2.33,7.87,7.87,0,0,1,5.8,2.33Z"/><polygon class="cls-1" points="128.27 39.23 123.39 55.48 121.05 55.48 118.42 49.22 115.67 55.49 113.3 55.48 113.31 55.48 113.27 55.48 108.36 39.23 110.63 39.23 114.6 52.39 117.17 46.27 119.41 46.27 122.03 52.37 126 39.23 128.27 39.23 128.27 39.23"/><polygon class="cls-1" points="139.61 39.23 139.61 41.4 132.57 41.4 132.57 46.28 137.44 46.28 137.44 48.45 132.57 48.45 132.57 53.33 139.61 53.33 139.61 55.49 130.39 55.49 130.39 39.23 139.61 39.23 139.61 39.23"/><path class="cls-1" d="M147.7,46.82a3.61,3.61,0,0,0,2.22-.7,2.42,2.42,0,0,0,1-2,2.37,2.37,0,0,0-1.05-2,3.58,3.58,0,0,0-2.21-.71h-3.8v5.43Zm5.46,8.66h-2.5L147.2,49h-3.3v6.5h-2.16V39.23h6a5.67,5.67,0,0,1,3.77,1.31,4.58,4.58,0,0,1,.6,6.44,5.29,5.29,0,0,1-2.57,1.72l3.66,6.78Z"/><polygon class="cls-1" points="31.81 74.38 31.81 67.7 36.32 67.7 36.32 68.49 32.7 68.49 32.7 70.56 35.84 70.56 35.84 71.34 32.7 71.34 32.7 74.38 31.81 74.38 31.81 74.38"/><polygon class="cls-1" points="39.25 67.7 40.06 67.7 40.06 74.38 39.25 74.38 39.25 67.7 39.25 67.7"/><path class="cls-1" d="M45.17,70.11a1.24,1.24,0,0,0-1.05.49,2.62,2.62,0,0,0,0,2.72,1.24,1.24,0,0,0,1.05.49,1.21,1.21,0,0,0,1-.5,2.18,2.18,0,0,0,.38-1.38,2.1,2.1,0,0,0-.38-1.33,1.26,1.26,0,0,0-1-.49Zm0,4.39a2.21,2.21,0,0,1-1.62-.64A2.54,2.54,0,0,1,42.9,72a2.5,2.5,0,0,1,.66-1.91,2.29,2.29,0,0,1,1.61-.61,2.14,2.14,0,0,1,1.64.66,2.5,2.5,0,0,1,.62,1.79,2.57,2.57,0,0,1-.68,2,2.27,2.27,0,0,1-1.58.61Z"/><path class="cls-1" d="M51.15,74.38l-1.48-4.83h.85l1,3.83h0a7.12,7.12,0,0,1,.24-1l.76-2.83h.85l1,3.72h0l1.09-3.72h.8L54.8,74.38h-.86l-.77-2.9c-.12-.53-.18-.81-.18-.82h0l-1,3.72Z"/><path class="cls-1" d="M59.48,71.5h2.71a1.37,1.37,0,0,0-.44-1,1.28,1.28,0,0,0-.9-.35,1.29,1.29,0,0,0-.93.37,1.57,1.57,0,0,0-.44,1Zm2.69,1.32.85.11A2,2,0,0,1,60.9,74.5a2.22,2.22,0,0,1-1.7-.67A2.58,2.58,0,0,1,58.59,72a2.74,2.74,0,0,1,.61-1.87,2.1,2.1,0,0,1,1.65-.69,2,2,0,0,1,1.61.68,2.68,2.68,0,0,1,.6,1.84v.21H59.43a1.9,1.9,0,0,0,.45,1.21,1.3,1.3,0,0,0,1,.43,1.27,1.27,0,0,0,1.27-1Z"/><path class="cls-1" d="M65.89,74.38V69.55h.74v.73h0a1.88,1.88,0,0,1,.45-.64.82.82,0,0,1,.57-.2,1.58,1.58,0,0,1,.85.26l-.29.75a1.12,1.12,0,0,0-.6-.17.75.75,0,0,0-.69.4,2.31,2.31,0,0,0-.24,1.16v2.54Z"/><path class="cls-1" d="M70.55,72.94l.81-.13a1.1,1.1,0,0,0,1.25,1,1.39,1.39,0,0,0,.81-.21.67.67,0,0,0,.3-.56.48.48,0,0,0-.18-.4,3.15,3.15,0,0,0-.92-.32A7.63,7.63,0,0,1,71.48,72a1.34,1.34,0,0,1-.59-.47,1.12,1.12,0,0,1-.21-.68,1.21,1.21,0,0,1,.49-1,2.08,2.08,0,0,1,1.29-.38q1.77,0,1.92,1.35l-.8.11c-.07-.53-.43-.79-1.06-.79a1.5,1.5,0,0,0-.77.16.51.51,0,0,0-.28.46.42.42,0,0,0,.2.4,4.51,4.51,0,0,0,1.06.34,6.54,6.54,0,0,1,1.2.41,1.14,1.14,0,0,1,.48.44,1.22,1.22,0,0,1,.16.64,1.33,1.33,0,0,1-.54,1.1,2.22,2.22,0,0,1-1.41.44,1.81,1.81,0,0,1-2.07-1.56Z"/><path class="cls-1" d="M79.2,69.69l.36.43a2.25,2.25,0,0,0,.64-.49.84.84,0,0,0,.21-.6.78.78,0,0,0-.22-.55.72.72,0,0,0-.54-.22.74.74,0,0,0-.55.22.68.68,0,0,0-.23.52,1.14,1.14,0,0,0,.33.69ZM80.71,73l-1.5-1.87c-.75.44-1.13.92-1.13,1.41a1.2,1.2,0,0,0,.38.89,1.15,1.15,0,0,0,.86.39,1.52,1.52,0,0,0,.76-.23,1.87,1.87,0,0,0,.63-.59Zm2.1.94-.56.65a5.08,5.08,0,0,1-1-.94,2.47,2.47,0,0,1-1.92.9,2.11,2.11,0,0,1-1.5-.57,1.84,1.84,0,0,1-.62-1.4c0-.81.53-1.48,1.59-2A2.45,2.45,0,0,1,78,69.08,1.36,1.36,0,0,1,78.52,68a1.7,1.7,0,0,1,1.18-.43,1.56,1.56,0,0,1,1.1.41,1.31,1.31,0,0,1,.44,1c0,.63-.42,1.18-1.26,1.62l1.21,1.53a4.58,4.58,0,0,0,.32-.93l.85.18a4.73,4.73,0,0,1-.6,1.44,4.88,4.88,0,0,0,1,1Z"/><path class="cls-1" d="M90.38,72l.89.22a3.06,3.06,0,0,1-1,1.66,2.66,2.66,0,0,1-1.75.58,2.75,2.75,0,0,1-2.41-1A4.06,4.06,0,0,1,85.36,71a3.53,3.53,0,0,1,.86-2.48,3,3,0,0,1,2.3-.93,2.71,2.71,0,0,1,1.67.5,2.56,2.56,0,0,1,1,1.45l-.86.2a1.77,1.77,0,0,0-1.8-1.39,2,2,0,0,0-1.63.69A3,3,0,0,0,86.27,71a3.22,3.22,0,0,0,.57,2,1.91,1.91,0,0,0,1.59.72A1.88,1.88,0,0,0,90.38,72Z"/><path class="cls-1" d="M96.08,70.11a1.23,1.23,0,0,0-1,.49,2.57,2.57,0,0,0,0,2.72,1.23,1.23,0,0,0,1,.49,1.24,1.24,0,0,0,1-.5,2.24,2.24,0,0,0,.38-1.38,2.1,2.1,0,0,0-.39-1.33,1.23,1.23,0,0,0-1-.49Zm0,4.39a2.19,2.19,0,0,1-1.61-.64,3.06,3.06,0,0,1,0-3.81,2.27,2.27,0,0,1,1.6-.61,2.15,2.15,0,0,1,1.65.66,3.09,3.09,0,0,1-.06,3.79,2.31,2.31,0,0,1-1.59.61Z"/><path class="cls-1" d="M101.34,74.38v-4.2h-.73v-.63h.73V69a2.25,2.25,0,0,1,.1-.76.89.89,0,0,1,.41-.48,1.55,1.55,0,0,1,.83-.19,4.91,4.91,0,0,1,.77.08l-.13.72a2.45,2.45,0,0,0-.48,0,.74.74,0,0,0-.54.15.88.88,0,0,0-.14.59v.46h.94v.63h-.94v4.2Z"/><path class="cls-1" d="M105.8,74.38v-4.2h-.73v-.63h.73V69a2.25,2.25,0,0,1,.1-.76.89.89,0,0,1,.41-.48,1.52,1.52,0,0,1,.83-.19,4.68,4.68,0,0,1,.76.08l-.12.72a2.45,2.45,0,0,0-.48,0,.73.73,0,0,0-.54.15.94.94,0,0,0-.14.59v.46h.94v.63h-.94v4.2Z"/><path class="cls-1" d="M110.71,71.5h2.71a1.43,1.43,0,0,0-.43-1,1.34,1.34,0,0,0-.91-.35,1.29,1.29,0,0,0-.93.37,1.57,1.57,0,0,0-.44,1Zm2.69,1.32.85.11a2,2,0,0,1-2.12,1.57,2.22,2.22,0,0,1-1.7-.67,2.58,2.58,0,0,1-.61-1.83,2.74,2.74,0,0,1,.61-1.87,2.1,2.1,0,0,1,1.65-.69,2,2,0,0,1,1.61.68,2.68,2.68,0,0,1,.59,1.84v.21h-3.62a2,2,0,0,0,.44,1.21,1.34,1.34,0,0,0,1,.43,1.28,1.28,0,0,0,1.27-1Z"/><path class="cls-1" d="M117.76,71.5h2.71a1.36,1.36,0,0,0-.43-1,1.31,1.31,0,0,0-.9-.35,1.3,1.3,0,0,0-.94.37,1.57,1.57,0,0,0-.44,1Zm2.7,1.32.85.11a2,2,0,0,1-2.12,1.57,2.23,2.23,0,0,1-1.71-.67,2.62,2.62,0,0,1-.61-1.83,2.79,2.79,0,0,1,.61-1.87,2.12,2.12,0,0,1,1.66-.69,2,2,0,0,1,1.6.68,2.68,2.68,0,0,1,.6,1.84v.21h-3.61a1.9,1.9,0,0,0,.44,1.21,1.32,1.32,0,0,0,1,.43,1.28,1.28,0,0,0,1.27-1Z"/><path class="cls-1" d="M70.81,5.93c.5,1.42-3.42.92-7.57,0,2.32-3.6,7.15-.94,7.57,0ZM70.3,29.12l.16,2.2,13.35-3.14-3.24-3.42L71.3,28.65c3-1.37,11.27-5.28,14.07-6.82,2.12-1.15,7.33-3.6,8.95-8.94,1.29-.8,2.83-2.55,4.55-6.05a10.76,10.76,0,0,1-4.09,3.48,11.14,11.14,0,0,0-2.31-7.24A9.23,9.23,0,0,0,83.69.16a7.15,7.15,0,0,0-5.32,5.72,19,19,0,0,0-.12,3,14.17,14.17,0,0,1-.58,3.1c-1.66,4.54-6.82,3.6-9.25,3.27-6.62-.89-6.85-4.47-6.3-6.54l0-.12c8.38,3.91,9-1.26,9.1-2.26V6.13C71.26,5.5,69.47,2.52,66,2a5.8,5.8,0,0,0-6.41,3.11c-2.93-.73-5.28-1.43-5.28-1.43,1.68,1.24,3.2,2.26,4.57,3.09-.07.2-.12.4-.17.55a11.76,11.76,0,0,0,.19,5.6,11.17,11.17,0,0,0,5.89,6.57,13.79,13.79,0,0,0,9.78.47c3.9-1.64,4-6.13,3.78-8.64l0-.68a6,6,0,0,1,2-4.05,5,5,0,0,1,5.3-1,6.16,6.16,0,0,1,3.37,2.76A6.13,6.13,0,0,1,89.7,10c-1.65.06-4.38,1.16-7.79,6.29,0,0,4.65-5.23,7.89-4.1A6,6,0,0,1,88.64,15c-3.42,4.66-3.7,3.38-18.24,14l-.11,0v0Z"/></g></g></svg>