<svg xmlns="http://www.w3.org/2000/svg" viewBox="0 0 211.83 57.9"><defs><style>.cls-1{fill:#003c2f;fill-rule:evenodd;}</style></defs><g id="图层_2" data-name="图层 2"><g id="图层_1-2" data-name="图层 1"><path class="cls-1" d="M142,23.8a29.84,29.84,0,0,1-2.09,3.86q-1.39,2.23-3.16,4.74T133.32,37a36.66,36.66,0,0,1-3,3.28c-.87.83-1.43,1.13-1.68.92s-.2-.86.29-2A33.77,33.77,0,0,1,131,35.3q1.36-2.23,3.1-4.7c1.16-1.65,2.28-3.14,3.38-4.49a32.72,32.72,0,0,1,2.94-3.23c.86-.79,1.46-1.11,1.8-.95s.21.8-.25,1.87Zm3.63,3.29a6.31,6.31,0,0,0,.48-3A4.09,4.09,0,0,0,145,22.16a9.58,9.58,0,0,0-2.12-1.71,12.13,12.13,0,0,0-2.49-1.14,4.9,4.9,0,0,0-2.31-.22A8.4,8.4,0,0,0,135,20.67a24.55,24.55,0,0,0-3.34,3.13A36.66,36.66,0,0,0,129.13,27c-3.49,4.39-9.16,11.63-9.36,11.72s-.47.17-.51.13c-.21-.18,0-.92.76-2.25s1.72-3,3-5,2.82-4.26,4.58-6.72,3.63-4.94,5.57-7.43h2.27a2.31,2.31,0,0,0,1.61-.6,10.89,10.89,0,0,0,1.24-1.3,8.54,8.54,0,0,0,.78-1.26c.2-.38,0-.57-.72-.57H136.2L137.72,12a.59.59,0,0,0,0-.82,3.52,3.52,0,0,0-1-.82,10.45,10.45,0,0,0-1.39-.66,3.4,3.4,0,0,0-1.16-.29q-.51,0-1.74,1.17a37.29,37.29,0,0,0-2.88,3.13h-2.21a2.57,2.57,0,0,0-1.61.47,5.66,5.66,0,0,0-1.84,2.59c-.14.45.08.67.67.67h2c-1.6,2.11-3.25,4.36-4.93,6.76s-3.22,4.7-4.61,6.89-2.53,4.13-3.42,5.81a9.84,9.84,0,0,0-1.32,3.42,2,2,0,0,0,.31,1,3.91,3.91,0,0,0,.86,1,6.57,6.57,0,0,0,1.13.76,2.53,2.53,0,0,0,1.17.31,2.48,2.48,0,0,0,1.2-.41,10.81,10.81,0,0,0,1.46-1,13.82,13.82,0,0,0,1.45-1.42c.22-.25,2.92-3.77,5.76-7.46a24,24,0,0,0-1.4,3.57,7.19,7.19,0,0,0-.32,3.29,2.52,2.52,0,0,0,1.07,1.35,13.88,13.88,0,0,0,2.12,1.33,13.52,13.52,0,0,0,2.34,1,8.56,8.56,0,0,0,4.74-1.11,25.1,25.1,0,0,0,3.41-3,40.31,40.31,0,0,0,3.38-4,42.23,42.23,0,0,0,2.85-4.33A25.29,25.29,0,0,0,145.64,27.09Z"/><path class="cls-1" d="M188.42,20.61a3.94,3.94,0,0,0-1-.86,8.89,8.89,0,0,0-1.38-.69,3.44,3.44,0,0,0-1.18-.28c-.37,0-1,.46-1.92,1.39a41,41,0,0,0-3.13,3.69q-1.77,2.31-3.89,5.28t-4.2,6.13l-.25.32a21.65,21.65,0,0,1-2.53,2.49c-.8.66-1.26.92-1.39.8s0-.68.41-1.52,1-1.87,1.8-3.07,1.63-2.48,2.62-3.85,1.95-2.68,2.88-3.92,1.76-2.34,2.49-3.29,1.24-1.57,1.49-1.86a.59.59,0,0,0,0-.82,3.6,3.6,0,0,0-1-.83,8.93,8.93,0,0,0-1.39-.66,3.68,3.68,0,0,0-1.2-.28q-.51,0-1.83,1.32a45.11,45.11,0,0,0-3,3.41c-.55.7-1.12,1.43-1.7,2.19-2.52,2.73-11.75,13.21-11.78,13.18-.17-.18,0-.68.41-1.52s1-1.87,1.8-3.07,1.63-2.48,2.62-3.85,2-2.68,2.88-3.92,1.76-2.34,2.49-3.29,1.24-1.57,1.49-1.86.2-.47,0-.76a4,4,0,0,0-1-.86,7.54,7.54,0,0,0-1.36-.69,3.34,3.34,0,0,0-1.17-.28h-.06q-.76,0-2.91,1.77a57.08,57.08,0,0,0-4.84,4.55C155.86,27,154,29,152.11,31.26s-3.6,4.43-5.12,6.54c1.27-2.06,2.57-4,3.92-5.78s2.61-3.41,3.8-4.84,2.23-2.64,3.15-3.63,1.63-1.72,2.09-2.18c.25-.21.25-.47,0-.76a4.27,4.27,0,0,0-1.07-.86,9.74,9.74,0,0,0-1.46-.69,3.58,3.58,0,0,0-1.2-.28q-.51,0-1.8,1.29t-3,3.35Q149.77,25.48,148,28t-3.26,4.87q-1.49,2.37-2.46,4.3a7.17,7.17,0,0,0-1,2.87,2.38,2.38,0,0,0,.47,1.17,7.84,7.84,0,0,0,1.11,1.33,3.71,3.71,0,0,0,1.23.82.6.6,0,0,0,.85-.28,1.66,1.66,0,0,1,.25-.38q1.08-1.77,2.69-4t3.44-4.52c1.23-1.54,2.48-3,3.77-4.46s2.49-2.72,3.63-3.85q-1.51,2-3,4.23T153,34.29c-.8,1.33-1.45,2.53-2,3.61a6.35,6.35,0,0,0-.76,2.43,1.91,1.91,0,0,0,.32,1,3.86,3.86,0,0,0,.85,1,7.07,7.07,0,0,0,1.14.76,2.5,2.5,0,0,0,1.17.31A2.55,2.55,0,0,0,155,43a10.76,10.76,0,0,0,1.45-1,12.92,12.92,0,0,0,1.45-1.42l5.37-6.17c-.66,1.1-1.27,2.16-1.74,3.1a7.62,7.62,0,0,0-1,2.91,2,2,0,0,0,.32,1,3.86,3.86,0,0,0,.85,1,7.07,7.07,0,0,0,1.14.76,2.5,2.5,0,0,0,1.17.31,3.9,3.9,0,0,0,2-1,23.88,23.88,0,0,0,2.43-2q-1.64,2.53-3,4.9t-2.4,4.3c-.68,1.28-1.21,2.39-1.61,3.32a6,6,0,0,0-.61,2,1.82,1.82,0,0,0,.32.94,4.85,4.85,0,0,0,.82,1,4.74,4.74,0,0,0,1.14.79,2.7,2.7,0,0,0,1.2.32c.34,0,.83-.54,1.49-1.61s1.52-2.5,2.62-4.27,2.46-3.79,4.11-6.07a65.23,65.23,0,0,1,6-7.07c.59-.64.84-1,.76-1.05s-.29,0-.63.13a11.83,11.83,0,0,0-1.11.57c-.4.23-.62.32-.66.28s0-.51.38-1.26.9-1.7,1.58-2.81,1.45-2.35,2.34-3.7,1.78-2.66,2.68-3.92,1.76-2.41,2.56-3.45a19.87,19.87,0,0,1,2-2.3A.48.48,0,0,0,188.42,20.61Z"/><path class="cls-1" d="M192.52,20.89a6.34,6.34,0,0,0,1.74.57c.59.11,1,.06,1.2-.16a21.34,21.34,0,0,0,1.67-1.8c.83-.95,1.68-2,2.56-3.06s1.68-2.12,2.37-3.07a10,10,0,0,0,1.17-1.8,1,1,0,0,0-.44-.85,5.56,5.56,0,0,0-1.26-.86,6.07,6.07,0,0,0-1.59-.53,1.82,1.82,0,0,0-1.26.09,7.34,7.34,0,0,0-1.45,1.42c-.72.83-1.48,1.73-2.28,2.72s-1.57,2-2.3,2.94-1.26,1.69-1.56,2.15a.92.92,0,0,0,.07,1.23A4,4,0,0,0,192.52,20.89Z"/><path class="cls-1" d="M210.94,21.34a9.69,9.69,0,0,0-1.87-1.71,9,9,0,0,0-2.34-1.23,3.27,3.27,0,0,0-2.18-.13,14,14,0,0,0-3.28,1.9,27.69,27.69,0,0,0-3.58,3.12,22.12,22.12,0,0,0-2.78,3.51,4.75,4.75,0,0,0-.91,3.1,2.7,2.7,0,0,0,1.36,1.87,7.6,7.6,0,0,0,3.82.72c.59,0,.91.16.95.48a1.94,1.94,0,0,1-.35,1.16,8.83,8.83,0,0,1-1.2,1.55c-.53.57-1.07,1.13-1.61,1.68s-1.08,1-1.58,1.45l-1.08.89c-.5.46-.77.55-.82.28a2.54,2.54,0,0,1,.35-1.29,13.06,13.06,0,0,1,1.17-2,16.92,16.92,0,0,1,1.51-1.92c.38-.38.43-.73.13-1.05a3.52,3.52,0,0,0-1.29-.79,7,7,0,0,0-1.93-.38,4.47,4.47,0,0,0-1.77.19,4.76,4.76,0,0,0-2.21,2,5.26,5.26,0,0,0-.95,2.78A3.4,3.4,0,0,0,189.67,40a10.28,10.28,0,0,0,2.78,1.9,11.33,11.33,0,0,0,3.25,1,4.46,4.46,0,0,0,2.53-.22,16.45,16.45,0,0,0,4.39-3.1,10.4,10.4,0,0,0,2.6-3.76,3.27,3.27,0,0,0-.35-3.22c-.68-.91-2.17-1.43-4.49-1.55-.5,0-.73-.2-.66-.6a4,4,0,0,1,.75-1.55,24.41,24.41,0,0,1,1.68-2.09c.68-.76,1.36-1.48,2.06-2.18s1.32-1.3,1.89-1.83,1-.87,1.17-1c.55-.42.86-.57.92-.45s-.06.42-.35.89a16.21,16.21,0,0,1-1,1.48c-.45.57-.94,1.18-1.49,1.81s-1.13,1.26-1.74,1.89-1.21,1.22-1.8,1.77a.44.44,0,0,0,0,.73,2.87,2.87,0,0,0,1.19.54,9.18,9.18,0,0,0,1.74.22,3.65,3.65,0,0,0,1.64-.29A6,6,0,0,0,208.25,29a17.51,17.51,0,0,0,1.8-2.12,12.91,12.91,0,0,0,1.33-2.24,4.2,4.2,0,0,0,.45-1.55v-.19A3.77,3.77,0,0,0,210.94,21.34Z"/><path class="cls-1" d="M42,22.28a30.88,30.88,0,0,1-2.08,3.86c-.93,1.49-2,3.08-3.16,4.74s-2.33,3.18-3.45,4.55a34,34,0,0,1-3,3.28c-.86.83-1.42,1.14-1.67.92s-.2-.86.28-2A34.9,34.9,0,0,1,31,33.78c.9-1.49,1.94-3.06,3.09-4.7s2.29-3.14,3.39-4.49a31.32,31.32,0,0,1,2.93-3.22c.87-.8,1.47-1.12,1.8-.95s.22.79-.25,1.86Zm3.64,3.29a6.26,6.26,0,0,0,.47-3A4,4,0,0,0,45,20.64a9.87,9.87,0,0,0-2.11-1.71,11.65,11.65,0,0,0-2.5-1.13A4.77,4.77,0,0,0,38,17.57,8.41,8.41,0,0,0,35,19.16a23.87,23.87,0,0,0-3.35,3.12c-.76.85-1.48,1.77-2.19,2.74C25,29.13,11.09,43.53,11.37,42a27.61,27.61,0,0,1,2.68-7,91.56,91.56,0,0,1,6-10,99.12,99.12,0,0,1,8.86-11.19,1.44,1.44,0,0,0,.35-1.13,9.25,9.25,0,0,0-.9-2,27.41,27.41,0,0,0-2.84-3.51c14.88-.45,30.14,1.44,29.44,2.27a4.48,4.48,0,0,0,.7-.83,9.59,9.59,0,0,0,1-2.68,12.44,12.44,0,0,0,.3-3.07,3.31,3.31,0,0,0-.65-2.2C55.94.31,54.89,0,53.16,0c-14.33,0-13,0-25.56,0H10.22C8.39,0,7.46,2.45,7.81,4.28a3,3,0,0,0,1.8,2.58c1.38.5,8.16.08,12.45.33-2.82,2.9-6.35,9.4-8.84,13.08Q10.72,24,8.39,28.09T4.15,35.91a68.88,68.88,0,0,0-3,6.66A14.09,14.09,0,0,0,0,46.89a2,2,0,0,0,.56.91A9.22,9.22,0,0,0,2,49.09a9.93,9.93,0,0,0,1.9,1.13,4.68,4.68,0,0,0,1.9.47,6,6,0,0,0,2.38-1.16A29.85,29.85,0,0,0,11.45,47C14.3,44.5,22.25,34.67,27,28.68c-.43.75-.84,1.49-1.21,2.23a26.05,26.05,0,0,0-1.67,4.17,7.34,7.34,0,0,0-.32,3.29,2.65,2.65,0,0,0,1.08,1.36A15,15,0,0,0,27,41.06a13.15,13.15,0,0,0,2.34.94,4.72,4.72,0,0,0,1.73.29,7.08,7.08,0,0,0,3-1.39,25.14,25.14,0,0,0,3.42-3,43.14,43.14,0,0,0,3.38-4,42.65,42.65,0,0,0,2.84-4.33A25.4,25.4,0,0,0,45.59,25.57Z"/><path class="cls-1" d="M88.36,19.09a3.86,3.86,0,0,0-1-.85,7.87,7.87,0,0,0-1.39-.7,3.39,3.39,0,0,0-1.17-.28c-.38,0-1,.46-1.93,1.39a41.55,41.55,0,0,0-3.13,3.7c-1.18,1.53-2.47,3.29-3.89,5.27s-2.81,4-4.2,6.13l-.25.32a21.81,21.81,0,0,1-2.53,2.5c-.8.65-1.26.91-1.39.79s0-.68.41-1.52,1.05-1.87,1.8-3.07,1.64-2.48,2.63-3.85,1.94-2.68,2.87-3.92,1.76-2.34,2.5-3.29,1.23-1.57,1.49-1.86a.58.58,0,0,0,0-.82,3.7,3.7,0,0,0-1-.83,9,9,0,0,0-1.4-.66,3.63,3.63,0,0,0-1.2-.28c-.34,0-1,.44-1.83,1.33a39.78,39.78,0,0,0-3,3.41q-1.68,2.09-3.48,4.61L67,27l0,0c-.3.13-9.64,10.36-9.68,10.32s0-.68.41-1.52,1-1.87,1.8-3.07,1.64-2.48,2.63-3.85S64,26.24,65,25s1.76-2.34,2.5-3.29,1.23-1.57,1.48-1.86.2-.46,0-.76a4,4,0,0,0-1-.85,7,7,0,0,0-1.36-.7,3.34,3.34,0,0,0-1.17-.28h-.06c-.51,0-1.47.59-2.91,1.77a58.8,58.8,0,0,0-4.83,4.55c-1.79,1.85-3.64,3.91-5.53,6.16s-3.61,4.44-5.12,6.54q1.89-3.09,3.92-5.78t3.79-4.83q1.77-2.16,3.16-3.64c.93-1,1.62-1.72,2.09-2.18.25-.21.25-.46,0-.76a4.32,4.32,0,0,0-1.08-.85,8.8,8.8,0,0,0-1.45-.7,3.68,3.68,0,0,0-1.2-.28c-.34,0-.94.43-1.81,1.29s-1.85,2-3,3.35S49.13,24.79,48,26.45s-2.27,3.29-3.25,4.87-1.82,3-2.47,4.3a7.37,7.37,0,0,0-1,2.88,2.39,2.39,0,0,0,.47,1.16A7.47,7.47,0,0,0,42.83,41a3.56,3.56,0,0,0,1.23.82.59.59,0,0,0,.85-.28,1.64,1.64,0,0,1,.26-.38q1.06-1.77,2.69-4c1.07-1.48,2.22-3,3.44-4.52s2.48-3,3.76-4.46,2.5-2.71,3.63-3.85q-1.52,2-3,4.23t-2.72,4.2c-.8,1.33-1.45,2.53-2,3.61a6.53,6.53,0,0,0-.76,2.43,2,2,0,0,0,.32,1,3.59,3.59,0,0,0,.86,1,6,6,0,0,0,1.13.76,2.5,2.5,0,0,0,1.17.31,2.38,2.38,0,0,0,1.2-.41,11.48,11.48,0,0,0,1.46-1A13.8,13.8,0,0,0,57.81,39c.22-.26,2.6-2.91,5-5.62-.52.9-1,1.76-1.4,2.56a7.36,7.36,0,0,0-1,2.9,2,2,0,0,0,.31,1,3.73,3.73,0,0,0,.85,1,6.46,6.46,0,0,0,1.14.76,2.5,2.5,0,0,0,1.17.31,3.91,3.91,0,0,0,2-.94,27,27,0,0,0,2.44-2q-1.65,2.52-3,4.89c-.92,1.58-1.73,3-2.4,4.3s-1.21,2.39-1.61,3.32a6,6,0,0,0-.6,2,1.86,1.86,0,0,0,.31.94,4.65,4.65,0,0,0,.83,1,4.5,4.5,0,0,0,1.13.79,2.63,2.63,0,0,0,1.2.32c.34,0,.84-.54,1.49-1.61s1.53-2.5,2.62-4.27a66.84,66.84,0,0,1,4.11-6.06c8.81-11.35,14.74-9.76,17.1-12.2.59-.63.84-1,.76-1s-.61.08-.27-.07c.73-.32-11.4,5.21-12.56,5.88-.41.23-.63.33-.67.28s0-.5.38-1.26.91-1.7,1.58-2.81,1.46-2.35,2.34-3.7,1.78-2.66,2.69-3.92,1.75-2.41,2.56-3.44a19.19,19.19,0,0,1,2-2.31C88.58,19.64,88.59,19.39,88.36,19.09Z"/><path class="cls-1" d="M97.14,37.28a18.83,18.83,0,0,1-2.86,1,7.93,7.93,0,0,1-2.33,0,4.59,4.59,0,0,1-1.17-.22,1.12,1.12,0,0,1-.81-.91,1.4,1.4,0,0,1,.51-1.49,11.06,11.06,0,0,1,2.29-1.5,13,13,0,0,1,2.65-1A4.31,4.31,0,0,1,96.67,33c.6,1.36,1.22,2.58,1.82,3.68a11.43,11.43,0,0,1-1.35.58Zm12.56-9.75A111.07,111.07,0,0,1,101,35.24c-.64-1.46-1.18-2.84-1.6-3.92h0l-.08-.21-.15-.38h0L99,30.29h0a6.82,6.82,0,0,1-.29-1.17,8.59,8.59,0,0,1,0-2.63,15.73,15.73,0,0,1,1.06-3.57,9.64,9.64,0,0,1,1.56-2.53c.58-.63,1.07-.89,1.48-.77A1.52,1.52,0,0,1,104,21.07a6.3,6.3,0,0,1-.44,2.3,13.64,13.64,0,0,1-1.15,2.33c-.46.73-.83-.21-2,.2a2.61,2.61,0,0,0-1.17,1.63c-.14.72.3,2.5,1,2.78s1.21-.55,1.66-1c.73-.67,2.21.2,2.84-.59a9.64,9.64,0,0,0,2.22-2.58,6,6,0,0,0,.65-1.76,4.27,4.27,0,0,0,0-1.67,5.25,5.25,0,0,0-.89-1.85,5.85,5.85,0,0,0-1.76-1.74A9.9,9.9,0,0,0,102.67,18a7.62,7.62,0,0,0-2.16-.44,2.45,2.45,0,0,0-1.57.35,9.65,9.65,0,0,0-2.6,2.52A9.14,9.14,0,0,0,95,23.32a10,10,0,0,0-.33,3.09A23.07,23.07,0,0,0,95,29.53a4.35,4.35,0,0,0-1.5.11,10.68,10.68,0,0,0-1.89.62,11.16,11.16,0,0,0-1.86,1,4.67,4.67,0,0,0-1.32,1.3A3.89,3.89,0,0,0,88,34.18a10.16,10.16,0,0,0,0,2.34,10.65,10.65,0,0,0,.59,2.53,6.83,6.83,0,0,0,1.56,2.13,4.19,4.19,0,0,0,2.59.58,4.09,4.09,0,0,0,1.62-.33c.66-.23,2.33-1.22,3-1.51s1.42-.76,2.33-1.31a29,29,0,0,0,3.72,5c1.2.73,3.63-2,3.63-2-1.06-1.11-3.82-2.39-4.88-4.64,1.41-1,7.32-7.44,7.54-7.86S111.29,25.9,109.7,27.53Z"/><path class="cls-1" d="M100.29,30.64h0l-.11-.27Z"/></g></g></svg>